<?xml version="1.0" encoding="UTF-8"?>
<svg width="601px" height="800px" viewBox="0 0 601 800" version="1.1" xmlns="http://www.w3.org/2000/svg" xmlns:xlink="http://www.w3.org/1999/xlink">
    <!-- Generator: Sketch 63.1 (92452) - https://sketch.com -->
    <title>forgot_password</title>
    <desc>Created with Sketch.</desc>
    <defs>
        <polygon id="path-1" points="0.7157 0.331 12.9997 0.331 12.9997 19.7557 0.7157 19.7557"></polygon>
    </defs>
    <g id="forgot_password" stroke="none" stroke-width="1" fill="none" fill-rule="evenodd" transform="translate(0.000000, 0.000000)">
        <g id="Forgot-password-amico" transform="translate(0.000000, -0.000000)">
            <rect id="Rectangle" fill="#FBFBFB" x="0" y="5.68434189e-14" width="600" height="800"></rect>
            <g id="freepik--Floor--inject-17" transform="translate(64.000000, 347.000000)" fill="#F0F0F0" fill-rule="nonzero">
                <ellipse id="freepik--floor--inject-17" cx="236" cy="136.91" rx="235.59" ry="136.02"></ellipse>
            </g>
            <g id="freepik--Shadow--inject-17" transform="translate(170.000000, 493.000000)" fill="#E0E0E0" fill-rule="nonzero">
                <ellipse id="freepik--shadow--inject-17" cx="81.25" cy="47.08" rx="81.24" ry="46.9"></ellipse>
            </g>
            <g id="freepik--Plants--inject-17" transform="translate(86.000000, 384.000000)" fill-rule="nonzero">
                <g id="freepik--plants--inject-17" transform="translate(385.000000, 12.000000)">
                    <path d="M11.28,85.4 L1.75,79.9 C1.75,79.9 -0.58,59.5 0.97,43.7 C3.15,21.5 17.49,-5.22 34.59,1.06 C51.69,7.34 26.75,29.94 21.2,48.77 C15.65,67.6 11.28,85.4 11.28,85.4 Z" id="Path" fill="#5BD989"></path>
                    <path d="M11.28,85.4 L1.75,79.9 C1.75,79.9 -0.58,59.5 0.97,43.7 C3.15,21.5 17.49,-5.22 34.59,1.06 C51.69,7.34 26.75,29.94 21.2,48.77 C15.65,67.6 11.28,85.4 11.28,85.4 Z" id="Path" fill="#000000" opacity="0.15"></path>
                    <path d="M6.27,83.09 L6.27,83.09 C6.5864492,83.0738135 6.83134001,82.8066599 6.82,82.49 C5.15,33.16 29.71,8.34 29.95,8.1 C30.1763416,7.87352383 30.1763416,7.50647617 29.95,7.28 C29.8429498,7.17190682 29.6971311,7.11109226 29.545,7.11109226 C29.3928689,7.11109226 29.2470502,7.17190682 29.14,7.28 C28.88,7.52 3.97,32.7 5.66,82.53 C5.66515787,82.685668 5.73270839,82.8327199 5.84744454,82.9380515 C5.96218068,83.043383 6.11445955,83.0981416 6.27,83.09 L6.27,83.09 Z" id="Path" fill="#FFFFFF"></path>
                    <path d="M17.27,88.83 L10.49,84.92 C10.49,84.92 9.33,70.92 16.2,53.92 C22.2,39.12 37,26.83 44.46,29.41 C51.92,31.99 51.73,37.28 48.09,42.83 C44.45,48.38 22.34,61.59 17.27,88.83 Z" id="Path" fill="#5BD989"></path>
                    <path d="M13.69,87.35 L13.69,87.35 C14.008084,87.3446529 14.2646529,87.088084 14.27,86.77 C14.13,55.57 43.42,34.49 43.72,34.28 C43.8463241,34.1934619 43.9317026,34.0589706 43.9562629,33.9078302 C43.9808232,33.7566898 43.9424229,33.6020845 43.85,33.48 C43.6659525,33.2232647 43.3102968,33.161025 43.05,33.34 C42.75,33.55 12.98,54.99 13.11,86.77 C13.11,87.0903252 13.3696748,87.35 13.69,87.35 L13.69,87.35 Z" id="Path" fill="#FFFFFF"></path>
                </g>
                <g id="freepik--plants--inject-17">
                    <path d="M43.66,85.15 L52.46,79.21 C52.46,79.21 56.33,56.21 52.73,35.92 C47.67,7.46 28,-2 21,1 C14,4 12.5,12.47 25.57,28.71 C33.32,38.26 43.39,58.65 43.66,85.15 Z" id="Path" fill="#5BD989"></path>
                    <g id="Group" opacity="0.15" transform="translate(15.000000, 0.000000)" fill="#000000">
                        <path d="M28.66,85.15 L37.46,79.21 C37.46,79.21 41.33,56.21 37.73,35.92 C32.67,7.46 13,-2 6,1 C-1,4 -2.5,12.47 10.57,28.71 C18.32,38.26 28.39,58.65 28.66,85.15 Z" id="Path"></path>
                    </g>
                    <path d="M46.68,73.75 L46.59,73.75 C46.408189,73.7385421 46.2398766,73.6501477 46.1272427,73.5069691 C46.0146088,73.3637904 45.9683286,73.1793974 46,73 C49.18,46.21 37.87,17.13 25.56,5.56 C25.3134432,5.31065854 25.3134432,4.90934146 25.56,4.66 C25.678496,4.53906049 25.8406847,4.47090815 26.01,4.47090815 C26.1793153,4.47090815 26.341504,4.53906049 26.46,4.66 C39,16.44 50.52,46 47.3,73.18 C47.2610141,73.4963006 46.9984561,73.7376846 46.68,73.75 Z" id="Path" fill="#FFFFFF"></path>
                    <path d="M20.62,100.69 C19.22,101.53 15.14,98.5 14.01,97.77 C12.0733787,96.5055152 10.4958487,94.7626545 9.43,92.71 C8.23428175,90.3822261 7.7905347,87.7407082 8.16,85.15 C8.36481201,83.7978767 8.66217732,82.4614034 9.05,81.15 C9.4,79.84 9.75,78.53 10.05,77.21 C10.4934891,75.9260547 10.6637952,74.5636058 10.55,73.21 C10.16,70.54 7.75,68.71 5.55,67.14 C3.13,65.39 0.55,63.08 0.55,59.86 C0.673360728,57.3300656 1.64165963,54.9146 3.3,53 C4.8,51 6.6,49.26 7.95,47.17 C9.0056509,45.7217559 9.54444428,43.9609932 9.48,42.17 C9.30614819,41.0659423 8.91163163,40.0082298 8.32,39.06 C7.14,36.98 5.61,35.06 4.78,32.85 C3.95,30.64 4.01,27.8 5.78,26.15 C7.19,24.8 9.34,24.58 11.29,24.67 C13.127498,24.8530091 14.9025152,25.4367167 16.49,26.38 C21.66,29.13 24.7,35.13 30.17,37.22 C32.28,38.02 34.58,38.16 36.77,38.7 C38.96,39.24 41.22,40.31 42.27,42.3 C44.34,46.25 40.73,51.23 42.21,55.42 C43.53,59.14 47.21,60.5 49.29,63.83 C50.1341877,65.3087893 50.4845101,67.0183628 50.29,68.71 C50.1726726,71.5657161 49.5320537,74.3756268 48.4,77 C47.0979978,79.72173 45.6285126,82.3601239 44,84.9 C44,84.9 20.83,100.56 20.62,100.69 Z" id="Path" fill="#5BD989"></path>
                    <path d="M34.14,92.4000807 L34.14,92.4000807 C33.9702548,92.3973685 33.8085097,92.327403 33.6903574,92.2054998 C33.572205,92.0835966 33.507327,91.9197446 33.51,91.75 C34.07,66.43 21.61,38.75 12.79,30.75 C12.5290679,30.5146061 12.506748,30.1128486 12.74,29.85 C12.858496,29.7290605 13.0206847,29.6609082 13.19,29.6609082 C13.3593153,29.6609082 13.521504,29.7290605 13.64,29.85 C22.64,37.95 35.35,66.11 34.78,91.78 C34.7773688,91.9470932 34.708457,92.1062949 34.5884291,92.222572 C34.4684012,92.338849 34.3070925,92.4026733 34.14,92.4000807 Z" id="Path" fill="#FFFFFF"></path>
                    <path d="M29.47,61.55 C29.4109148,61.5648171 29.3490852,61.5648171 29.29,61.55 C21.11,59.19 10.97,58.95 10.87,58.94 C10.7011314,58.937405 10.5403756,58.8671164 10.4238069,58.7449073 C10.3072382,58.6226981 10.2446185,58.4588028 10.25,58.29 C10.246832,58.1193132 10.3153347,57.9551093 10.4388663,57.8372792 C10.5623979,57.719449 10.7296532,57.6587761 10.9,57.67 C11,57.67 21.3,57.92 29.64,60.32 C29.975406,60.4212465 30.1670624,60.7733593 30.07,61.11 C29.9900103,61.373711 29.7455594,61.552975 29.47,61.55 L29.47,61.55 Z" id="Path" fill="#FFFFFF"></path>
                </g>
            </g>
            <g id="freepik--speech-bubble--inject-17" transform="translate(319.000000, 223.000000)">
                <g id="freepik--speach-bubble--inject-17">
                    <path d="M32.16,228.74 L28.37,226.55 C27.0891702,225.718402 26.2827794,224.32487 26.2,222.8 L26.2,65.28 C26.2836972,63.7579307 27.0853897,62.3661033 28.36,61.53 L133.71,0.71 C135.070966,0.0204086064 136.679034,0.0204086064 138.04,0.71 L141.83,2.9 C143.11083,3.73159784 143.917221,5.12513032 144,6.65 L144,164.17 C143.916303,165.692069 143.11461,167.083897 141.84,167.92 L36.49,228.75 C35.1286005,229.441331 33.5181918,229.437612 32.16,228.74 L32.16,228.74 Z" id="Path" fill="#455A64" fill-rule="nonzero"></path>
                    <path d="M144,6.3 C143.85,5.18 142.94,4.77 141.85,5.4 L36.49,66.23 C35.8529451,66.6297345 35.3267756,67.1834162 34.96,67.84 L26.83,63.15 C27.1936411,62.4884599 27.7203017,61.9308193 28.36,61.53 L133.71,0.71 C135.070966,0.0204086064 136.679034,0.0204086064 138.04,0.71 L141.83,2.9 C143.01458,3.66261773 143.807147,4.90442762 144,6.3 Z" id="Path" fill="#455A64" fill-rule="nonzero"></path>
                    <path d="M36.12,228.92 C34.8248506,229.444622 33.3659666,229.382619 32.12,228.75 L28.32,226.55 C27.0453897,225.713897 26.2436972,224.322069 26.16,222.8 L26.16,65.28 C26.1857059,64.5280195 26.4025212,63.7949773 26.79,63.15 L34.92,67.84 C34.5248864,68.4858475 34.304349,69.2232696 34.28,69.98 L34.28,227.5 C34.32,228.74 35.1,229.31 36.12,228.92 Z" id="Path" fill="#263238" fill-rule="nonzero"></path>
                    <path d="M34.32,70 L34.32,227.5 C34.32,228.88 35.32,229.44 36.49,228.75 L141.84,167.92 C143.11461,167.083897 143.916303,165.692069 144,164.17 L144,6.65 C144,5.27 143,4.71 141.84,5.4 L36.49,66.23 C35.2036459,67.0656767 34.3965078,68.4679397 34.32,70 L34.32,70 Z" id="Path" fill="#37474F" fill-rule="nonzero"></path>
                    <path d="M9.72,130 C8.36,129.19 2.05,125.6 1.72,125.41 C1.19913545,125.099228 0.847439067,124.56888 0.76384075,123.968139 C0.680242434,123.367397 0.873775371,122.761176 1.29,122.32 L26.2,95.6 L34.32,100.26 L9.42,127 C9.02432338,127.421281 8.83023755,127.993134 8.88774672,128.568225 C8.9452559,129.143317 9.24873654,129.665413 9.72,130 L9.72,130 Z" id="Path" fill="#455A64" fill-rule="nonzero"></path>
                    <path d="M34.32,100.29 L9.42,127 C8.85387339,127.604378 8.71876577,128.49514 9.080213,129.240209 C9.44166024,129.985278 10.2248958,130.430535 11.05,130.36 L34.32,128.44 L34.32,100.29 Z" id="Path" fill="#37474F" fill-rule="nonzero"></path>
                    <path d="M89.16,91.357664 C95.2364732,87.8999055 100.16,90.7041525 100.16,97.6196695 C100.16,104.535186 95.2364732,112.938174 89.16,116.395932 C83.0835268,119.853691 78.16,117.049444 78.16,110.138804 C78.16,103.228164 83.0835268,94.8154225 89.16,91.357664 Z" id="Path" fill="#5BD989" fill-rule="nonzero"></path>
                    <path d="M89.162772,96.4066588 C91.3803742,95.1709066 93.16,96.170254 93.16,98.6417583 C93.006779,101.366606 91.5219911,103.857319 89.162772,105.347057 C86.9451698,106.582809 85.16,105.583462 85.16,103.111957 C85.3144744,100.386112 86.8014405,97.8951998 89.162772,96.4066588 L89.162772,96.4066588 Z" id="Path" fill="#FFFFFF" fill-rule="nonzero"></path>
                    <path d="M96.16,108.235414 C96.16,104.344836 93.484937,102.76284 90.1902267,104.710705 L88.1297733,105.926832 C84.835063,107.874698 82.16,112.62584 82.16,116.506111 L82.16,117.5728 C82.7820544,117.776169 83.4313811,117.878753 84.0844332,117.876858 C85.8518543,117.815373 87.5728779,117.282453 89.0768766,116.330907 C91.9406492,114.526572 94.3633782,112.076596 96.16,109.168122 L96.16,108.235414 Z" id="Path" fill="#FFFFFF" fill-rule="nonzero"></path>
                    <g id="logo" transform="translate(45.000000, 30.000000)">
                        <path d="M1.7061,53.1867 L0.1221,54.1017 L0.0001,53.6847 L4.5581,45.2277 L5.1181,44.9037 L5.1181,48.5837 L8.0671,46.8817 C8.1161,47.0977 8.1481,47.2977 8.1651,47.4827 C8.1811,47.6687 8.1891,47.8677 8.1891,48.0787 C8.1891,48.3067 8.1811,48.5307 8.1651,48.7507 C8.1481,48.9717 8.1161,49.2257 8.0671,49.5137 L5.1181,51.2167 L5.1181,56.1647 C5.1181,56.6677 5.1591,57.0507 5.2401,57.3127 C5.3211,57.5747 5.4391,57.7497 5.5941,57.8397 C5.7481,57.9297 5.9391,57.9407 6.1661,57.8747 C6.3931,57.8087 6.6621,57.6857 6.9711,57.5077 C7.2141,57.3667 7.4541,57.2087 7.6901,57.0317 C7.9251,56.8557 8.1321,56.6987 8.3111,56.5627 C8.4251,56.8067 8.5061,57.0807 8.5551,57.3847 C8.6041,57.6897 8.6281,57.9727 8.6281,58.2327 C8.6281,58.4117 8.6241,58.5637 8.6161,58.6907 C8.6071,58.8167 8.5951,58.9427 8.5791,59.0647 C7.8321,59.6757 7.0601,60.2107 6.2641,60.6697 C4.7851,61.5237 3.6561,61.8307 2.8761,61.5897 C2.0961,61.3497 1.7061,60.4497 1.7061,58.8897 L1.7061,53.1867 Z" id="Fill-1" fill="#FFFFFF"></path>
                        <path d="M16.9883,48.5559 C16.7933,48.6359 16.5813,48.7289 16.3543,48.8359 C16.1263,48.9439 15.9243,49.0489 15.7453,49.1519 C14.9483,49.6119 14.3193,50.1179 13.8563,50.6689 C13.3933,51.2209 13.1613,51.8129 13.1613,52.4469 C13.1613,52.8689 13.2503,53.1429 13.4293,53.2669 C13.6083,53.3919 13.8233,53.4339 14.0753,53.3939 C14.3273,53.3539 14.5953,53.2639 14.8793,53.1239 C15.1633,52.9849 15.4113,52.8539 15.6233,52.7319 C15.8663,52.5909 16.1113,52.4299 16.3543,52.2479 C16.5983,52.0679 16.8093,51.9089 16.9883,51.7729 L16.9883,48.5559 Z M16.9883,46.0459 C16.9883,45.6559 16.9233,45.3759 16.7933,45.2079 C16.6623,45.0389 16.4843,44.9509 16.2573,44.9439 C16.0293,44.9379 15.7493,45.0059 15.4163,45.1489 C15.0823,45.2929 14.7133,45.4819 14.3063,45.7169 C13.4293,46.2229 12.4953,46.9329 11.5043,47.8469 C11.2763,47.5559 11.1063,47.2559 10.9923,46.9479 C10.8783,46.6399 10.8213,46.2259 10.8213,45.7059 C11.5363,45.0499 12.2513,44.4579 12.9663,43.9309 C13.6813,43.4049 14.3473,42.9639 14.9653,42.6069 C16.6553,41.6309 17.9753,41.2749 18.9253,41.5389 C19.8763,41.8029 20.3513,42.8279 20.3513,44.6159 L20.3513,51.9269 C19.7823,52.4349 19.0923,53.0039 18.2803,53.6359 C17.4673,54.2669 16.5493,54.8779 15.5253,55.4689 C14.6963,55.9479 13.9373,56.3129 13.2463,56.5649 C12.5563,56.8179 11.9633,56.9169 11.4673,56.8619 C10.9713,56.8059 10.5903,56.5879 10.3223,56.2059 C10.0533,55.8259 9.9203,55.2439 9.9203,54.4649 C9.9203,53.6849 10.0863,52.9349 10.4193,52.2139 C10.7523,51.4939 11.1833,50.8229 11.7113,50.2009 C12.2393,49.5789 12.8283,49.0119 13.4783,48.4979 C14.1283,47.9859 14.7783,47.5409 15.4283,47.1649 C15.8993,46.8929 16.4193,46.6179 16.9883,46.3379 L16.9883,46.0459 Z" id="Fill-3" fill="#FFFFFF"></path>
                        <path d="M25.8599,43.7263 C24.9499,43.9923 24.2389,44.0163 23.7269,43.8003 C23.2149,43.5833 22.9599,42.9633 22.9599,41.9393 C22.9599,40.7053 23.4019,39.4823 24.2879,38.2723 C25.1729,37.0623 26.3799,36.0173 27.9069,35.1353 C28.5409,34.7683 29.1659,34.4653 29.7839,34.2223 C30.4009,33.9793 31.0269,33.7883 31.6609,33.6503 C31.6279,34.0923 31.5469,34.5773 31.4169,35.1073 C31.2869,35.6373 31.1319,36.1243 30.9539,36.5683 C30.5639,36.6313 30.1329,36.7383 29.6619,36.8883 C29.1909,37.0383 28.6949,37.2633 28.1749,37.5633 C27.6229,37.8823 27.1919,38.2163 26.8829,38.5653 C26.5749,38.9143 26.4209,39.2753 26.4209,39.6493 C26.4209,40.0063 26.5299,40.1953 26.7499,40.2143 C26.9689,40.2343 27.2809,40.1923 27.6879,40.0873 L29.0769,39.6993 C29.5319,39.5673 29.9429,39.4883 30.3079,39.4643 C30.6729,39.4403 30.9859,39.4913 31.2459,39.6173 C31.5059,39.7433 31.7099,39.9673 31.8559,40.2893 C32.0019,40.6113 32.0749,41.0643 32.0749,41.6493 C32.0749,42.2503 31.9489,42.8843 31.6969,43.5493 C31.4449,44.2143 31.0789,44.8763 30.5999,45.5353 C30.1209,46.1933 29.5399,46.8293 28.8579,47.4433 C28.1749,48.0563 27.4029,48.6113 26.5419,49.1083 C26.1519,49.3333 25.7949,49.5283 25.4699,49.6913 C25.1449,49.8543 24.8319,49.9943 24.5309,50.1113 C24.2309,50.2273 23.9339,50.3303 23.6419,50.4173 C23.3489,50.5053 23.0319,50.5823 22.6909,50.6493 C22.7239,50.1923 22.8009,49.7053 22.9229,49.1873 C23.0449,48.6703 23.2029,48.1443 23.3979,47.6093 C23.9339,47.5113 24.4419,47.3763 24.9219,47.2053 C25.4009,47.0343 25.8999,46.7983 26.4209,46.4973 C26.6479,46.3663 26.8959,46.2033 27.1639,46.0073 C27.4319,45.8123 27.6789,45.5973 27.9069,45.3593 C28.1339,45.1223 28.3249,44.8743 28.4799,44.6143 C28.6339,44.3543 28.7119,44.0863 28.7119,43.8103 C28.7119,43.4203 28.5929,43.2083 28.3579,43.1733 C28.1219,43.1393 27.7929,43.1793 27.3709,43.2923 L25.8599,43.7263 Z" id="Fill-5" fill="#FFFFFF"></path>
                        <path d="M38.3384,35.4006 L41.4584,27.6036 C42.0914,27.1406 42.7334,26.7206 43.3834,26.3456 C44.0014,25.9886 44.6024,25.6906 45.1874,25.4506 L41.9704,33.1326 L45.7234,37.7416 C45.0574,38.2236 44.4154,38.6436 43.7984,38.9996 C43.2294,39.3286 42.6284,39.6266 41.9944,39.8946 L38.3384,35.4006 Z M34.4144,26.4546 C34.9664,26.0386 35.5354,25.6606 36.1204,25.3226 C36.7054,24.9856 37.2824,24.7016 37.8514,24.4706 L37.8514,42.2866 C37.2824,42.7126 36.7054,43.0946 36.1204,43.4326 C35.5354,43.7706 34.9664,44.0496 34.4144,44.2716 L34.4144,26.4546 Z" id="Fill-7" fill="#FFFFFF"></path>
                        <path d="M51.2559,31.8669 C51.4829,31.7679 51.7469,31.6399 52.0479,31.4819 C52.3489,31.3249 52.6209,31.1759 52.8639,31.0349 C53.2059,30.8389 53.5629,30.5999 53.9369,30.3189 C54.3109,30.0379 54.6599,29.7109 54.9849,29.3359 C55.3099,28.9619 55.5779,28.5469 55.7889,28.0919 C55.9999,27.6369 56.1059,27.1409 56.1059,26.6049 C56.1059,26.1009 56.0249,25.7299 55.8619,25.4909 C55.6999,25.2509 55.4679,25.1169 55.1679,25.0869 C54.8669,25.0579 54.5099,25.1219 54.0949,25.2799 C53.6809,25.4379 53.2219,25.6619 52.7179,25.9529 L51.2559,26.7969 L51.2559,31.8669 Z M52.3279,23.4969 C52.7349,23.2629 53.1119,23.0079 53.4619,22.7329 C53.8109,22.4579 54.1149,22.1529 54.3759,21.8149 C54.6349,21.4789 54.8389,21.1089 54.9849,20.7079 C55.1309,20.3059 55.2039,19.8619 55.2039,19.3749 C55.2039,18.9039 55.1189,18.5669 54.9479,18.3649 C54.7779,18.1629 54.5579,18.0539 54.2899,18.0379 C54.0219,18.0219 53.7209,18.0819 53.3889,18.2179 C53.0549,18.3529 52.7259,18.5139 52.4019,18.7019 C51.9459,18.9649 51.5639,19.2099 51.2559,19.4369 L51.2559,24.1159 L52.3279,23.4969 Z M47.7219,19.0389 C48.2419,18.6589 48.8429,18.2459 49.5259,17.8039 C50.2079,17.3609 51.0609,16.8439 52.0849,16.2529 C52.9779,15.7369 53.8229,15.3219 54.6189,15.0089 C55.4149,14.6949 56.1099,14.5419 56.7029,14.5489 C57.2959,14.5559 57.7629,14.7529 58.1049,15.1409 C58.4459,15.5289 58.6169,16.1619 58.6169,17.0389 C58.6169,17.5589 58.5389,18.0869 58.3849,18.6229 C58.2299,19.1589 58.0229,19.6689 57.7629,20.1519 C57.5039,20.6349 57.2109,21.0799 56.8859,21.4869 C56.5609,21.8939 56.2279,22.2209 55.8869,22.4659 C56.2599,22.2989 56.6749,22.1739 57.1299,22.0899 C57.5849,22.0059 58.0069,22.0259 58.3969,22.1499 C58.7869,22.2749 59.1119,22.5379 59.3719,22.9399 C59.6319,23.3429 59.7619,23.9329 59.7619,24.7139 C59.7619,25.7699 59.5629,26.7499 59.1649,27.6539 C58.7669,28.5579 58.2299,29.3999 57.5559,30.1789 C56.8819,30.9579 56.1019,31.6769 55.2159,32.3339 C54.3309,32.9919 53.4009,33.6019 52.4259,34.1649 C51.6779,34.5959 50.9389,35.0029 50.2079,35.3849 C49.4769,35.7659 48.6479,36.1669 47.7219,36.5879 L47.7219,19.0389 Z" id="Fill-9" fill="#FFFFFF"></path>
                        <g id="Group-13" transform="translate(75.000000, 0.669400)">
                            <mask id="mask-2" fill="white">
                                <use xlink:href="#path-1"></use>
                            </mask>
                            <g id="Clip-12"></g>
                            <path d="M6.9307,9.7337 L8.8807,2.4417 C9.4817,1.9967 10.1077,1.5867 10.7577,1.2117 C11.3587,0.8647 11.9517,0.5707 12.5367,0.3307 L10.0997,7.8307 L12.9997,12.6637 C12.3667,13.1277 11.7647,13.5237 11.1967,13.8517 C10.6267,14.1807 10.0507,14.4637 9.4657,14.7047 L6.9307,9.7337 Z M3.5917,11.5877 L1.1787,6.8877 C1.7157,6.4817 2.3077,6.0897 2.9587,5.7147 C3.5757,5.3587 4.2017,5.0457 4.8347,4.7767 L6.7607,9.8317 L4.2497,17.7157 C3.6647,18.1507 3.0877,18.5327 2.5197,18.8607 C1.9507,19.1897 1.3497,19.4877 0.7157,19.7557 L3.5917,11.5877 Z" id="Fill-11" fill="#FFFFFF" mask="url(#mask-2)"></path>
                        </g>
                        <path d="M71.3169,20.0652 L64.5169,23.9912 L64.5169,17.1912 L69.0939,14.5482 L72.7849,9.4252 C72.6389,9.4762 72.4879,9.5422 72.3319,9.6322 L63.5009,14.7312 C62.3789,15.3782 61.4699,16.8132 61.4699,17.9342 L61.4699,26.7662 C61.4699,27.8872 62.3789,28.2722 63.5009,27.6242 L72.3319,22.5252 C73.4539,21.8772 74.3629,20.4432 74.3629,19.3212 L74.3629,12.0592 L71.3169,17.6652 L71.3169,20.0652 Z" id="Fill-14" fill="#FFFFFF"></path>
                        <polygon id="Fill-16" fill="#5BD989" points="74.0625 9.613 71.3165 13.425 67.8825 18.191 66.8155 17.209 65.1265 19.312 67.7675 21.741 71.3165 15.211 74.2275 9.855 75.2705 7.935"></polygon>
                    </g>
                    <path d="M77.08,183.73 L105.24,167.47 C106.44,166.78 107.41,167.34 107.41,168.72 L107.41,177.79 C107.327221,179.31487 106.52083,180.708402 105.24,181.54 L77.08,197.8 C75.88,198.49 74.91,197.93 74.91,196.55 L74.91,187.48 C74.9927794,185.95513 75.7991702,184.561598 77.08,183.73 L77.08,183.73 Z" id="Path" fill="#5BD989" fill-rule="nonzero"></path>
                    <path d="M63.29,163.47 L119,131.29 C120.43,130.46 121.6,131.13 121.6,132.79 L121.6,136.16 C121.500929,137.98891 120.534988,139.660731 119,140.66 L63.26,172.84 C61.83,173.67 60.67,173 60.67,171.34 L60.67,168 C60.7625415,166.156091 61.7378736,164.469734 63.29,163.47 L63.29,163.47 Z" id="Path" fill="#FAFAFA" fill-rule="nonzero"></path>
                    <path d="M69.81,140.18 C70.57,139.74 71.16,139.67 71.58,139.98 C72,140.29 72.21,140.98 72.21,142.04 C72.2311981,143.007514 72.0148849,143.965473 71.58,144.83 C71.1870444,145.611483 70.5710491,146.2588 69.81,146.69 L68.31,147.56 L68.31,150.79 C68.3070813,150.901237 68.2797715,151.010476 68.23,151.11 C68.1947308,151.200497 68.1317214,151.277509 68.05,151.33 L67.29,151.77 C67.2366667,151.81 67.1633333,151.81 67.11,151.77 C67.0560939,151.702276 67.0309546,151.616084 67.04,151.53 L67.04,142.18 C67.0391355,142.069443 67.0630548,141.960098 67.11,141.86 C67.147938,141.77109 67.210363,141.694793 67.29,141.64 L69.81,140.18 Z M68.31,145.75 L69.76,144.91 C70.110361,144.712388 70.4059378,144.430559 70.62,144.09 C70.8474245,143.688352 70.9582478,143.231205 70.94,142.77 C70.94,142.23 70.83,141.92 70.62,141.83 C70.3193765,141.756887 70.0018401,141.82704 69.76,142.02 L68.31,142.86 L68.31,145.75 Z" id="Shape" fill="#FAFAFA" fill-rule="nonzero"></path>
                    <path d="M76.4,136.37 C76.5,136.31 76.58,136.31 76.63,136.37 C76.6940408,136.459693 76.7383473,136.561939 76.76,136.67 L79.07,144.49 C79.07,144.49 79.07,144.55 79.07,144.58 C79.068455,144.69142 79.0410698,144.800961 78.99,144.9 C78.9547308,144.990497 78.8917214,145.067509 78.81,145.12 L78.13,145.51 C78.01,145.58 77.92,145.59 77.87,145.51 C77.8215298,145.459755 77.7870541,145.397699 77.77,145.33 L77.36,143.96 L74.36,145.68 L73.96,147.52 C73.931606,147.619605 73.8948072,147.71662 73.85,147.81 C73.8003542,147.931901 73.7078948,148.031473 73.59,148.09 L72.91,148.48 C72.8579507,148.523683 72.7820493,148.523683 72.73,148.48 C72.677659,148.415346 72.6525518,148.332851 72.66,148.25 C72.6545191,148.213538 72.6545191,148.176462 72.66,148.14 L74.96,137.66 C74.9877002,137.505919 75.0312654,137.355116 75.09,137.21 C75.1389319,137.104862 75.2192973,137.017509 75.32,136.96 L76.4,136.37 Z M76.92,142.43 L75.92,138.9 L74.92,143.62 L76.92,142.43 Z" id="Shape" fill="#FAFAFA" fill-rule="nonzero"></path>
                    <path d="M82.57,132.66 C82.9046876,132.44883 83.2855478,132.321877 83.68,132.29 C83.9589243,132.264929 84.2386942,132.327877 84.48,132.47 C84.6993702,132.612443 84.8702577,132.818205 84.97,133.06 C85.0792221,133.306132 85.1403214,133.570896 85.15,133.84 C85.156799,133.951095 85.1325623,134.061891 85.08,134.16 C85.0447308,134.250497 84.9817214,134.327509 84.9,134.38 L84.24,134.76 C84.13,134.82 84.05,134.83 84,134.76 C83.938082,134.719242 83.8866827,134.664416 83.85,134.6 C83.7690223,134.418178 83.6173135,134.277306 83.43,134.21 C83.1255029,134.166408 82.8161589,134.245543 82.57,134.43 C82.4078443,134.534593 82.2540494,134.651611 82.11,134.78 C81.9614782,134.916616 81.8304778,135.071129 81.72,135.24 C81.6136397,135.402767 81.5263971,135.577252 81.46,135.76 C81.4010241,135.933956 81.3706301,136.11632 81.37,136.3 C81.358182,136.46831 81.3891428,136.636875 81.46,136.79 C81.5224381,136.899036 81.6347379,136.97016 81.76,136.98 C81.9452862,137.012106 82.1347138,137.012106 82.32,136.98 L83.19,136.79 C83.514189,136.693932 83.852286,136.65336 84.19,136.67 C84.4311962,136.669276 84.6661819,136.746436 84.86,136.89 C85.0430957,137.043996 85.1755223,137.249606 85.24,137.48 C85.3379775,137.803928 85.3818994,138.141788 85.37,138.48 C85.3693239,138.926765 85.3053549,139.371181 85.18,139.8 C85.057936,140.240934 84.8798159,140.66439 84.65,141.06 C84.4078072,141.465469 84.1191945,141.841336 83.79,142.18 C83.4537555,142.528813 83.069972,142.828433 82.65,143.07 C82.3420626,143.257528 82.0035907,143.389532 81.65,143.46 C81.3623039,143.515348 81.0649582,143.491146 80.79,143.39 C80.5399936,143.273859 80.3333783,143.081251 80.2,142.84 C80.0365886,142.531483 79.9475535,142.18904 79.9399688,141.84 C79.9389822,141.726211 79.9628743,141.613577 80.01,141.51 C80.0542952,141.424878 80.1197206,141.352565 80.2,141.3 L80.86,140.92 C80.96,140.86 81.04,140.84 81.1,140.87 C81.16,140.9 81.2,140.95 81.24,141.04 C81.2812281,141.142867 81.3349657,141.240267 81.4,141.33 C81.4622281,141.417132 81.5493877,141.483373 81.65,141.52 C81.7816062,141.550351 81.9183938,141.550351 82.05,141.52 C82.2622942,141.469942 82.4649703,141.385493 82.65,141.27 C82.8439509,141.159435 83.0279706,141.032294 83.2,140.89 C83.5362612,140.623872 83.8037503,140.280937 83.98,139.89 C84.0600837,139.689654 84.1008259,139.475757 84.1,139.26 C84.1189837,139.1017 84.0719667,138.942565 83.97,138.82 C83.8605542,138.723568 83.7144543,138.679738 83.57,138.7 C83.3430314,138.709353 83.1180444,138.746291 82.9,138.81 C82.64,138.87 82.34,138.94 81.99,139 C81.7221529,139.067019 81.4447498,139.087317 81.17,139.06 C80.9536194,139.046055 80.7487132,138.957733 80.59,138.81 C80.4170477,138.640591 80.2956858,138.425607 80.24,138.19 C80.1595215,137.842595 80.1225712,137.486528 80.13,137.13 C80.1293941,136.689705 80.1934095,136.251705 80.32,135.83 C80.439362,135.39605 80.6141338,134.979287 80.84,134.59 C81.0562881,134.203433 81.318158,133.844201 81.62,133.52 C81.894316,133.189766 82.2141822,132.900203 82.57,132.66 Z" id="Path" fill="#FAFAFA" fill-rule="nonzero"></path>
                    <path d="M89.14,128.88 C89.4723043,128.662306 89.8539996,128.531635 90.25,128.5 C90.5288347,128.476264 90.8082034,128.539122 91.05,128.68 C91.2636277,128.826177 91.4303446,129.0311 91.53,129.27 C91.6392221,129.516132 91.7003214,129.780896 91.71,130.05 C91.7217499,130.161422 91.6971979,130.27366 91.64,130.37 C91.6047308,130.460497 91.5417214,130.537509 91.46,130.59 L90.8,130.97 C90.7,131.03 90.62,131.05 90.56,130.97 C90.4962567,130.929874 90.4471586,130.870255 90.42,130.8 C90.3285914,130.624516 90.1753941,130.489132 89.99,130.42 C89.688595,130.37576 89.3820957,130.45509 89.14,130.64 C88.9729266,130.741999 88.8155963,130.85916 88.67,130.99 C88.5246158,131.126858 88.3969546,131.281396 88.29,131.45 C88.1797545,131.610506 88.0922574,131.7855 88.03,131.97 C87.9677913,132.143437 87.9340226,132.325788 87.93,132.51 C87.918182,132.67831 87.9491428,132.846875 88.02,133 C88.0824381,133.109036 88.1947379,133.18016 88.32,133.19 C88.5052689,133.222306 88.6947311,133.222306 88.88,133.19 L89.75,133 C90.075291,132.909378 90.4125037,132.868912 90.75,132.88 C90.9914249,132.877818 91.226862,132.955126 91.42,133.1 C91.6028312,133.256136 91.7379911,133.460609 91.81,133.69 C91.8982799,134.015751 91.9387031,134.352611 91.93,134.69 C91.9293239,135.136765 91.8653549,135.581181 91.74,136.01 C91.617936,136.450934 91.4398159,136.87439 91.21,137.27 C90.9690745,137.679381 90.6803865,138.058704 90.35,138.4 C90.0123325,138.740243 89.6325939,139.035969 89.22,139.28 C88.9116991,139.466792 88.57336,139.598744 88.22,139.67 C87.935579,139.72451 87.6416715,139.700306 87.37,139.6 C87.1150762,139.487457 86.9042437,139.294194 86.77,139.05 C86.6056658,138.74231 86.5197943,138.398825 86.52,138.05 C86.5082501,137.938578 86.5328021,137.82634 86.59,137.73 C86.6252692,137.639503 86.6882786,137.562491 86.77,137.51 L87.43,137.13 C87.53,137.07 87.62,137.05 87.67,137.08 C87.7404564,137.111953 87.7921506,137.174724 87.81,137.25 C87.8552236,137.350924 87.9087404,137.447923 87.97,137.54 C88.0357696,137.627855 88.1263183,137.694025 88.23,137.73 C88.3616062,137.760351 88.4983938,137.760351 88.63,137.73 C88.8422942,137.679942 89.0449703,137.595493 89.23,137.48 C89.4191622,137.366881 89.5996589,137.239865 89.77,137.1 C89.9455823,136.962914 90.1005059,136.801254 90.23,136.62 C90.3594096,136.447282 90.4668967,136.259179 90.55,136.06 C90.6300837,135.859654 90.6708259,135.645757 90.67,135.43 C90.6889837,135.2717 90.6419667,135.112565 90.54,134.99 C90.4305542,134.893568 90.2844543,134.849738 90.14,134.87 C89.916777,134.883648 89.6955831,134.920513 89.48,134.98 C89.22,135.04 88.91,135.11 88.57,135.17 C88.2987482,135.23699 88.0180665,135.25728 87.74,135.23 C87.5230205,135.218582 87.3172873,135.129904 87.16,134.98 C86.9902582,134.809688 86.8723543,134.594686 86.82,134.36 C86.7311584,134.017322 86.6907658,133.663887 86.7,133.31 C86.7035413,132.866731 86.7674625,132.42601 86.89,132 C87.0137145,131.567567 87.1882663,131.151328 87.41,130.76 C87.626353,130.370928 87.891866,130.011309 88.2,129.69 C88.4692923,129.372748 88.7864407,129.099461 89.14,128.88 Z" id="Path" fill="#FAFAFA" fill-rule="nonzero"></path>
                    <path d="M96.43,130.13 L95.62,134.92 C95.5960227,135.06409 95.5557649,135.204992 95.5,135.34 C95.4611905,135.447794 95.3872165,135.539381 95.29,135.6 L94.53,136.04 C94.43,136.1 94.36,136.1 94.31,136.04 C94.2428994,135.957794 94.2042982,135.856027 94.2,135.75 L93,127.3 C93,127.3 93,127.22 93,127.19 C93.0029187,127.078763 93.0302285,126.969524 93.08,126.87 C93.117938,126.78109 93.180363,126.704793 93.26,126.65 L93.95,126.25 C94.0077278,126.226648 94.0722722,126.226648 94.13,126.25 C94.19,126.25 94.23,126.33 94.25,126.49 L95.04,132.18 L95.73,127.91 C95.7479469,127.803542 95.7781476,127.699518 95.82,127.6 C95.8596649,127.473504 95.9452958,127.366465 96.06,127.3 L96.83,126.85 C96.94,126.79 97.02,126.8 97.07,126.85 C97.1131737,126.913589 97.1437275,126.984882 97.16,127.06 L97.86,130.53 L98.65,123.93 C98.6594754,123.800163 98.6970051,123.673926 98.76,123.56 C98.806715,123.485286 98.8679182,123.420682 98.94,123.37 L99.63,122.97 C99.6833333,122.93 99.7566667,122.93 99.81,122.97 C99.8674899,123.036196 99.8962742,123.122549 99.89,123.21 C99.8938801,123.249906 99.8938801,123.290094 99.89,123.33 L98.69,133.16 C98.6699453,133.303832 98.6330244,133.444803 98.58,133.58 C98.5343388,133.68673 98.4577005,133.777303 98.36,133.84 L97.59,134.28 C97.5,134.33 97.43,134.33 97.38,134.28 C97.3293328,134.1881 97.2890835,134.090831 97.26,133.99 L96.43,130.13 Z" id="Path" fill="#FAFAFA" fill-rule="nonzero"></path>
                    <path d="M101.11,125.89 C101.132196,125.335517 101.19908,124.783728 101.31,124.24 C101.424315,123.708592 101.598773,123.191931 101.83,122.7 C102.050419,122.221724 102.332846,121.774549 102.67,121.37 C103.011922,120.968645 103.421429,120.630209 103.88,120.37 C104.232253,120.130994 104.644612,119.995851 105.07,119.98 C105.38771,119.983459 105.691971,120.108743 105.92,120.33 C106.162249,120.60222 106.336967,120.927675 106.43,121.28 C106.55904,121.739294 106.629598,122.213037 106.64,122.69 C106.64,122.87 106.64,123.07 106.64,123.29 C106.64,123.51 106.64,123.74 106.64,123.98 C106.64,124.22 106.64,124.45 106.64,124.67 C106.64,124.89 106.64,125.1 106.64,125.29 C106.618366,125.841222 106.551475,126.389734 106.44,126.93 C106.324485,127.4598 106.153544,127.975975 105.93,128.47 C105.702721,128.946758 105.41721,129.393498 105.08,129.8 C104.738185,130.197535 104.332657,130.535475 103.88,130.8 C103.51949,131.03731 103.101235,131.17212 102.67,131.19 C102.355266,131.196414 102.051663,131.073526 101.83,130.85 C101.569196,130.569986 101.38945,130.224319 101.31,129.85 C101.190922,129.388937 101.123838,128.915991 101.11,128.44 C101.11,128.26 101.11,128.06 101.11,127.84 C101.11,127.62 101.11,127.39 101.11,127.15 C101.11,126.91 101.11,126.69 101.11,126.46 C101.11,126.23 101.1,126.07 101.11,125.89 Z M105.37,123.5 C105.414941,123.005632 105.256,122.514358 104.93,122.14 C104.67,121.91 104.31,121.92 103.88,122.14 C103.413229,122.414359 103.04292,122.826589 102.82,123.32 C102.536443,123.90298 102.386145,124.541746 102.38,125.19 C102.38,125.56 102.38,125.97 102.38,126.42 C102.38,126.87 102.38,127.27 102.38,127.63 C102.335059,128.124368 102.494,128.615642 102.82,128.99 C103.08,129.21 103.44,129.19 103.88,128.94 C104.339088,128.66373 104.704827,128.256193 104.93,127.77 C105.213703,127.190629 105.364049,126.555076 105.37,125.91 C105.37,125.53 105.37,125.12 105.37,124.67 C105.37,124.22 105.38,123.86 105.37,123.5 Z" id="Shape" fill="#FAFAFA" fill-rule="nonzero"></path>
                    <path d="M111,116.38 C111.79,115.93 112.38,115.86 112.79,116.19 C113.281892,116.732069 113.505644,117.465682 113.4,118.19 C113.408194,118.869238 113.303433,119.545114 113.09,120.19 C112.886802,120.790695 112.571193,121.347254 112.16,121.83 L113.46,124.66 C113.464197,124.706572 113.464197,124.753428 113.46,124.8 C113.460479,124.890152 113.439935,124.979174 113.4,125.06 C113.372308,125.132608 113.323557,125.195288 113.26,125.24 L112.46,125.7 C112.33,125.77 112.24,125.78 112.18,125.7 C112.127097,125.647528 112.083179,125.586717 112.05,125.52 L110.82,122.85 L109.57,123.57 L109.57,126.95 C109.570864,127.060557 109.546945,127.169902 109.5,127.27 C109.458826,127.356907 109.397033,127.432432 109.32,127.49 L108.56,127.93 C108.507951,127.973683 108.432049,127.973683 108.38,127.93 C108.322017,127.86809 108.292952,127.784529 108.3,127.7 L108.3,118.35 C108.302919,118.238763 108.330229,118.129524 108.38,118.03 C108.415269,117.939503 108.478279,117.862491 108.56,117.81 L111,116.38 Z M109.59,121.76 L111,121 C111.344569,120.807636 111.639144,120.537038 111.86,120.21 C112.091609,119.82466 112.203025,119.378998 112.18,118.93 C112.18,118.39 112.07,118.09 111.86,118.03 C111.555625,117.988601 111.247104,118.067525 111,118.25 L109.64,119.03 L109.59,121.76 Z" id="Shape" fill="#FAFAFA" fill-rule="nonzero"></path>
                    <path d="M117.7,112.53 C118.062924,112.293169 118.478392,112.148957 118.91,112.11 C119.222928,112.098471 119.527967,112.209721 119.76,112.42 C120.024853,112.698549 120.208178,113.044445 120.29,113.42 C120.424465,113.91592 120.498336,114.426307 120.51,114.94 C120.51,115.64 120.51,116.36 120.51,117.09 C120.489535,117.685375 120.415909,118.277731 120.29,118.86 C120.175714,119.401076 120.001298,119.92768 119.77,120.43 C119.546782,120.891339 119.264405,121.321628 118.93,121.71 C118.595929,122.107547 118.196957,122.445659 117.75,122.71 L115.38,124 C115.327951,124.043683 115.252049,124.043683 115.2,124 C115.140877,123.938786 115.111627,123.854691 115.12,123.77 L115.12,114.42 C115.122919,114.308763 115.150229,114.199524 115.2,114.1 C115.235269,114.009503 115.298279,113.932491 115.38,113.88 L117.7,112.53 Z M119.24,115.64 C119.23558,115.369198 119.195227,115.100181 119.12,114.84 C119.073465,114.643112 118.973051,114.463061 118.83,114.32 C118.703088,114.193121 118.529368,114.124357 118.35,114.13 C118.099556,114.146727 117.858021,114.229539 117.65,114.37 L116.39,115.09 L116.39,121.61 L117.7,120.86 C117.953307,120.71244 118.179834,120.523103 118.37,120.3 C118.556247,120.080664 118.714154,119.838764 118.84,119.58 C118.964611,119.304477 119.05851,119.016073 119.12,118.72 C119.189669,118.411172 119.22985,118.096426 119.24,117.78 C119.27,117.05 119.27,116.34 119.24,115.64 L119.24,115.64 Z" id="Shape" fill="#FAFAFA" fill-rule="nonzero"></path>
                </g>
            </g>
            <g id="freepik--question-marks--inject-17" transform="translate(280.000000, 180.000000)" fill-rule="nonzero">
                <g>
                    <path d="M17.38,0.39 C19.1060986,0.774079688 20.7692246,1.40027691 22.32,2.25 C23.804942,3.04828064 25.1357452,4.10479614 26.25,5.37 C27.3161036,6.58705842 28.1073999,8.01957774 28.57,9.57 C29.0418924,11.2296274 29.0763421,12.9831185 28.67,14.66 C28.401817,15.9895051 27.8751884,17.2534138 27.12,18.38 C26.4305504,19.343376 25.6091923,20.2051288 24.68,20.94 C23.7674628,21.6485213 22.7936127,22.2743288 21.77,22.81 L18.89,24.34 C18.022419,24.792484 17.198863,25.3247824 16.43,25.93 C15.7343869,26.4635896 15.20113,27.1803699 14.89,28 C14.7376524,28.3744522 14.4850758,28.6996878 14.16,28.94 C13.8483916,29.1821326 13.4425173,29.2669972 13.06,29.17 L8.82,28.23 C8.40757498,28.1435221 8.04722643,27.8948816 7.82,27.54 C7.57722223,27.2087643 7.50666764,26.7817234 7.63,26.39 C7.97137238,25.0768834 8.57330272,23.8458168 9.4,22.77 C10.1542734,21.8183772 11.0281509,20.9680272 12,20.24 C12.9468799,19.5469026 13.9504229,18.9347414 15,18.41 C16,17.9 17,17.41 17.87,16.92 C18.6793158,16.4850044 19.4402347,15.9654341 20.14,15.37 C20.7539838,14.8559805 21.1796421,14.1524131 21.35,13.37 C21.6728693,11.9909372 21.2992264,10.541203 20.35,9.49 C19.1807216,8.2133007 17.6176365,7.36486942 15.91,7.08 C12.75,6.38 10.0833333,7.44333333 7.91,10.27 C7.70016972,10.5785467 7.43584875,10.8462564 7.13,11.06 C6.78478223,11.2311046 6.38618619,11.2598323 6.02,11.14 L1.51,10.14 C1.18830924,10.0778431 0.904293047,9.89089573 0.72,9.62 C0.520879208,9.32713968 0.458840809,8.96220792 0.55,8.62 C0.933296003,7.2304477 1.64690697,5.95418192 2.63,4.9 C3.73870996,3.67745456 5.05585345,2.66166266 6.52,1.9 C8.12090421,1.06239726 9.8463751,0.488365846 11.63,0.2 C13.5408097,-0.1108102 15.4938765,-0.0462740804 17.38,0.39 L17.38,0.39 Z M12.59,32.57 C13.4150567,32.7637031 13.934547,33.5806793 13.76,34.41 L12.68,39.31 C12.6060693,39.7249547 12.3587207,40.0887025 12,40.31 C11.661553,40.5433812 11.2403954,40.6232559 10.84,40.53 L6,39.42 C5.58354307,39.3497826 5.21839638,39.1014829 5,38.74 C4.77351136,38.3986432 4.6975585,37.9790941 4.79,37.58 L5.88,32.68 C6.07384667,31.8541818 6.88860441,31.3316741 7.72,31.5 L12.59,32.57 Z" id="Shape" fill="#5BD989"></path>
                    <path d="M22.72,47.3 C23.9241142,47.1068341 25.1493494,47.0832719 26.36,47.23 C27.5164536,47.3674675 28.640006,47.7058869 29.68,48.23 C30.6704431,48.7438144 31.5424512,49.4591335 32.24,50.33 C33.5082573,52.0535372 33.9878112,54.2333277 33.56,56.33 C33.3694432,57.1271396 33.0628377,57.8919686 32.65,58.6 C32.2521104,59.2886759 31.7900582,59.9382276 31.27,60.54 C30.76,61.14 30.27,61.71 29.82,62.26 C29.3795178,62.7724036 28.9878193,63.324799 28.65,63.91 C28.3331273,64.4229176 28.173227,65.0173298 28.19,65.62 C28.1812327,65.9016721 28.1021678,66.1766805 27.96,66.42 C27.8136859,66.6468323 27.5769199,66.7998195 27.31,66.84 L24.31,67.32 C24.0267797,67.3713933 23.7347977,67.3065084 23.5,67.14 C23.2602956,66.9893445 23.1077149,66.7325623 23.09,66.45 C22.9642934,65.519455 23.032386,64.572968 23.29,63.67 C23.5251498,62.8706146 23.8611887,62.1044461 24.29,61.39 C24.710517,60.7043551 25.1925009,60.0583628 25.73,59.46 C26.26,58.86 26.73,58.3 27.19,57.76 C27.600661,57.2777462 27.9561965,56.7511512 28.25,56.19 C28.5102674,55.7069984 28.6051053,55.152021 28.52,54.61 C28.3673414,53.6417458 27.7512849,52.8091361 26.87,52.38 C25.7950086,51.8606762 24.5780195,51.7129493 23.41,51.96 C21.2429438,52.2768823 19.5093497,53.9223954 19.08,56.07 C19.0213934,56.3220991 18.9199179,56.5622578 18.78,56.78 C18.6015849,56.9698219 18.3595165,57.0872963 18.1,57.11 L14.94,57.62 C14.717872,57.6625042 14.4879413,57.6157995 14.3,57.49 C14.1051949,57.3561449 13.9776234,57.1447406 13.95,56.91 C13.8559554,55.9176796 14.0106127,54.9175628 14.4,54 C14.7954449,52.9322786 15.3778703,51.9435099 16.12,51.08 C16.9334044,50.1344564 17.892051,49.3243325 18.96,48.68 C20.1123015,47.9811831 21.3892197,47.512527 22.72,47.3 L22.72,47.3 Z M27.88,69.15 C28.158117,69.1058856 28.4423574,69.1742472 28.67,69.34 C28.9083713,69.4967119 29.0684656,69.7477689 29.11,70.03 L29.67,73.46 C29.7602481,74.0390326 29.3679281,74.5829306 28.79,74.68 L25.44,75.23 C25.1619278,75.2730033 24.8781079,75.2047428 24.65,75.04 C24.4154183,74.8812744 24.2591491,74.6305169 24.22,74.35 L23.66,70.92 C23.6086753,70.6416443 23.6777169,70.3545766 23.85,70.13 C24.0087256,69.8954183 24.2594831,69.7391491 24.54,69.7 L27.88,69.15 Z" id="Shape" fill="#5BD989"></path>
                    <g id="Group" opacity="0.2" transform="translate(13.000000, 47.000000)" fill="#000000">
                        <path d="M9.72,0.3 C10.9241142,0.106834117 12.1493494,0.0832719005 13.36,0.23 C14.5164536,0.367467487 15.640006,0.705886878 16.68,1.23 C17.6704431,1.74381436 18.5424512,2.45913349 19.24,3.33 C20.5082573,5.05353719 20.9878112,7.23332773 20.56,9.33 C20.3694432,10.1271396 20.0628377,10.8919686 19.65,11.6 C19.2521104,12.2886759 18.7900582,12.9382276 18.27,13.54 C17.76,14.14 17.27,14.71 16.82,15.26 C16.3795178,15.7724036 15.9878193,16.324799 15.65,16.91 C15.3331273,17.4229176 15.173227,18.0173298 15.19,18.62 C15.1812327,18.9016721 15.1021678,19.1766805 14.96,19.42 C14.8136859,19.6468323 14.5769199,19.7998195 14.31,19.84 L11.31,20.32 C11.0267797,20.3713933 10.7347977,20.3065084 10.5,20.14 C10.2602956,19.9893445 10.1077149,19.7325623 10.09,19.45 C9.96429344,18.519455 10.032386,17.572968 10.29,16.67 C10.5251498,15.8706146 10.8611887,15.1044461 11.29,14.39 C11.710517,13.7043551 12.1925009,13.0583628 12.73,12.46 C13.26,11.86 13.73,11.3 14.19,10.76 C14.600661,10.2777462 14.9561965,9.75115119 15.25,9.19 C15.5102674,8.70699837 15.6051053,8.15202102 15.52,7.61 C15.3673414,6.64174575 14.7512849,5.80913614 13.87,5.38 C12.7950086,4.86067625 11.5780195,4.71294926 10.41,4.96 C8.24294384,5.27688228 6.50934974,6.92239538 6.08,9.07 C6.02139337,9.3220991 5.91991788,9.56225777 5.78,9.78 C5.60158494,9.9698219 5.35951653,10.0872963 5.1,10.11 L1.94,10.62 C1.71787199,10.6625042 1.48794133,10.6157995 1.3,10.49 C1.10519492,10.3561449 0.977623377,10.1447406 0.95,9.91 C0.855955431,8.91767965 1.01061267,7.91756284 1.4,7 C1.79544493,5.93227859 2.37787034,4.94350986 3.12,4.08 C3.93340437,3.13445637 4.89205098,2.32433246 5.96,1.68 C7.11230152,0.981183133 8.38921974,0.512526975 9.72,0.3 L9.72,0.3 Z M14.88,22.15 C15.158117,22.1058856 15.4423574,22.1742472 15.67,22.34 C15.9083713,22.4967119 16.0684656,22.7477689 16.11,23.03 L16.67,26.46 C16.7602481,27.0390326 16.3679281,27.5829306 15.79,27.68 L12.44,28.23 C12.1619278,28.2730033 11.8781079,28.2047428 11.65,28.04 C11.4154183,27.8812744 11.2591491,27.6305169 11.22,27.35 L10.66,23.92 C10.6086753,23.6416443 10.6777169,23.3545766 10.85,23.13 C11.0087256,22.8954183 11.2594831,22.7391491 11.54,22.7 L14.88,22.15 Z" id="Shape"></path>
                    </g>
                    <path d="M51,52.69 C51.2755437,52.8815569 51.4600145,53.1781569 51.51,53.51 C51.574336,53.8389107 51.4981934,54.1797394 51.3,54.45 L48.92,57.8 C48.7284431,58.0755437 48.4318431,58.2600145 48.1,58.31 C47.7710893,58.374336 47.4302606,58.2981934 47.16,58.1 L43.88,55.77 C43.6036587,55.5808215 43.4216303,55.2822949 43.38,54.95 C43.315664,54.6210893 43.3918066,54.2802606 43.59,54.01 L46,50.66 C46.4055374,50.0949257 47.1901629,49.9611827 47.76,50.36 L51,52.69 Z M64.84,30 C66.0359488,30.8381616 67.1008832,31.8491753 68,33 C68.8769462,34.0704978 69.5543791,35.2898771 70,36.6 C70.4150522,37.8554935 70.5548882,39.1856409 70.41,40.5 C70.2405306,41.9016118 69.7098674,43.2351615 68.87,44.37 C68.2460158,45.2875774 67.4433388,46.0698474 66.51,46.67 C65.6885683,47.1849759 64.7956075,47.5758568 63.86,47.83 C62.9485509,48.0682184 62.0185589,48.2287925 61.08,48.31 L58.42,48.55 C57.6223919,48.6137463 56.8323725,48.7509954 56.06,48.96 C55.3475394,49.1217642 54.6956166,49.4824024 54.18,50 C53.9472606,50.2365116 53.6527248,50.4028376 53.33,50.48 C53.0185548,50.5693465 52.6831238,50.5022603 52.43,50.3 L49.53,48.24 C49.2528804,48.0420602 49.0629848,47.7446765 49,47.41 C48.9242147,47.0810617 49.009628,46.7356951 49.23,46.48 C49.9074397,45.6009544 50.7540936,44.8665077 51.72,44.32 C52.5896827,43.8451033 53.517475,43.4854157 54.48,43.25 C55.4090272,43.024608 56.3559533,42.8807288 57.31,42.82 C58.25,42.76 59.13,42.69 59.95,42.61 C60.7004173,42.5437306 61.4414241,42.3961999 62.16,42.17 C62.7884173,41.9606984 63.3299015,41.549311 63.7,41 C64.3784147,40.0585891 64.5539126,38.8450397 64.17,37.75 C63.6969335,36.4171772 62.7924598,35.2804262 61.6,34.52 C59.44,32.98 57.0833333,32.93 54.53,34.37 C54.27305,34.533558 53.9883741,34.6487839 53.69,34.71 C53.3761355,34.7318501 53.0665416,34.6274522 52.83,34.42 L49.75,32.23 C49.5246601,32.0804019 49.3695301,31.8459031 49.32,31.58 C49.2716072,31.3048746 49.3405006,31.0220491 49.51,30.8 C50.2367241,29.8689013 51.1810659,29.1305976 52.26,28.65 C53.4857409,28.094708 54.7985535,27.7563543 56.14,27.65 C57.615941,27.526655 59.1021192,27.6448737 60.54,28 C62.0921061,28.3739845 63.5539817,29.0539267 64.84,30 L64.84,30 Z" id="Shape" fill="#5BD989"></path>
                    <g id="Group" opacity="0.6" transform="translate(43.000000, 27.000000)" fill="#FFFFFF">
                        <path d="M8,25.69 C8.27554374,25.8815569 8.46001449,26.1781569 8.51,26.51 C8.57433596,26.8389107 8.49819338,27.1797394 8.3,27.45 L5.92,30.8 C5.72844312,31.0755437 5.43184309,31.2600145 5.1,31.31 C4.77108925,31.374336 4.43026058,31.2981934 4.16,31.1 L0.88,28.77 C0.603658702,28.5808215 0.421630293,28.2822949 0.38,27.95 C0.315664039,27.6210893 0.391806616,27.2802606 0.59,27.01 L3,23.66 C3.40553737,23.0949257 4.19016292,22.9611827 4.76,23.36 L8,25.69 Z M21.84,3 C23.0359488,3.83816161 24.1008832,4.84917527 25,6 C25.8769462,7.07049776 26.5543791,8.28987708 27,9.6 C27.4150522,10.8554935 27.5548882,12.1856409 27.41,13.5 C27.2405306,14.9016118 26.7098674,16.2351615 25.87,17.37 C25.2460158,18.2875774 24.4433388,19.0698474 23.51,19.67 C22.6885683,20.1849759 21.7956075,20.5758568 20.86,20.83 C19.9485509,21.0682184 19.0185589,21.2287925 18.08,21.31 L15.42,21.55 C14.6223919,21.6137463 13.8323725,21.7509954 13.06,21.96 C12.3475394,22.1217642 11.6956166,22.4824024 11.18,23 C10.9472606,23.2365116 10.6527248,23.4028376 10.33,23.48 C10.0185548,23.5693465 9.6831238,23.5022603 9.43,23.3 L6.53,21.24 C6.25288043,21.0420602 6.06298482,20.7446765 6,20.41 C5.92421472,20.0810617 6.00962796,19.7356951 6.23,19.48 C6.90743974,18.6009544 7.75409358,17.8665077 8.72,17.32 C9.58968273,16.8451033 10.517475,16.4854157 11.48,16.25 C12.4090272,16.024608 13.3559533,15.8807288 14.31,15.82 C15.25,15.76 16.13,15.69 16.95,15.61 C17.7004173,15.5437306 18.4414241,15.3961999 19.16,15.17 C19.7884173,14.9606984 20.3299015,14.549311 20.7,14 C21.3784147,13.0585891 21.5539126,11.8450397 21.17,10.75 C20.6969335,9.41717724 19.7924598,8.28042619 18.6,7.52 C16.44,5.98 14.0833333,5.93 11.53,7.37 C11.27305,7.53355801 10.9883741,7.64878394 10.69,7.71 C10.3761355,7.73185014 10.0665416,7.62745223 9.83,7.42 L6.75,5.23 C6.52466006,5.08040193 6.36953005,4.84590308 6.32,4.58 C6.2716072,4.30487459 6.34050059,4.0220491 6.51,3.8 C7.2367241,2.86890125 8.18106594,2.13059764 9.26,1.65 C10.4857409,1.09470804 11.7985535,0.756354287 13.14,0.65 C14.615941,0.526655008 16.1021192,0.644873725 17.54,1 C19.0921061,1.37398454 20.5539817,2.05392671 21.84,3 L21.84,3 Z" id="Shape"></path>
                    </g>
                </g>
            </g>
            <g id="freepik--Character--inject-17" transform="translate(177.000000, 204.000000)" fill-rule="nonzero">
                <g id="freepik--character--inject-17">
                    <path d="M79.53,117.21 L44,117.21 L44,31.13 C44,15.5610929 56.6210929,2.94 72.19,2.94 L75.47,2.94 C91.0389071,2.94 103.66,15.5610929 103.66,31.13 L103.66,93.13 C103.632426,106.437101 92.8371292,117.21 79.53,117.21 Z" id="Path" fill="#263238"></path>
                    <path d="M40.54,324.44 C39.9115518,328.006551 39.5770941,331.618694 39.54,335.24 C39.41,341.8 38.21,344.13 38.05,349.51 C37.86,355.66 38.93,357.96 41.42,361.42 C43.91,364.88 50.42,368.01 53.24,362.17 C56.06,356.33 55.65,352.5 54.76,346.47 C53.85,340.23 53.76,336.78 53.2,332.03 C52.74,327.84 52.2,324.65 52.2,324.65 L40.54,324.44 Z" id="Path" fill="#263238"></path>
                    <path d="M59.16,280.87 L37.56,280.48 C37.88,294.9 40.17,310.91 40.56,324.48 C40.64,327.03 40.5,344.27 41.46,349.48 C42.91,357.36 52.25,356.29 52.75,351.58 C53.25,346.87 52.15,326.74 52.18,324.66 C52.09,315.98 56.18,301.33 58.29,285.75 C58.38,285 59.06,281.62 59.16,280.87 Z" id="Path" fill="#FFA8A7"></path>
                    <path d="M86.91,313.22 C86.91,313.22 86.06,312.76 85.91,313.67 C85.7,314.75 85.38,316.98 84.91,318.76 C84.29,321.23 83.77,325.3 84.14,327.32 C84.51,329.34 89.21,331.92 92.26,332.86 C96.0189813,334.020073 99.4471308,336.059822 102.26,338.81 C105.26,341.65 111.79,344.33 116.26,344.30025 C121.51,344.30025 125.17,342.55 126.9,339.74 C128.63,336.93 125.32,336.59 119.32,332.74 L114.67,329.74 C105.16,323.53 101.67,320.21 99,314 L86.91,313.22 Z" id="Path" fill="#263238"></path>
                    <path d="M99.08,309.37 C98.92,304.91 102,267 102,267 L81.49,276.35 C85.88,302.57 86.82,308.76 86.89,313.05 L86.89,313.05 C86.8000506,313.409369 86.7629939,313.779935 86.78,314.15 C86.78,319.24 92.55,321.99 97.03,325.39 C100.838441,328.373371 104.896773,331.023164 109.16,333.31 C112.42,334.94 119.04,335.09 119.86,333 C114.4,328.83 106.46,322.59 102.12,317.83 C100,315.59 99.24,313.84 99.08,309.37 Z" id="Path" fill="#FFA8A7"></path>
                    <path d="M46.41,140.16 C38.53,157.45 38.53,170.83 39.84,192.9 C41,213.15 42.93,231 42.93,231 C42.63,234.59 37.64,241.6 36.99,257.48 C36.39,272.32 37.99,291.19 37.99,291.19 C37.99,291.19 49.2,297.4 57.49,291.13 C57.49,291.13 65.49,252.94 67.83,234.36 C69.83,218.15 73.43,197.44 73.43,197.44 L81,234.25 C79.3661322,239.47269 78.1818187,244.825519 77.46,250.25 C76.4,261.18 82.52,282.64 82.52,282.64 C82.52,282.64 94.1,286.09 101.17,279.82 C101.17,279.82 103.81,244.93 104.8,231.77 C106.12,214.14 103.34,166.42 101.17,141.15 L46.41,140.16 Z" id="Path" fill="#455A64"></path>
                    <path d="M73.45,197.41 L76.56,169.67 C76.56,169.67 90.5,167.81 96.82,161.87 C93.1579063,167.59959 87.1370297,171.403406 80.39,172.25 L75.89,198.06 L81,234.25 L73.45,197.41 Z" id="Path" fill="#263238"></path>
                    <path d="M129.9,133.34 C130.475894,128.27788 130.729738,123.184296 130.66,118.09 C130.35,113.69 129.56,112.97 123.41,105.18 C115.11,94.65 108.02,85.18 100.52,75.77 C95.16,69.05 89.52,68.02 84.04,68.32 C80.2,68.53 87.7,87 91.47,97.93 L113,121.11 C113.667005,122.024828 113.973207,123.153506 113.86,124.28 L112.56,144 L119.01,152.64 C119.01,152.64 128.78,144.22 129.9,133.34 Z" id="Path" fill="#FFA8A7"></path>
                    <path d="M63.28,68.92 L63.28,68.92 C59.11,69.21 51.53,69.92 51.53,69.92 C47.16,72.36 46.05,74.37 45.24,80.17 C44.89,82.65 46.91,89.24 48.64,98.61 L51.92,115.98 L51.56,124.6 C49.86,129.86 46.01,136.39 42.61,146.02 C59.31,155.34 73.31,155.69 86.01,154.02 C95.69,152.77 100.82,150.43 102.53,148.11 C102.17,138.6 101.53,132.72 101.33,122.78 C101.26,118.61 101.51,114.39 101.68,109.59 C108.17,104.25 108.25,95.37 104.68,89.59 C96.45,76.26 88.44,67.87 83.14,68.3 L63.28,68.92 Z" id="Path" fill="#5BD989"></path>
                    <path d="M63.28,68.92 L63.28,68.92 C59.11,69.21 51.53,69.92 51.53,69.92 C47.16,72.36 46.05,74.37 45.24,80.17 C44.89,82.65 46.91,89.24 48.64,98.61 L51.92,115.98 L51.56,124.6 C49.86,129.86 46.01,136.39 42.61,146.02 C59.31,155.34 73.31,155.69 86.01,154.02 C95.69,152.77 100.82,150.43 102.53,148.11 C102.17,138.6 101.53,132.72 101.33,122.78 C101.26,118.61 101.51,114.39 101.68,109.59 C108.17,104.25 108.25,95.37 104.68,89.59 C96.45,76.26 88.44,67.87 83.14,68.3 L63.28,68.92 Z" id="Path" fill="#FFFFFF" opacity="0.6"></path>
                    <path d="M88.75,109.72 C88.75,109.72 81.13,115.64 72.42,112.55 C67.4454142,110.982504 63.6525822,106.927967 62.42,101.86 C62.42,101.86 61.5,111.81 72.47,115.2 C83.1,118.47 88.75,109.72 88.75,109.72 Z" id="Path" fill="#000000" opacity="0.1"></path>
                    <path d="M99.09,41.61 C98.76,56.05 94.09,59.61 91.73,60.61 C89.37,61.61 84.85,61.01 80.45,60.28 L80.45,69 C80.45,69 85.53,74.32 85.15,78.29 C84.77,82.26 77.15,82.71 71.47,78.82 C68.3359037,76.6671989 65.5011863,74.1082191 63.04,71.21 C62.5674259,70.6508605 62.3087261,69.9420941 62.31,69.21 L62.31,48.81 C62.31,48.81 59.9,51.36 55.64,48.44 C53.7815342,47.2539326 52.506639,45.3418614 52.1263173,43.1702246 C51.7459957,40.9985878 52.2952162,38.7670568 53.64,37.02 C55.5,34.83 60.22,34.68 62.48,38.02 C63.76,40.51 63.93,43.02 65.36,42.02 C69.16,39.28 67.12,33.02 71.71,30.02 L71.71,30.02 C73.2161889,29.2338521 74.7808409,28.5651974 76.39,28.02 C84.58,25.19 91.68,22.81 93.39,17.21 C96.61,19.05 99.49,24.58 99.09,41.61 Z" id="Path" fill="#FFA8A7"></path>
                    <circle id="Oval" fill="#B16668" cx="82.94" cy="52.61" r="1.9"></circle>
                    <path d="M81.6800016,39.42 C81.678635,40.5112434 80.8027876,41.3999629 79.7116802,41.4172475 C78.6205729,41.434532 77.717015,40.5740007 77.6810859,39.4833481 C77.6451568,38.3926955 78.4901207,37.4745631 79.58,37.42 C80.1275372,37.3925884 80.6623229,37.5911377 81.0593119,37.9692225 C81.4563009,38.3473073 81.6806857,38.8717775 81.6800016,39.42 L81.6800016,39.42 Z" id="Path" fill="#263238"></path>
                    <path d="M96.83,39.62 C96.8713208,40.1142389 96.7124619,40.6043721 96.3890745,40.980404 C96.065687,41.356436 95.6048556,41.5868728 95.11,41.62 C94.6100038,41.6661788 94.11426,41.4953599 93.7488379,41.1509831 C93.3834158,40.8066062 93.1835256,40.3218539 93.2,39.82 C93.1296847,39.1484457 93.4369416,38.4931566 93.9981745,38.1177274 C94.5594075,37.7422982 95.2823627,37.7084408 95.8762264,38.0297746 C96.4700901,38.3511083 96.8372448,38.9748134 96.83,39.65 L96.83,39.62 Z" id="Path" fill="#263238"></path>
                    <path d="M79.11,44.56 C75.5185279,44.56 72.6055169,41.6514679 72.6,38.06 C72.6,33.64 77.16,33.64 79.11,33.64 C81.06,33.64 85.61,33.64 85.61,38.06 C85.6044934,41.6475675 82.6975675,44.5544934 79.11,44.56 Z M79.11,34.66 C75.11,34.66 73.63,35.66 73.63,38.06 C73.63,41.0975661 76.0924339,43.56 79.13,43.56 C82.1675661,43.56 84.63,41.0975661 84.63,38.06 C84.59,35.61 83.05,34.66 79.11,34.66 Z" id="Shape" fill="#455A64"></path>
                    <path d="M95.62,44.56 C92.0285279,44.56 89.1155169,41.6514679 89.11,38.06 C89.11,33.64 93.67,33.64 95.62,33.64 C97.57,33.64 102.12,33.64 102.12,38.06 C102.114493,41.6475675 99.2075675,44.5544934 95.62,44.56 Z M95.62,34.66 C91.68,34.66 90.14,35.66 90.14,38.06 C90.14,41.0975661 92.6024339,43.56 95.64,43.56 C98.6775661,43.56 101.14,41.0975661 101.14,38.06 C101.1,35.61 99.56,34.66 95.62,34.66 Z" id="Shape" fill="#455A64"></path>
                    <polygon id="Path" fill="#F28F8F" points="86.62 35.96 86.94 48.11 93.33 46.13"></polygon>
                    <path d="M80.44,60.31 C75.8,59.7 66.25,56.96 64.76,53.18 C65.359713,55.0903512 66.528501,56.7720104 68.11,58 C70.96,60.45 80.44,63.2 80.44,63.2 L80.44,60.31 Z" id="Path" fill="#F28F8F"></path>
                    <path d="M80.67,30.06 L76.43,32.65 C75.7358497,31.4408943 76.1145393,29.8997156 77.29,29.15 C77.8552328,28.8069812 78.5362005,28.710165 79.1746397,28.8820525 C79.8130789,29.05394 80.3533902,29.4795621 80.67,30.06 L80.67,30.06 Z" id="Path" fill="#263238"></path>
                    <path d="M97.92,32.94 L93.2,31.29 C93.3846546,30.6577668 93.8220358,30.1297624 94.4088587,29.8306721 C94.9956815,29.5315817 95.6799218,29.4879209 96.3,29.71 C97.6148532,30.1824903 98.327613,31.6036102 97.92,32.94 L97.92,32.94 Z" id="Path" fill="#263238"></path>
                    <path d="M85.1,38.58 C84.962989,38.5800263 84.8317297,38.5249238 84.7357934,38.4271064 C84.6398572,38.329289 84.5873135,38.1969846 84.59,38.06 C84.59,37.23 86.23,36.69 87.71,36.69 C89.19,36.69 90.14,37.23 90.14,38.06 C90.0762271,38.28325 89.87218,38.4371714 89.64,38.4371714 C89.40782,38.4371714 89.2037729,38.28325 89.14,38.06 C89.14,37.96 88.63,37.71 87.74,37.71 C87.0234303,37.6947505 86.3105762,37.8169541 85.64,38.07 C85.6402435,38.2106224 85.5824132,38.3451051 85.4801788,38.4416599 C85.3779443,38.5382146 85.2403791,38.5882721 85.1,38.58 L85.1,38.58 Z" id="Path" fill="#455A64"></path>
                    <path d="M73.13,38.14 L73.07,38.14 L61.64,37.14 C61.105925,36.6106355 60.4696718,36.1955398 59.77,35.92 L73.19,37.16 C73.4698059,37.1964385 73.6694943,37.4493771 73.64,37.73 C73.5916399,37.9720899 73.3768265,38.144783 73.13,38.14 L73.13,38.14 Z" id="Path" fill="#455A64"></path>
                    <path d="M26.2,50.06 C29.94,45.06 32.49,41.29 35.9,37.06 C37.84,34.63 39.08,32.89 40.9,30.4 C42.18,28.68 42.9,27.23 44.36,26.7 C45.9373589,26.0536693 47.3589141,25.0786938 48.53,23.84 C49.2498488,23.0436156 49.9178863,22.2018884 50.53,21.32 C52.6733478,18.4350584 55.2192498,15.8723184 58.09,13.71 C61.09,11.45 64.44,9.71 67.53,7.56 C69.37,6.27 71.34,4.13 69.1,2.13 C68.4129594,1.55140764 67.5908398,1.1558271 66.71,0.98 C61.26,-0.2 56.52,1.67 51.19,3.03 C48.8747835,3.60785599 46.6105987,4.37373238 44.42,5.32 C43.3425059,5.74611586 42.332104,6.32541298 41.42,7.04 C40.1447651,8.32574474 39.099601,9.82076916 38.33,11.46 C36,15.62 31,19.34 27.5,22.63 C23.41,26.48 19.75,30.01 15.08,34.25 C10.88,38.08 6.77,41.6 2.92,45.78 C-0.27,49.23 0.92,51.93 1.34,52.87 C3.94,58.21 6.85,60.13 10.34,63.44 C16.34,69.17 37.09,85.66 43.96,91.11 C45.4360639,92.2693493 46.5952717,93.782855 47.33,95.51 L48.65,98.56 C56.49,100 61.72,88.23 55.23,74.06 C54.1552395,71.7686336 52.5134217,69.7895031 50.46,68.31 C42.26,62.34 26.2,50.06 26.2,50.06 Z" id="Path" fill="#FFA8A7"></path>
                    <path d="M26.2,50.06 C23.7045829,53.1297776 20.3791412,55.4173205 16.62,56.65 C16.62,56.65 21.62,57.93 28.47,51.78 L26.2,50.06 Z" id="Path" fill="#F28F8F"></path>
                    <path d="M127.86,122.91 L127.86,122.91 L126.58,121.81 L126.58,121.81 C126.192065,121.554436 125.705663,121.498741 125.27,121.66 L111.38,125.44 C109.964113,125.912061 108.824692,126.978442 108.26,128.36 L98.26,157.19 C98.0135781,157.670675 98.0848812,158.252984 98.44,158.66 L98.44,158.66 L99.76,159.8 L99.76,159.8 C100.150029,160.068849 100.647336,160.128676 101.09,159.96 L115,156.18 C116.415887,155.707939 117.555308,154.641558 118.12,153.26 C120.12,147.59 126.12,130.1 128.12,124.43 C128.36,123.72 128.24,123.18 127.86,122.91 Z" id="Path" fill="#455A64"></path>
                    <path d="M99.57,158.3 L109.57,129.47 C110.132534,128.089121 111.273332,127.025107 112.69,126.56 L126.57,122.78 C127.86,122.43 128.57,123.17 128.11,124.43 C126.11,130.1 120.11,147.59 118.11,153.26 C117.545308,154.641558 116.405887,155.707939 114.99,156.18 L101.11,160 C99.83,160.3 99.14,159.56 99.57,158.3 Z" id="Path" fill="#5BD989"></path>
                    <path d="M111.18,127.36 C110.457942,127.906884 109.898005,128.639641 109.56,129.48 L99.56,158.3 C99.3263005,158.767064 99.3807095,159.326699 99.7,159.74 L98.46,158.68 L98.46,158.68 C98.0961665,158.277635 98.0204267,157.691649 98.27,157.21 L108.27,128.38 C108.586251,127.596203 109.099474,126.907313 109.76,126.38 L111.18,127.36 Z" id="Path" fill="#37474F"></path>
                    <path d="M124.05,136.05 C123.05,138.98 119.58,140.94 113.84,142.3 C108.1,143.66 104.93,149.75 105.84,151.6 C106.75,153.45 116.03,155.18 119.74,154.65 C123.45,154.12 127.17,148.76 128.3,147.1 C129.43,145.44 130.73,133.86 129.54,132.27 C128.35,130.68 125.84,130.93 125.84,130.93 L124.05,136.05 Z" id="Path" fill="#F28F8F"></path>
                </g>
            </g>
        </g>
    </g>
</svg>