<?xml version="1.0" encoding="UTF-8"?>
<svg width="600px" height="800px" viewBox="0 0 600 800" version="1.1" xmlns="http://www.w3.org/2000/svg" xmlns:xlink="http://www.w3.org/1999/xlink">
    <!-- Generator: Sketch 63.1 (92452) - https://sketch.com -->
    <title>login</title>
    <desc>Created with Sketch.</desc>
    <defs>
        <polygon id="path-1" points="0 0.8954 9.3177 0.8954 9.3177 18.9996725 0 18.9996725"></polygon>
        <polygon id="path-3" points="0.767 0.4827 14.032 0.4827 14.032 21.4607 0.767 21.4607"></polygon>
    </defs>
    <g id="login" stroke="none" stroke-width="1" fill="none" fill-rule="evenodd" transform="translate(0.000000, 0.000000)">
        <g id="Login-amico">
            <rect id="Rectangle" fill="#FBFBFB" x="0" y="0" width="600" height="800"></rect>
            <g id="freepik--Floor--inject-83" transform="translate(64.000000, 355.000000)" fill="#F0F0F0" fill-rule="nonzero">
                <ellipse id="freepik--floor--inject-83" cx="236.05" cy="137.02" rx="235.61" ry="136.03"></ellipse>
            </g>
            <g id="freepik--Shadow--inject-83" transform="translate(78.000000, 374.000000)" fill="#E0E0E0" fill-rule="nonzero">
                <path d="M357.36,165.22 C341.91,156.3 341.91,141.84 357.36,132.92 C372.81,124 397.86,124 413.31,132.92 C428.76,141.84 428.76,156.3 413.31,165.22 C397.86,174.14 372.81,174.14 357.36,165.22 Z" id="freepik--shadow--inject-83"></path>
                <path d="M43.12,166.46 L2.48,143 C0.19,141.68 0.19,139.53 2.48,138.21 L238.87,1.73 C241.47561,0.409631208 244.55439,0.409631208 247.16,1.73 L287.81,25.19 C290.1,26.51 290.1,28.66 287.81,29.98 L51.42,166.46 C48.8109033,167.78052 45.7290967,167.78052 43.12,166.46 Z" id="freepik--shadow--inject-83"></path>
            </g>
            <g id="freepik--Device--inject-83" transform="translate(109.000000, 171.000000)" fill-rule="nonzero">
                <g id="freepik--device--inject-83">
                    <path d="M158.2,327.64 L193.14,307.44 C196.74,305.36 198.54,302.64 198.54,299.91 C198.54,297.18 198.54,295.05 198.54,295.05 L162.3,274.61 C160.246653,273.282155 158.952968,271.051664 158.82,268.61 L158.82,225.52 L97.82,260.78 L97.82,303.85 C97.9625151,306.288805 99.2538753,308.515288 101.3,309.85 L132.14,327.61 C139.32,331.8 151,331.8 158.2,327.64 Z" id="Path" fill="#5BD989"></path>
                    <g id="Group" opacity="0.6" transform="translate(97.000000, 225.000000)" fill="#000000">
                        <path d="M61.2,102.64 L96.14,82.44 C99.74,80.36 101.54,77.64 101.54,74.91 C101.54,72.18 101.54,70.05 101.54,70.05 L65.3,49.61 C63.246653,48.2821553 61.9529682,46.0516644 61.82,43.61 L61.82,0.52 L0.82,35.78 L0.82,78.85 C0.962515067,81.2888052 2.25387527,83.5152884 4.3,84.85 L35.14,102.61 C42.32,106.8 54,106.8 61.2,102.64 Z" id="Path"></path>
                    </g>
                    <path d="M112.45,311.48 L112.45,316.32 L101.27,309.87 C99.2240899,308.536478 97.9355035,306.308374 97.8,303.87 L97.8,260.78 L109.42,254.07 C109.66,257.02 109.92,260.07 110.17,263.07 L102,267.77 L102,301.42 C102.131359,303.862144 103.425437,306.093314 105.48,307.42 L112.45,311.48 Z" id="Path" fill="#000000" opacity="0.3"></path>
                    <path d="M102,301.43 C102.139354,303.869754 103.431482,306.097561 105.48,307.43 L132.1,322.77 C139.3,326.92 150.98,326.93 158.19,322.77 L193.19,302.57 C200.4,298.41 200.4,291.67 193.19,287.51 L166.55,272.17 C164.506489,270.834204 163.218671,268.607428 163.08,266.17 L163.08,232.51 L102.08,267.77 L102,301.43 Z" id="Path" fill="#5BD989"></path>
                    <path d="M102,301.43 C102.139354,303.869754 103.431482,306.097561 105.48,307.43 L132.1,322.77 C139.3,326.92 150.98,326.93 158.19,322.77 L193.19,302.57 C200.4,298.41 200.4,291.67 193.19,287.51 L166.55,272.17 C164.506489,270.834204 163.218671,268.607428 163.08,266.17 L163.08,232.51 L102.08,267.77 L102,301.43 Z" id="Path" fill="#000000" opacity="0.3"></path>
                    <path d="M173.6,276.28 L173.6,276.28 L166.51,272.19 C164.466489,270.854204 163.178671,268.627428 163.04,266.19 L163.04,232.51 L102.04,267.77 L102.04,301.43 C102.179354,303.869754 103.471482,306.097561 105.52,307.43 L112.52,311.43 L173.6,276.28 Z" id="Path" fill="#000000" opacity="0.5"></path>
                    <path d="M198.55,295.06 L198.55,299.92 C198.55,302.65 196.74,305.36 193.15,307.45 L158.15,327.64 C154.319703,329.68454 150.04178,330.746289 145.7,330.730185 L145.7,325.89 C150.04178,325.906289 154.319703,324.84454 158.15,322.8 L193.15,302.59 C196.74,300.52 198.55,297.79 198.55,295.06 Z" id="Path" fill="#5BD989"></path>
                    <path d="M198.55,295.06 L198.55,299.92 C198.55,302.65 196.74,305.36 193.15,307.45 L158.15,327.64 C154.319703,329.68454 150.04178,330.746289 145.7,330.730185 L145.7,325.89 C150.04178,325.906289 154.319703,324.84454 158.15,322.8 L193.15,302.59 C196.74,300.52 198.55,297.79 198.55,295.06 Z" id="Path" fill="#000000" opacity="0.5"></path>
                    <path d="M4,343.26 C6.67434407,344.551697 9.80330217,344.496022 12.43,343.11 L248.43,206.86 C250.996474,205.186018 252.611971,202.389537 252.78,199.33 L252.78,8.41 C252.688342,5.43318297 251.179541,2.67943454 248.72,1 C246.048598,-0.293299844 242.92034,-0.233855506 240.3,1.16 L4.3,137.45 C1.74220548,139.134624 0.144061925,141.940667 -7.10542736e-15,145 L-7.10542736e-15,335.89 C0.090456521,338.841632 1.57437825,341.575758 4,343.26 Z" id="Path" fill="#5BD989"></path>
                    <path d="M12.46,343.1 L248.46,206.85 C251.0301,205.179456 252.64676,202.380961 252.81,199.32 L252.81,8.41 C252.81,5.64 250.86,4.51 248.46,5.9 L12.46,142.15 C9.89232031,143.822839 8.276437,146.619989 8.11,149.68 L8.11,340.59 C8.11,343.36 10.06,344.49 12.46,343.1 Z" id="Path" fill="#5BD989"></path>
                    <path d="M12.46,343.1 L248.46,206.85 C251.0301,205.179456 252.64676,202.380961 252.81,199.32 L252.81,8.41 C252.81,5.64 250.86,4.51 248.46,5.9 L12.46,142.15 C9.89232031,143.822839 8.276437,146.619989 8.11,149.68 L8.11,340.59 C8.11,343.36 10.06,344.49 12.46,343.1 Z" id="Path" fill="#000000" opacity="0.5"></path>
                    <path d="M11.82,348.06 C9.31544762,349.153249 6.45773851,349.094779 4,347.9 C1.56881405,346.21161 0.0841840857,343.468756 0,340.51 L0,323.13 L8.15,327.85 L8.15,345.23 C8.1,347.76 9.71,348.91 11.82,348.06 Z" id="Path" fill="#5BD989"></path>
                    <path d="M11.82,348.06 C9.31544762,349.153249 6.45773851,349.094779 4,347.9 C1.56881405,346.21161 0.0841840857,343.468756 0,340.51 L0,323.13 L8.15,327.85 L8.15,345.23 C8.1,347.76 9.71,348.91 11.82,348.06 Z" id="Path" fill="#000000" opacity="0.5"></path>
                    <path d="M8.1,327.85 L8.1,345.23 C8.1,348 10.1,349.12 12.45,347.74 L248.45,211.49 C251.005521,209.824234 252.619545,207.045144 252.8,204 L252.8,186.54 L8.1,327.85 Z" id="Path" fill="#5BD989"></path>
                    <path d="M8.11,327.81 L8.11,345.23 C8.11,348 10.11,349.12 12.46,347.74 L248.46,211.49 C251.011712,209.822019 252.621814,207.043295 252.8,204 L252.8,186.54 L8.11,327.81 Z" id="Path" fill="#000000" opacity="0.3"></path>
                    <path d="M16.26,306 L16.26,152.39 C16.3544177,150.554374 17.3207131,148.874507 18.86,147.87 L242,19 C243.44,18.17 244.61,18.84 244.61,20.5 L244.61,174.19 C244.511721,176.027011 243.541884,177.706575 242,178.71 L18.87,307.55 C17.43,308.38 16.26,307.7 16.26,306 Z" id="Path" fill="#5BD989"></path>
                    <path d="M16.26,306 L16.26,152.39 C16.3544177,150.554374 17.3207131,148.874507 18.86,147.87 L242,19 C243.44,18.17 244.61,18.84 244.61,20.5 L244.61,174.19 C244.511721,176.027011 243.541884,177.706575 242,178.71 L18.87,307.55 C17.43,308.38 16.26,307.7 16.26,306 Z" id="Path" fill="#263238"></path>
                    <path d="M130.45,262.73 C128.040781,264.296922 126.524766,266.920221 126.37,269.79 C126.37,272.39 128.2,273.45 130.45,272.15 C132.861975,270.581034 134.378361,267.953375 134.53,265.08 C134.53,262.48 132.7,261.43 130.45,262.73 Z" id="Path" fill="#5BD989"></path>
                    <path d="M9.39,145.38 C8.6149918,146.682703 8.17200131,148.155904 8.1,149.67 L8.1,327.85 L0,323.13 L0,145 C0.0524685789,143.480879 0.493136398,142.00051 1.28,140.7 L9.39,145.38 Z" id="Path" fill="#000000" opacity="0.7"></path>
                    <path d="M252.76,7.69 C252.45,5.45 250.64,4.69 248.45,5.9 L12.45,142.15 C11.1704335,142.950275 10.1142909,144.06146 9.38,145.38 L1.22,140.67 C1.95918836,139.351811 3.01842349,138.240989 4.3,137.44 L240.3,1.2 C242.923856,-0.19400784 246.055136,-0.253439011 248.73,1.04 C250.973106,2.56833589 252.443253,4.99426154 252.76,7.69 Z" id="Path" fill="#000000" opacity="0.3"></path>
                </g>
            </g>
            <g id="freepik--Window--inject-83" transform="translate(146.000000, 201.000000)">
                <g id="freepik--window--inject-83">
                    <g fill-rule="nonzero">
                        <g>
                            <path d="M228.49,1.19 C227.775549,0.831530742 226.92154,0.89692779 226.27,1.36 L3.59,130 C1.80798054,131.178835 0.693910496,133.135885 0.59,135.27 L0.59,287.94 C0.526545684,288.988231 1.01582197,289.993333 1.88,290.59 C2.37,290.86 4.99,292.38 5.77,292.8 C6.33184282,293.086163 7.00418693,293.047961 7.53,292.7 L230.16,164.06 C231.942019,162.881165 233.05609,160.924115 233.16,158.79 L233.16,5.33 C233.25114,4.53904301 232.887137,3.7645669 232.22,3.33 C231.72,3 229.05,1.52 228.49,1.19 Z" id="Path" fill="#5BD989"></path>
                            <path d="M7.48,132.16 L230.17,3.57 C231.85,2.57 233.17,3.39 233.17,5.33 L233.17,158.79 C233.06609,160.924115 231.952019,162.881165 230.17,164.06 L7.48,292.7 C5.8,293.7 4.48,292.09 4.48,290.15 L4.48,137.43 C4.58708319,135.296809 5.70039493,133.341091 7.48,132.16 Z" id="Path" fill="#FAFAFA"></path>
                            <path d="M231.53,4.15 L231.53,4.15 C232.12,4.15 232.21,4.89 232.21,5.33 L232.21,158.79 C232.100731,160.576518 231.155778,162.207027 229.66,163.19 L7,291.83 C6.85055673,291.92691 6.67794164,291.982147 6.5,291.99 C5.94,291.99 5.5,291.13 5.5,290.15 L5.5,137.43 C5.59782093,135.644539 6.52213505,134.006655 8,133 L230.67,4.43 C230.927581,4.26376534 231.223923,4.16728217 231.53,4.15 M231.53,3.15 C231.048057,3.17051333 230.579586,3.31518791 230.17,3.57 L7.48,132.16 C5.70039493,133.341091 4.58708319,135.296809 4.48,137.43 L4.48,290.15 C4.48,291.69 5.34,292.99 6.48,292.99 C6.83309086,292.983317 7.17811649,292.88326 7.48,292.7 L230.16,164.06 C231.942019,162.881165 233.05609,160.924115 233.16,158.79 L233.16,5.33 C233.16,3.95 232.48,3.15 231.48,3.15 L231.53,3.15 Z" id="Shape" fill="#E0E0E0"></path>
                            <path d="M1.82,290.59 C2.15,290.76 4.52,292.11 5.56,292.71 C4.8027502,292.081863 4.38738331,291.132453 4.44,290.15 L4.44,147.4 L0.54,145.12 L0.54,287.94 C0.474329963,288.986307 0.959613723,289.990996 1.82,290.59 L1.82,290.59 Z" id="Path" fill="#F0F0F0"></path>
                            <path d="M233.21,5.3 C233.21,3.38 231.84,2.6 230.21,3.57 L7.48,132.16 C5.70039493,133.341091 4.58708319,135.296809 4.48,137.43 L4.48,147.43 L233.21,15.3 L233.21,5.3 Z" id="Path" fill="#5BD989"></path>
                            <g id="Group" opacity="0.4" transform="translate(1.000000, 0.000000)" fill="#FFFFFF">
                                <path d="M229.17,3.57 L6.48,132.15 C5.58625314,132.713609 4.84998369,133.494605 4.34,134.42 L0.47,132.17 C0.979116263,131.277008 1.70911691,130.529791 2.59,130 L225.27,1.36 C225.919629,0.893685841 226.773732,0.824434291 227.49,1.18 C228.03,1.52 230.56,2.95 231.21,3.3 C230.527222,3.04683209 229.763407,3.14792522 229.17,3.57 Z" id="Path"></path>
                            </g>
                            <path d="M0.54,145.13 L0.54,135.22 C0.581081441,134.140025 0.901509644,133.089158 1.47,132.17 L5.35,134.41 C4.78963847,135.31326 4.47587478,136.347646 4.44,137.41 L4.44,147.41 L0.54,145.13 Z" id="Path" fill="#000000" opacity="0.15"></path>
                        </g>
                    </g>
                    <path d="M186.25,120.42 L52.88,197.42 C51.5645083,198.273589 50.7358738,199.704191 50.65,201.27 L50.65,239.51 C50.7358738,241.075809 51.5645083,242.506411 52.88,243.36 L56.77,245.6 C58.1720641,246.309298 59.8279359,246.309298 61.23,245.6 L194.58,168.6 C195.895826,167.742073 196.724056,166.308455 196.81,164.74 L196.81,126.49 C196.724126,124.924191 195.895492,123.493589 194.58,122.64 L190.68,120.4 C189.284067,119.702272 187.639577,119.709697 186.25,120.42 L186.25,120.42 Z" id="Path" fill="#5BD989" fill-rule="nonzero"></path>
                    <path d="M196.81,126.15 C196.65,125 195.72,124.58 194.6,125.23 L61.23,202.23 C60.5722786,202.638693 60.0314339,203.210541 59.66,203.89 L51.31,199.07 C51.6842539,198.401171 52.2207073,197.837207 52.87,197.43 L186.25,120.43 C187.648189,119.719234 189.301811,119.719234 190.7,120.43 L194.6,122.67 C195.802843,123.458205 196.608067,124.72616 196.81,126.15 Z" id="Path" fill="#FFFFFF" fill-rule="nonzero" opacity="0.5"></path>
                    <path d="M60.85,245.79 C59.5292941,246.310484 58.0496015,246.245043 56.78,245.61 L52.88,243.37 C51.5669169,242.514124 50.7390564,241.084858 50.65,239.52 L50.65,201.28 C50.6800538,200.499454 50.9070983,199.739198 51.31,199.07 L59.66,203.89 C59.2542138,204.550596 59.026802,205.30519 59,206.08 L59,244.33 C59,245.6 59.8,246.19 60.85,245.79 Z" id="Path" fill="#263238" fill-rule="nonzero"></path>
                    <path d="M61.23,202.23 L194.6,125.23 C195.83,124.52 196.83,125.09 196.83,126.51 L196.83,164.76 C196.744056,166.328455 195.915826,167.762073 194.6,168.62 L61.25,245.62 C60.02,246.33 59.02,245.75 59.02,244.33 L59.02,206.09 C59.1014101,204.525246 59.9217904,203.092364 61.23,202.23 Z" id="Path" fill="#5BD989" fill-rule="nonzero"></path>
                    <path d="M150.89,140.84 L52.89,197.43 C52.2407073,197.837207 51.7042539,198.401171 51.33,199.07 L59.68,203.89 C60.0514339,203.210541 60.5922786,202.638693 61.25,202.23 L159.25,145.65 L150.89,140.84 Z" id="Path" fill="#455A64" fill-rule="nonzero"></path>
                    <path d="M159.23,145.65 L61.23,202.23 C59.9141736,203.087927 59.085944,204.521545 59,206.09 L59,244.32 C59,245.74 60,246.32 61.23,245.61 L159.23,189.03 L159.23,145.65 Z" id="Path" fill="#37474F" fill-rule="nonzero"></path>
                    <path d="M83.83,197.57 L134.4,168.38 C136.49,167.17 138.19,168.03 138.19,170.3 C138.000363,172.885791 136.588769,175.226066 134.39,176.6 L83.83,205.8 C81.74,207.01 80.03,206.15 80.03,203.88 C80.2212892,201.292097 81.6320668,198.949464 83.83,197.57 Z" id="Path" fill="#5BD989" fill-rule="nonzero"></path>
                    <path d="M94.19,207.24 C94.2089833,207.218475 94.2362999,207.206144 94.265,207.206144 C94.2937001,207.206144 94.3210167,207.218475 94.34,207.24 C94.3847522,207.307981 94.4058409,207.388821 94.4,207.47 L94.4,213.16 C94.4006676,213.709679 94.3538266,214.258387 94.26,214.8 C94.1773837,215.294908 94.0364003,215.778279 93.84,216.24 C93.6607715,216.663012 93.4253164,217.059922 93.14,217.42 C92.8586958,217.753952 92.5200542,218.035024 92.14,218.25 C91.842382,218.443934 91.4952225,218.548081 91.14,218.55 C90.865699,218.528227 90.6124904,218.394388 90.44,218.18 C90.2205504,217.885902 90.0763612,217.542595 90.02,217.18 C89.9243174,216.696045 89.8807356,216.203236 89.89,215.71 L89.89,210.01 C89.8896893,209.91022 89.9101214,209.811465 89.95,209.72 C89.9745033,209.637555 90.027714,209.566608 90.1,209.52 L90.73,209.15 C90.7722473,209.110623 90.8377527,209.110623 90.88,209.15 C90.9262183,209.21732 90.947443,209.298681 90.94,209.38 L90.94,215 C90.9323491,215.30919 90.9625739,215.618154 91.03,215.92 C91.0575925,216.113025 91.1410143,216.293772 91.27,216.44 C91.3612125,216.548681 91.4983395,216.60798 91.64,216.6 C91.8110701,216.588695 91.9763608,216.533598 92.12,216.44 C92.2978793,216.333698 92.4595359,216.202352 92.6,216.05 C92.7560845,215.870222 92.8841892,215.667951 92.98,215.45 C93.0928093,215.193454 93.1766607,214.92513 93.23,214.65 C93.2883445,214.319961 93.315132,213.985117 93.31,213.65 L93.31,208.02 C93.3131216,207.919545 93.3369525,207.820817 93.38,207.73 C93.4045033,207.647555 93.457714,207.576608 93.53,207.53 L94.19,207.24 Z" id="Path" fill="#FAFAFA" fill-rule="nonzero"></path>
                    <path d="M98.11,212.62 C98.1152072,212.546533 98.0977558,212.473237 98.06,212.41 C98.011806,212.357176 97.9409457,212.331069 97.87,212.34 C97.7472341,212.323269 97.6227659,212.323269 97.5,212.34 L96.92,212.45 C96.7328548,212.496579 96.5371452,212.496579 96.35,212.45 C96.2031993,212.402759 96.0764558,212.307701 95.99,212.18 C95.8921697,212.01767 95.8275848,211.837512 95.8,211.65 C95.7024404,211.114406 95.7024404,210.565594 95.8,210.03 C95.8750369,209.722895 95.9822985,209.424574 96.12,209.14 C96.2569624,208.85588 96.4246285,208.587614 96.62,208.34 C96.8092561,208.103958 97.0396277,207.904077 97.3,207.75 C97.510294,207.621796 97.7455383,207.539972 97.99,207.51 C98.1673663,207.491605 98.3459848,207.530131 98.5,207.62 C98.646678,207.70946 98.7619803,207.842232 98.83,208 C98.9106422,208.186551 98.954772,208.386832 98.96,208.59 C98.9703891,208.690541 98.9494317,208.791835 98.9,208.88 C98.8754967,208.962445 98.822286,209.033392 98.75,209.08 L98.15,209.43 C98.0943078,209.462154 98.0256922,209.462154 97.97,209.43 L97.84,209.33 C97.7883232,209.289238 97.7256381,209.264861 97.66,209.26 C97.5314252,209.274328 97.4080649,209.318875 97.3,209.39 C97.1429954,209.48464 97.00415,209.606553 96.89,209.75 C96.7689967,209.907422 96.705481,210.101498 96.71,210.3 C96.6958867,210.376017 96.6958867,210.453983 96.71,210.53 C96.748774,210.587171 96.8111914,210.623887 96.88,210.63 C96.9892409,210.648275 97.1007591,210.648275 97.21,210.63 L97.77,210.53 C98.24,210.44 98.56,210.53 98.77,210.79 C98.9906635,211.160499 99.091916,211.589949 99.06,212.02 C99.0574225,212.317231 99.0170998,212.612931 98.94,212.9 C98.8609332,213.21185 98.7468761,213.513766 98.6,213.8 C98.4531087,214.09609 98.2682149,214.371749 98.05,214.62 C97.8428304,214.863068 97.5960105,215.069315 97.32,215.23 C97.1001825,215.370558 96.849835,215.456293 96.59,215.48 C96.4019985,215.486619 96.2166485,215.434162 96.06,215.33 C95.9056053,215.224546 95.7870059,215.074552 95.72,214.9 C95.6391994,214.71037 95.5983497,214.506121 95.6,214.3 C95.5906616,214.196307 95.611498,214.092125 95.66,214 C95.6845033,213.917555 95.737714,213.846608 95.81,213.8 L96.41,213.45 C96.49,213.45 96.55,213.4 96.59,213.45 L96.72,213.59 C96.7737041,213.650217 96.8494006,213.686263 96.93,213.69 C97.0707587,213.690734 97.2078333,213.645042 97.32,213.56 C97.5005374,213.457543 97.6627555,213.325741 97.8,213.17 C97.8680574,213.087696 97.9251969,212.996945 97.97,212.9 C98.0406217,212.8207 98.0889328,212.724078 98.11,212.62 Z" id="Path" fill="#FAFAFA" fill-rule="nonzero"></path>
                    <path d="M100.15,209.91 C100.148168,209.390536 100.191667,208.871902 100.28,208.36 C100.36349,207.878358 100.494118,207.406087 100.67,206.95 C100.817046,206.541285 101.018888,206.15442 101.27,205.8 C101.479604,205.495357 101.752482,205.239535 102.07,205.05 C102.301826,204.894208 102.584612,204.833356 102.86,204.88 C103.104339,204.936589 103.318492,205.082927 103.46,205.29 C103.648154,205.561304 103.780705,205.86719 103.85,206.19 C103.945904,206.609835 103.992883,207.03936 103.99,207.47 L103.99,208.09 C103.993173,208.194388 103.969045,208.297796 103.92,208.39 C103.895497,208.472445 103.842286,208.543392 103.77,208.59 L101.17,210.1 C101.163807,210.276042 101.187475,210.451862 101.24,210.62 C101.278701,210.733234 101.34791,210.833586 101.44,210.91 C101.52206,210.975116 101.625492,211.007216 101.73,211 C101.850833,210.98572 101.966973,210.94473 102.07,210.88 C102.221267,210.797917 102.356714,210.68956 102.47,210.56 C102.572319,210.444785 102.659677,210.317108 102.73,210.18 C102.772739,210.101011 102.819466,210.024245 102.87,209.95 C102.912935,209.899129 102.963544,209.855269 103.02,209.82 L103.64,209.46 C103.68384,209.4249 103.74616,209.4249 103.79,209.46 C103.843164,209.523952 103.865149,209.608227 103.85,209.69 C103.839067,209.884977 103.798607,210.077165 103.73,210.26 C103.643725,210.537373 103.52982,210.805384 103.39,211.06 C103.233535,211.35278 103.04577,211.627722 102.83,211.88 C102.614818,212.137662 102.357916,212.357381 102.07,212.53 C101.833688,212.684776 101.55067,212.751993 101.27,212.72 C101.024084,212.660912 100.809692,212.510837 100.67,212.3 C100.473147,211.99676 100.340425,211.656447 100.28,211.3 C100.189093,210.842354 100.145531,210.376566 100.15,209.91 Z M102.07,206.72 C101.916256,206.802809 101.782998,206.918982 101.68,207.06 C101.569036,207.200024 101.47816,207.354851 101.41,207.52 C101.339922,207.685232 101.283077,207.855768 101.24,208.03 C101.204815,208.188046 101.181417,208.348488 101.17,208.51 L102.93,207.51 C102.919802,207.372077 102.899751,207.235061 102.87,207.1 C102.854671,206.979191 102.806217,206.864978 102.73,206.77 C102.669509,206.682667 102.575222,206.624645 102.47,206.61 C102.327829,206.59794 102.186013,206.636939 102.07,206.72 Z" id="Shape" fill="#FAFAFA" fill-rule="nonzero"></path>
                    <path d="M107.13,203.93 C106.826969,204.102957 106.588326,204.369675 106.45,204.69 C106.294371,205.112038 106.223024,205.560502 106.24,206.01 L106.24,209.62 C106.241415,209.723115 106.220966,209.825361 106.18,209.92 C106.155497,210.002445 106.102286,210.073392 106.03,210.12 L105.44,210.46 C105.421017,210.481525 105.3937,210.493856 105.365,210.493856 C105.3363,210.493856 105.308983,210.481525 105.29,210.46 C105.245248,210.392019 105.224159,210.311179 105.23,210.23 L105.23,203.76 C105.230514,203.657071 105.250887,203.555209 105.29,203.46 C105.31796,203.379343 105.370398,203.309425 105.44,203.26 L106.03,202.92 C106.072247,202.880623 106.137753,202.880623 106.18,202.92 C106.226337,202.983477 106.247694,203.061787 106.24,203.14 L106.24,203.46 C106.359172,203.191714 106.506676,202.936934 106.68,202.7 C106.838184,202.480991 107.043142,202.299945 107.28,202.17 L107.64,201.96 C107.678884,201.921886 107.741116,201.921886 107.78,201.96 C107.828285,202.026737 107.85292,202.107679 107.85,202.19 L107.85,203.1 C107.848272,203.203841 107.824408,203.306118 107.78,203.4 C107.754725,203.479336 107.705893,203.549096 107.64,203.6 L107.13,203.93 Z" id="Path" fill="#FAFAFA" fill-rule="nonzero"></path>
                    <path d="M114.59,203.45 C114.608983,203.428475 114.6363,203.416144 114.665,203.416144 C114.6937,203.416144 114.721017,203.428475 114.74,203.45 C114.784752,203.517981 114.805841,203.598821 114.8,203.68 L114.8,204.68 C114.799486,204.782929 114.779113,204.884791 114.74,204.98 C114.705643,205.054252 114.654251,205.119349 114.59,205.17 L111.17,207.17 C111.127753,207.209377 111.062247,207.209377 111.02,207.17 C110.975271,207.10576 110.954078,207.028054 110.96,206.95 L110.96,197.95 C110.960514,197.847071 110.980887,197.745209 111.02,197.65 C111.047951,197.572008 111.100625,197.505288 111.17,197.46 L111.8,197.09 C111.842247,197.050623 111.907753,197.050623 111.95,197.09 C111.994729,197.15424 112.015922,197.231946 112.01,197.31 L112.01,204.92 L114.59,203.45 Z" id="Path" fill="#FAFAFA" fill-rule="nonzero"></path>
                    <path d="M117.66,196.05 C117.885188,195.894195 118.156891,195.820095 118.43,195.84 C118.664176,195.858458 118.882422,195.965792 119.04,196.14 C119.226393,196.354067 119.363005,196.606799 119.44,196.88 C119.546837,197.234031 119.607341,197.600416 119.62,197.97 C119.62,198.05 119.62,198.16 119.62,198.29 L119.62,199.06 C119.62,199.18 119.62,199.29 119.62,199.38 C119.600223,199.81466 119.539962,200.246529 119.44,200.67 C119.347525,201.082479 119.213507,201.484531 119.04,201.87 C118.881514,202.228701 118.676412,202.564934 118.43,202.87 C118.21909,203.146451 117.95784,203.380558 117.66,203.56 C117.428612,203.710415 117.15563,203.78391 116.88,203.77 C116.649094,203.750055 116.4345,203.642758 116.28,203.47 C116.088232,203.263574 115.950778,203.012721 115.88,202.74 C115.773163,202.385969 115.712659,202.019584 115.7,201.65 C115.7,201.57 115.7,201.47 115.7,201.34 L115.7,200.57 C115.7,200.44 115.7,200.33 115.7,200.25 C115.71166,199.811962 115.768631,199.376307 115.87,198.95 C115.967337,198.534392 116.104643,198.129172 116.28,197.74 C116.438877,197.383657 116.640345,197.047877 116.88,196.74 C117.091998,196.460854 117.357077,196.226361 117.66,196.05 L117.66,196.05 Z M118.6,198.63 C118.599541,198.40874 118.562369,198.18909 118.49,197.98 C118.452825,197.852527 118.375708,197.740356 118.27,197.66 C118.184784,197.602807 118.081923,197.577978 117.98,197.59 C117.865717,197.611511 117.756906,197.655716 117.66,197.72 C117.54247,197.784387 117.434719,197.8652 117.34,197.96 C117.225309,198.079288 117.127713,198.213903 117.05,198.36 C116.949518,198.541915 116.875442,198.737207 116.83,198.94 C116.764387,199.195409 116.724191,199.45668 116.71,199.72 C116.71,199.8 116.71,199.89 116.71,200 L116.71,200.71 C116.71,200.82 116.71,200.91 116.71,200.97 C116.71931,201.191223 116.759706,201.410035 116.83,201.62 C116.866516,201.747784 116.943766,201.860147 117.05,201.94 C117.134099,201.9995 117.239196,202.021244 117.34,202 C117.453352,201.980805 117.561977,201.940071 117.66,201.88 C117.775897,201.81311 117.883334,201.732532 117.98,201.64 C118.09158,201.518142 118.188877,201.383939 118.27,201.24 C118.366216,201.056139 118.440075,200.86142 118.49,200.66 C118.555327,200.404854 118.592218,200.143262 118.6,199.88 C118.606,199.786763 118.606,199.693237 118.6,199.6 L118.6,198.9 C118.605792,198.810093 118.605792,198.719907 118.6,198.63 Z" id="Shape" fill="#FAFAFA" fill-rule="nonzero"></path>
                    <path d="M122.68,201.9 C122.807929,201.821884 122.922683,201.724006 123.02,201.61 C123.140414,201.468897 123.244414,201.314575 123.33,201.15 C123.42937,200.948998 123.506494,200.737746 123.56,200.52 C123.62148,200.274791 123.65172,200.022793 123.65,199.77 L123.65,199.26 C123.65,199.36 123.55,199.48 123.48,199.62 C123.411436,199.766232 123.331175,199.906689 123.24,200.04 C123.135548,200.180635 123.02197,200.314256 122.9,200.44 C122.774567,200.571544 122.629514,200.682864 122.47,200.77 C122.262395,200.911696 122.005854,200.962282 121.76,200.91 C121.537748,200.840386 121.346764,200.69538 121.22,200.5 C121.056991,200.241641 120.938668,199.957668 120.87,199.66 C120.784738,199.282357 120.737833,198.897069 120.73,198.51 C120.73,198.38 120.73,198.22 120.73,198.03 C120.73,197.84 120.73,197.68 120.73,197.54 C120.742503,197.100355 120.789312,196.662358 120.87,196.23 C120.952135,195.804427 121.069198,195.386346 121.22,194.98 C121.361409,194.627227 121.542579,194.291727 121.76,193.98 C121.944401,193.704399 122.1867,193.472339 122.47,193.3 C122.603002,193.220057 122.748288,193.162619 122.9,193.13 C123.01237,193.109107 123.12763,193.109107 123.24,193.13 C123.328664,193.154967 123.41065,193.199377 123.48,193.26 C123.543936,193.308899 123.601101,193.366064 123.65,193.43 L123.65,193.11 C123.650514,193.007071 123.670887,192.905209 123.71,192.81 C123.737951,192.732008 123.790625,192.665288 123.86,192.62 L124.45,192.27 C124.492247,192.230623 124.557753,192.230623 124.6,192.27 C124.648285,192.336737 124.67292,192.417679 124.67,192.5 L124.67,199 C124.696937,199.973556 124.516264,200.941689 124.14,201.84 C123.844798,202.546461 123.333774,203.141489 122.68,203.54 C122.45697,203.678489 122.202239,203.757662 121.94,203.77 C121.732524,203.782532 121.526298,203.730102 121.35,203.62 C121.180965,203.493481 121.043963,203.329078 120.95,203.14 C120.852491,202.911995 120.798236,202.667844 120.79,202.42 C120.780662,202.316307 120.801498,202.212125 120.85,202.12 C120.874503,202.037555 120.927714,201.966608 121,201.92 L121.53,201.62 C121.554584,201.593682 121.588985,201.578741 121.625,201.578741 C121.661015,201.578741 121.695416,201.593682 121.72,201.62 C121.76929,201.671853 121.812872,201.728846 121.85,201.79 C121.910865,201.89722 122.011424,201.97623 122.13,202.01 C122.25,202.1 122.43,202 122.68,201.9 Z M121.74,197.05 C121.74,197.316667 121.74,197.576667 121.74,197.83 C121.711446,198.229368 121.824769,198.625999 122.06,198.95 C122.243871,199.108561 122.516129,199.108561 122.7,198.95 C122.990219,198.761331 123.216758,198.489484 123.35,198.17 C123.532109,197.752777 123.633888,197.304949 123.65,196.85 C123.65,196.7 123.65,196.52 123.65,196.31 C123.65,196.1 123.65,195.92 123.65,195.79 C123.670339,195.431803 123.564153,195.077849 123.35,194.79 C123.166296,194.62098 122.883704,194.62098 122.7,194.79 C122.415433,194.977972 122.192772,195.245861 122.06,195.56 C121.8546,196.030216 121.745779,196.536912 121.74,197.05 L121.74,197.05 Z" id="Shape" fill="#FAFAFA" fill-rule="nonzero"></path>
                    <path d="M127,188.17 C127.040644,188.13647 127.099356,188.13647 127.14,188.17 C127.192341,188.234654 127.217448,188.317149 127.21,188.4 L127.21,189.49 C127.210658,189.594122 127.186671,189.696922 127.14,189.79 C127.111967,189.865151 127.063474,189.930964 127,189.98 L126.33,190.37 C126.311017,190.391525 126.2837,190.403856 126.255,190.403856 C126.2263,190.403856 126.198983,190.391525 126.18,190.37 C126.127224,190.309515 126.101879,190.229861 126.11,190.15 L126.11,189.06 C126.109342,188.955878 126.133329,188.853078 126.18,188.76 C126.207951,188.682008 126.260625,188.615288 126.33,188.57 L127,188.17 Z M127.17,197.56 C127.170311,197.65978 127.149879,197.758535 127.11,197.85 C127.078134,197.928515 127.026452,197.997424 126.96,198.05 L126.36,198.39 C126.342913,198.411144 126.317185,198.423431 126.29,198.423431 C126.262815,198.423431 126.237087,198.411144 126.22,198.39 C126.167659,198.325346 126.142552,198.242851 126.15,198.16 L126.15,191.69 C126.149342,191.585878 126.173329,191.483078 126.22,191.39 C126.248236,191.312166 126.296531,191.243171 126.36,191.19 L126.96,190.85 C127.002247,190.810623 127.067753,190.810623 127.11,190.85 C127.154729,190.91424 127.175922,190.991946 127.17,191.07 L127.17,197.56 Z" id="Shape" fill="#FAFAFA" fill-rule="nonzero"></path>
                    <path d="M132.43,194.51 C132.429486,194.612929 132.409113,194.714791 132.37,194.81 C132.342049,194.887992 132.289375,194.954712 132.22,195 L131.62,195.35 C131.581116,195.388114 131.518884,195.388114 131.48,195.35 C131.427659,195.285346 131.402552,195.202851 131.41,195.12 L131.41,191.6 C131.440737,191.184522 131.365019,190.768068 131.19,190.39 C131.05,190.14 130.83,190.1 130.52,190.28 C130.210816,190.487764 129.981574,190.794596 129.87,191.15 C129.70306,191.621788 129.621782,192.119615 129.63,192.62 L129.63,196.15 C129.629486,196.252929 129.609113,196.354791 129.57,196.45 C129.545497,196.532445 129.492286,196.603392 129.42,196.65 L128.83,196.99 C128.811017,197.011525 128.7837,197.023856 128.755,197.023856 C128.7263,197.023856 128.698983,197.011525 128.68,196.99 C128.633663,196.926523 128.612306,196.848213 128.62,196.77 L128.62,190.3 C128.618585,190.196885 128.639034,190.094639 128.68,190 C128.704503,189.917555 128.757714,189.846608 128.83,189.8 L129.42,189.46 C129.438983,189.438475 129.4663,189.426144 129.495,189.426144 C129.5237,189.426144 129.551017,189.438475 129.57,189.46 C129.614752,189.527981 129.635841,189.608821 129.63,189.69 L129.63,190 C129.761585,189.695207 129.922333,189.403851 130.11,189.13 C130.274631,188.877498 130.497564,188.668284 130.76,188.52 C130.98757,188.3537 131.270713,188.282018 131.55,188.32 C131.773832,188.376336 131.962999,188.525487 132.07,188.73 C132.215169,189.000685 132.310038,189.295456 132.35,189.6 C132.403393,189.997769 132.430119,190.398664 132.43,190.8 L132.43,194.51 Z" id="Path" fill="#FAFAFA" fill-rule="nonzero"></path>
                    <path d="M182.87,165.4 L173.16,171 L174.67,157.38 C173.5,156.76 172.76,155.25 172.76,153.08 C172.76,149.21 175.12,144.72 178.02,143.08 C180.92,141.44 183.27,143.18 183.27,147.08 C183.209936,149.374597 182.555252,151.614304 181.37,153.58 L182.87,165.4 Z" id="Path" fill="#455A64" fill-rule="nonzero"></path>
                    <polygon id="Path" fill="#37474F" fill-rule="nonzero" points="182.88 165.4 174.33 160.47 173.16 171.01"></polygon>
                    <path d="M178,143.05 C175.88531,144.478646 174.308517,146.572824 173.52,149 L181.35,153.52 L181.35,153.52 C182.535252,151.554304 183.189936,149.314597 183.25,147.02 C183.27,143.15 180.92,141.38 178,143.05 Z" id="Path" fill="#37474F" fill-rule="nonzero"></path>
                    <g id="logo" transform="translate(68.000000, 94.000000)">
                        <g id="Group-3" transform="translate(0.000000, 47.517600)">
                            <mask id="mask-2" fill="white">
                                <use xlink:href="#path-1"></use>
                            </mask>
                            <g id="Clip-2"></g>
                            <path d="M1.8427,9.8394 L0.1317,10.8274 L-0.0003,10.3774 L4.9217,1.2444 L5.5277,0.8954 L5.5277,4.8694 L8.7127,3.0304 C8.7647,3.2634 8.7997,3.4804 8.8177,3.6804 C8.8347,3.8814 8.8437,4.0954 8.8437,4.3234 C8.8437,4.5694 8.8347,4.8114 8.8177,5.0484 C8.7997,5.2874 8.7647,5.5624 8.7127,5.8734 L5.5277,7.7124 L5.5277,13.0544 C5.5277,13.5994 5.5717,14.0124 5.6587,14.2954 C5.7467,14.5774 5.8737,14.7674 6.0407,14.8644 C6.2067,14.9614 6.4137,14.9744 6.6587,14.9014 C6.9047,14.8304 7.1947,14.6984 7.5277,14.5064 C7.7907,14.3534 8.0497,14.1824 8.3037,13.9914 C8.5577,13.8014 8.7817,13.6324 8.9757,13.4854 C9.0977,13.7484 9.1857,14.0444 9.2387,14.3734 C9.2917,14.7024 9.3177,15.0084 9.3177,15.2884 C9.3177,15.4824 9.3127,15.6464 9.3047,15.7834 C9.2957,15.9204 9.2817,16.0554 9.2647,16.1874 C8.4577,16.8464 7.6237,17.4244 6.7647,17.9214 C5.1677,18.8424 3.9477,19.1734 3.1057,18.9144 C2.2637,18.6554 1.8427,17.6824 1.8427,15.9984 L1.8427,9.8394 Z" id="Fill-1" fill="#333333" mask="url(#mask-2)"></path>
                        </g>
                        <path d="M18.3457,52.356 C18.1347,52.442 17.9067,52.543 17.6607,52.659 C17.4147,52.775 17.1967,52.888 17.0027,53 C16.1427,53.496 15.4637,54.043 14.9637,54.638 C14.4637,55.234 14.2137,55.874 14.2137,56.558 C14.2137,57.015 14.3087,57.31 14.5027,57.444 C14.6957,57.578 14.9287,57.624 15.1997,57.581 C15.4717,57.538 15.7617,57.44 16.0687,57.29 C16.3757,57.139 16.6427,56.998 16.8717,56.866 C17.1347,56.713 17.3977,56.54 17.6607,56.344 C17.9247,56.148 18.1527,55.977 18.3457,55.831 L18.3457,52.356 Z M18.3457,49.645 C18.3457,49.224 18.2757,48.922 18.1347,48.74 C17.9937,48.558 17.8017,48.463 17.5557,48.456 C17.3097,48.449 17.0077,48.523 16.6477,48.677 C16.2877,48.833 15.8887,49.037 15.4497,49.29 C14.5027,49.837 13.4937,50.604 12.4237,51.59 C12.1777,51.276 11.9927,50.953 11.8707,50.62 C11.7477,50.287 11.6867,49.84 11.6867,49.278 C12.4587,48.569 13.2307,47.931 14.0027,47.362 C14.7747,46.794 15.4937,46.317 16.1607,45.932 C17.9857,44.878 19.4117,44.494 20.4377,44.778 C21.4647,45.063 21.9777,46.171 21.9777,48.101 L21.9777,55.997 C21.3637,56.545 20.6177,57.16 19.7407,57.841 C18.8627,58.523 17.8717,59.184 16.7657,59.822 C15.8717,60.338 15.0507,60.733 14.3047,61.006 C13.5597,61.278 12.9187,61.385 12.3837,61.325 C11.8487,61.266 11.4367,61.03 11.1467,60.618 C10.8577,60.207 10.7127,59.579 10.7127,58.737 C10.7127,57.895 10.8917,57.085 11.2517,56.307 C11.6117,55.529 12.0767,54.804 12.6467,54.132 C13.2177,53.461 13.8537,52.849 14.5547,52.294 C15.2567,51.74 15.9587,51.26 16.6607,50.855 C17.1697,50.561 17.7307,50.263 18.3457,49.961 L18.3457,49.645 Z" id="Fill-4" fill="#333333"></path>
                        <path d="M27.9262,47.1407 C26.9432,47.4277 26.1762,47.4537 25.6232,47.2207 C25.0702,46.9867 24.7942,46.3167 24.7942,45.2117 C24.7942,43.8777 25.2722,42.5577 26.2282,41.2507 C27.1842,39.9447 28.4872,38.8147 30.1372,37.8627 C30.8212,37.4677 31.4962,37.1397 32.1642,36.8767 C32.8302,36.6147 33.5062,36.4097 34.1902,36.2597 C34.1552,36.7367 34.0672,37.2607 33.9272,37.8327 C33.7862,38.4057 33.6202,38.9317 33.4272,39.4117 C33.0062,39.4787 32.5412,39.5937 32.0322,39.7557 C31.5232,39.9177 30.9882,40.1617 30.4262,40.4857 C29.8302,40.8297 29.3642,41.1907 29.0312,41.5677 C28.6982,41.9437 28.5312,42.3337 28.5312,42.7377 C28.5312,43.1237 28.6502,43.3277 28.8862,43.3487 C29.1242,43.3697 29.4612,43.3247 29.9002,43.2107 L31.4002,42.7917 C31.8912,42.6497 32.3352,42.5647 32.7292,42.5377 C33.1242,42.5127 33.4622,42.5667 33.7432,42.7037 C34.0232,42.8397 34.2432,43.0817 34.4012,43.4287 C34.5592,43.7767 34.6372,44.2657 34.6372,44.8977 C34.6372,45.5467 34.5022,46.2307 34.2302,46.9497 C33.9582,47.6677 33.5632,48.3827 33.0452,49.0937 C32.5282,49.8057 31.9012,50.4917 31.1632,51.1547 C30.4262,51.8167 29.5932,52.4167 28.6632,52.9527 C28.2412,53.1967 27.8562,53.4057 27.5052,53.5817 C27.1542,53.7587 26.8162,53.9097 26.4912,54.0357 C26.1672,54.1617 25.8462,54.2717 25.5302,54.3667 C25.2152,54.4617 24.8722,54.5447 24.5042,54.6177 C24.5392,54.1227 24.6232,53.5977 24.7542,53.0387 C24.8862,52.4797 25.0572,51.9117 25.2672,51.3337 C25.8462,51.2277 26.3952,51.0827 26.9122,50.8967 C27.4302,50.7127 27.9692,50.4577 28.5312,50.1337 C28.7772,49.9917 29.0452,49.8157 29.3342,49.6047 C29.6232,49.3937 29.8912,49.1607 30.1372,48.9047 C30.3822,48.6487 30.5892,48.3807 30.7552,48.0997 C30.9222,47.8197 31.0052,47.5297 31.0052,47.2317 C31.0052,46.8097 30.8782,46.5807 30.6242,46.5437 C30.3692,46.5067 30.0142,46.5497 29.5582,46.6717 L27.9262,47.1407 Z" id="Fill-6" fill="#333333"></path>
                        <path d="M41.4018,38.1495 L44.7708,29.7295 C45.4558,29.2295 46.1488,28.7765 46.8508,28.3715 C47.5168,27.9865 48.1668,27.6645 48.7978,27.4045 L45.3238,35.7005 L49.3778,40.6775 C48.6578,41.1985 47.9638,41.6515 47.2978,42.0365 C46.6838,42.3915 46.0348,42.7125 45.3498,43.0035 L41.4018,38.1495 Z M37.1648,28.4885 C37.7608,28.0395 38.3758,27.6315 39.0068,27.2665 C39.6388,26.9025 40.2608,26.5955 40.8758,26.3455 L40.8758,45.5865 C40.2608,46.0465 39.6388,46.4585 39.0068,46.8235 C38.3758,47.1885 37.7608,47.4895 37.1648,47.7295 L37.1648,28.4885 Z" id="Fill-8" fill="#333333"></path>
                        <path d="M55.3515,34.3335 C55.5975,34.2275 55.8825,34.0885 56.2065,33.9185 C56.5315,33.7495 56.8255,33.5875 57.0885,33.4355 C57.4565,33.2235 57.8435,32.9655 58.2475,32.6625 C58.6505,32.3585 59.0275,32.0045 59.3785,31.6005 C59.7295,31.1965 60.0185,30.7485 60.2475,30.2565 C60.4755,29.7655 60.5895,29.2295 60.5895,28.6505 C60.5895,28.1065 60.5015,27.7065 60.3265,27.4475 C60.1505,27.1895 59.9005,27.0435 59.5765,27.0115 C59.2505,26.9795 58.8655,27.0495 58.4175,27.2195 C57.9705,27.3905 57.4745,27.6325 56.9305,27.9465 L55.3515,28.8585 L55.3515,34.3335 Z M56.5095,25.2945 C56.9485,25.0415 57.3555,24.7665 57.7335,24.4695 C58.1105,24.1725 58.4395,23.8425 58.7205,23.4785 C59.0005,23.1155 59.2205,22.7155 59.3785,22.2825 C59.5365,21.8495 59.6155,21.3695 59.6155,20.8435 C59.6155,20.3345 59.5235,19.9705 59.3395,19.7525 C59.1555,19.5345 58.9175,19.4165 58.6285,19.3995 C58.3385,19.3825 58.0145,19.4475 57.6545,19.5935 C57.2945,19.7395 56.9395,19.9145 56.5885,20.1165 C56.0975,20.4005 55.6845,20.6645 55.3515,20.9095 L55.3515,25.9635 L56.5095,25.2945 Z M51.5355,20.4805 C52.0965,20.0695 52.7465,19.6245 53.4825,19.1455 C54.2195,18.6675 55.1415,18.1095 56.2465,17.4715 C57.2115,16.9145 58.1235,16.4665 58.9835,16.1275 C59.8435,15.7895 60.5935,15.6245 61.2345,15.6312863 C61.8745,15.6395 62.3795,15.8525 62.7475,16.2715 C63.1165,16.6895 63.3005,17.3735 63.3005,18.3205 C63.3005,18.8825 63.2175,19.4525 63.0505,20.0315 C62.8835,20.6105 62.6595,21.1605 62.3795,21.6825 C62.0985,22.2045 61.7825,22.6845 61.4315,23.1245 C61.0805,23.5635 60.7215,23.9165 60.3525,24.1815 C60.7565,24.0005 61.2035,23.8655 61.6945,23.7745 C62.1855,23.6855 62.6425,23.7065 63.0635,23.8405 C63.4845,23.9745 63.8355,24.2585 64.1165,24.6935 C64.3965,25.1275 64.5375,25.7665 64.5375,26.6085 C64.5375,27.7495 64.3225,28.8075 63.8935,29.7835 C63.4625,30.7605 62.8835,31.6695 62.1555,32.5105 C61.4275,33.3525 60.5845,34.1275 59.6285,34.8385 C58.6725,35.5485 57.6675,36.2075 56.6155,36.8145 C55.8075,37.2815 55.0095,37.7195 54.2195,38.1325 C53.4305,38.5435 52.5355,38.9775 51.5355,39.4325 L51.5355,20.4805 Z" id="Fill-10" fill="#333333"></path>
                        <g id="Group-14" transform="translate(81.000000, 0.517600)">
                            <mask id="mask-4" fill="white">
                                <use xlink:href="#path-3"></use>
                            </mask>
                            <g id="Clip-13"></g>
                            <path d="M7.478,10.6367 L9.583,2.7617 C10.233,2.2827 10.909,1.8387 11.611,1.4337 C12.259,1.0587 12.901,0.7417 13.532,0.4827 L10.9,8.5817 L14.032,13.8017 C13.348,14.3017 12.699,14.7297 12.084,15.0837 C11.47,15.4387 10.847,15.7457 10.215,16.0047 L7.478,10.6367 Z M3.873,12.6397 L1.267,7.5637 C1.846,7.1247 2.486,6.7017 3.188,6.2967 C3.855,5.9117 4.531,5.5747 5.214,5.2847 L7.294,10.7427 L4.583,19.2567 C3.952,19.7267 3.329,20.1387 2.714,20.4937 C2.1,20.8487 1.451,21.1707 0.767,21.4607 L3.873,12.6397 Z" id="Fill-12" fill="#333333" mask="url(#mask-4)"></path>
                        </g>
                        <path d="M77.0156,21.5889 L69.6726,25.8289 L69.6726,18.4849 L74.6156,15.6309 L78.6006,10.0989 C78.4436,10.1539 78.2806,10.2249 78.1126,10.3219 L68.5756,15.8279 C67.3646,16.5269 66.3816,18.0769 66.3816,19.2879 L66.3816,28.8249 C66.3816,30.0359 67.3646,30.4509 68.5756,29.7519 L78.1126,24.2459 C79.3236,23.5469 80.3056,21.9969 80.3056,20.7859 L80.3056,12.9429 L77.0156,18.9959 L77.0156,21.5889 Z" id="Fill-15" fill="#333333"></path>
                        <polygon id="Fill-17" fill="#6AE59E" points="79.9809 10.3018 77.0159 14.4168 73.3079 19.5648 72.1539 18.5038 70.3309 20.7758 73.1829 23.3988 77.0159 16.3468 80.1589 10.5628 81.2859 8.4898"></polygon>
                    </g>
                </g>
            </g>
            <g id="freepik--Plants--inject-83" transform="translate(483.000000, 460.000000)" fill-rule="nonzero">
                <g id="freepik--plants--inject-83">
                    <path d="M0.15,36.65 C0.15,36.65 1.48,24.97 7.29,15.9 C13.1,6.83 21.08,1.18 28.53,0.59 C35.98,0 42,6.86 34.03,11.59 C26.06,16.32 11.9,21.1 5.38,38.7 L0.15,36.65 Z" id="Path" fill="#5BD989"></path>
                    <path d="M0.15,36.65 C0.15,36.65 1.48,24.97 7.29,15.9 C13.1,6.83 21.08,1.18 28.53,0.59 C35.98,0 42,6.86 34.03,11.59 C26.06,16.32 11.9,21.1 5.38,38.7 L0.15,36.65 Z" id="Path" fill="#000000" opacity="0.1"></path>
                    <path d="M2.34,33.61 L2.26,33.61 C2.05596864,33.5268388 1.95760451,33.2943418 2.04,33.09 C9.9,13.74 24.86,5.65 31.68,4.09 C31.895391,4.04029444 32.1102943,4.17460902 32.1599999,4.39000003 C32.2097055,4.60539103 32.075391,4.82029432 31.86,4.87 C25.18,6.41 10.51,14.35 2.78,33.4 C2.70055297,33.5643461 2.51773873,33.6515984 2.34,33.61 Z" id="Path" fill="#FFFFFF"></path>
                    <path d="M42.12,33.84 C41.45,35.36 39.79,36.16 38.25,36.78 C36.71,37.4 35.03,38.07 34.19,39.51 C32.51,42.41 35.27,46.51 33.47,49.32 C32.6136853,50.4631601 31.3278287,51.2072233 29.91,51.38 C28.76,51.59 27.59,51.59 26.43,51.69 C25.8744342,51.6826843 25.3199316,51.6392594 24.77,51.56 C23.1540373,51.1994051 21.4644158,51.3785542 19.96,52.07 C17.65,53.37 16.96,56.28 15.54,58.53 C13.7844418,61.2107707 10.9471699,62.9927381 7.77,63.41 C6.77,63.54 4.77,63.73 3.77,63.14 C3.69171961,63.1016045 3.61793586,63.0546512 3.55,63 L3.55,63 C3.4,62.84 3.22,62.63 3.14,62.52 C3.13483327,62.4969527 3.13483327,62.4730473 3.14,62.45 C2.73,60.94 3.4,59.38 3.43,57.82 L3.43,57.54 C3.36,55.73 3.31,53.93 3.27,52.13 C3.18333333,48.7966667 3.15,45.4633333 3.17,42.13 C3.17,39.97 2.93,37.61 3.85,35.58 C4.85,33.34 7.37,33.29 8.32,31.1 C8.7,30.22 8.9,29.29 9.27,28.4 C10.4355279,25.7624691 12.9722308,23.9929454 15.85,23.81 C20.24,23.59 24.17,27.14 28.56,26.81 C29.69,26.72 30.8,26.37 31.92,26.17 C35.47,25.5 39.58,26.51 41.58,29.52 C42.4714474,30.7789544 42.6741218,32.4003494 42.12,33.84 L42.12,33.84 Z" id="Path" fill="#5BD989"></path>
                    <path d="M2.7,55.52 L2.7,55.52 C2.50346498,55.4618711 2.38843623,55.2583587 2.44,55.06 C8.5,32.32 32.44,29.06 38.07,29.44 C38.1700405,29.4450742 38.2637488,29.4904934 38.3297105,29.5658783 C38.3956723,29.6412632 38.4282504,29.7401713 38.42,29.84 C38.3989616,30.0420222 38.2227727,30.1917828 38.02,30.18 C32.53,29.79 9.09,33 3.16,55.26 C3.10187108,55.456535 2.89835867,55.5715638 2.7,55.52 L2.7,55.52 Z" id="Path" fill="#FFFFFF"></path>
                    <path d="M29.33,44 C29.2541924,43.9894321 29.1839389,43.9543054 29.13,43.9 C24.6487659,40.016332 18.6689971,38.3334909 12.82,39.31 C12.6181007,39.328734 12.4355267,39.18963 12.4,38.99 C12.3697935,38.7863573 12.5072474,38.5956955 12.71,38.56 C18.8106088,37.544589 25.0457804,39.3087758 29.71,43.37 C29.7814739,43.4396439 29.821785,43.5352063 29.821785,43.635 C29.821785,43.7347937 29.7814739,43.8303561 29.71,43.9 C29.617368,44.0105629 29.4650552,44.0506452 29.33,44 L29.33,44 Z" id="Path" fill="#FFFFFF"></path>
                </g>
            </g>
            <g id="freepik--Clouds--inject-83" transform="translate(424.000000, 210.000000)" fill="#E6E6E6" fill-rule="nonzero">
                <g id="freepik--clouds--inject-83">
                    <path d="M4.12,12 L7.3,13.22 L7.3,6.22 C7.3,0.66 11.73,-0.67 16.54,2.11 L16.54,2.11 C21.36,4.89 25.26,11.64 25.26,17.2 L25.26,18.2 C26.6180579,17.7850577 28.0912801,18.0134072 29.26,18.82 L29.26,18.82 C32.9645077,21.2355112 35.2938935,25.2738563 35.53,29.69 L35.53,30.15 L39.97,32.71 C42.4061163,34.3002348 43.9396889,36.9552092 44.1,39.86 C44.1,42.5 42.25,43.57 39.97,42.25 L4.12,21.54 C1.6816433,19.9532673 0.150061081,17.295303 0,14.39 C0,11.76 1.83,10.69 4.12,12 Z" id="Path"></path>
                    <path d="M46.71,6.46 L52.48,9.79 C52.4484238,9.53786831 52.4317282,9.28409538 52.43,9.03 L52.43,7.36 C52.43,4.36 54.51,3.18 57.09,4.67 C58.1986135,5.34879141 59.1470283,6.25967898 59.87,7.34 C60.29,3.6 63.23,2.21 66.79,4.26 C70.9161457,6.94470193 73.5159649,11.4349611 73.79,16.35 L73.79,18.85 C73.815737,19.8488955 73.6139836,20.8405649 73.2,21.75 L78,24.51 C79.5170086,25.5160785 80.4668882,27.1820783 80.56,29 C80.56,30.65 79.4,31.32 77.97,30.5 L46.71,12.5 C45.1763966,11.5007982 44.2136078,9.82799926 44.12,8 C44.12,6.31 45.28,5.64 46.71,6.46 Z" id="Path"></path>
                </g>
            </g>
            <g id="freepik--Character--inject-83" transform="translate(353.000000, 317.000000)" fill-rule="nonzero">
                <g id="freepik--character--inject-83">
                    <path d="M95.37,51.23 C91.17,58.33 87.13,64.5 84.29,67.46 C78.9,69.96 66.24,73.82 61.29,74.46 C60.420508,74.570712 59.5402106,74.364836 58.81,73.88 C56.86,72.6 55.35,72.39 53.3,71.68 C51.69,71.13 51.01,70.36 50.71,70.68 C50.0654589,71.4353512 50.1408949,72.5668919 50.88,73.23 C51.6491814,73.960804 52.501714,74.5985253 53.42,75.13 C51.2242905,75.6747287 48.9338076,75.7157523 46.72,75.25 C42.43,74.12 40.41,76.18 43.31,80.84 C44.31,82.5 48.43,85.17 56.71,84.45 C59.6638177,84.290698 62.6056238,83.9567813 65.52,83.45 C73.46,81.75 82.29,80.11 87.72,78.45 C89.7399139,77.6557782 91.547503,76.4027903 93,74.79 C102.13,64.38 105.16,56.96 109.16,50.22 L108.82,39.22 C102.34,39 98.88,45.29 95.37,51.23 Z" id="Path" fill="#FFA8A7"></path>
                    <path d="M109.93,39 C106.100472,38.4616872 102.288138,40.0905936 100.03,43.23 C95.59,48.92 87.73,62.58 87.73,62.58 C87.73,62.58 90.3,69.43 97.24,70.58 L108.39,55.52 C108.39,55.52 113.67,45.06 109.93,39 Z" id="Path" fill="#455A64"></path>
                    <rect id="Rectangle" fill="#FFA8A7" x="126.77" y="192.54" width="7.27" height="12.96"></rect>
                    <polygon id="Path" fill="#FFA8A7" points="108.84 191.85 101.58 192.11 101.21 178.39 108.84 178.13"></polygon>
                    <path d="M135.06,80.35 C135.06,87.57 134,145.74 134,145.74 C134.16,147.82 136,151.66 135.63,159.65 C135.08,170.5 134.35,199.02 134.35,199.02 C131.821284,200.31402 128.837903,200.373024 126.26,199.18 C126.26,199.18 120.36,159.18 119.06,148.47 C117.92,139.08 115,108 115,108 L111.07,144.74 C111.903148,148.682059 112.205826,152.717768 111.97,156.74 C111.63,161.74 109.29,187.62 109.29,187.62 C106.745052,189.121282 103.650951,189.368368 100.9,188.29 C100.9,188.29 96.76,149.29 96.68,144.71 C96.58,139.51 99.1,80.29 99.1,80.29 L135.06,80.35 Z" id="Path" fill="#37474F"></path>
                    <path d="M126.77,201.76 L126.77,200.68 C126.07,200.99 124.46,207.41 121.57,210.15 C119.28,212.33 116.16,214.84 115.36,217.27 C114.56,219.7 119.71,221.19 121.86,220.8 C124.34,220.34 128.66,218.51 129.74,216.8 C130.82,215.09 131.33,212.61 132.21,211.37 C133.09,210.13 135.12,208.75 135.59,207.31 C135.736623,205.962672 135.596904,204.599567 135.18,203.31 C134.84,201.97 134.48,200.5 134.04,200.63 L134.04,201.45 C133.014888,202.291344 131.726086,202.74455 130.4,202.73 C129.34,202.82 126.76,202.6 126.77,201.76 Z" id="Path" fill="#263238"></path>
                    <path d="M101.5,189.77 C101.12,189.77 100.81,190.34 99.98,191.28 C98.7458214,192.578161 97.3024198,193.659867 95.71,194.48 C92.99,195.9 87.71,198.08 85.3,199.21 C83.8,199.91 83.87,201.79 85.42,202.86 C86.97,203.93 90.7,204.7 95.18,203.66 C97.62,203.09 100.8,200.74 102.82,200.87 C104.84,201 108.59,200.96 110.08,199.87 C111.57,198.78 110.97,196.52 110.55,194.57 C110.09,192.43 109.55,189.1 108.84,189.25 L108.84,190 C107.97,191.38 103.46,191.94 101.54,190.93 L101.5,189.77 Z" id="Path" fill="#263238"></path>
                    <path d="M115,108 C111.218259,106.762039 107.76076,104.695057 104.88,101.95 C104.88,101.95 106.88,105.76 112.64,109.31 L111.4,142.12 L115,108 Z" id="Path" fill="#263238"></path>
                    <path d="M131,40.06 C131,40.06 137,41.44 136.57,52.28 L135.32,69.53 L135.32,95.43 C129.98,101.49 106.32,101.05 98.17,94.95 C98.17,94.95 99.09,64.3 99.64,52.5 C100.03,44.12 101.96,39.9 110.2,38.98 L120.33,39.42 L131,40.06 Z" id="Path" fill="#5BD989"></path>
                    <path d="M123.36,17.54 C123.429682,20.4712046 122.326249,23.3089285 120.294707,25.423084 C118.263165,27.5372395 115.471654,28.7528494 112.54,28.8 C106.54,28.8 103.02,23.62 101.72,17.54 C99.32,6.41 106.56,6.27 112.54,6.27 C118.639335,6.39574629 123.482757,11.4406038 123.36,17.54 L123.36,17.54 Z" id="Path" fill="#263238"></path>
                    <path d="M128.88,22.09 C128.88,22.09 127.22,30.21 126.55,31.55 C126.128637,32.3564603 125.412138,32.9690661 124.55,33.26 L124.67,27.55 L128.88,22.09 Z" id="Path" fill="#263238"></path>
                    <path d="M126.79,10.46 C126.79,10.46 127.98,10.16 129.25,12.14 C130.33,13.83 130.58,17.63 128.88,22.14 L125.75,22.52 L126.79,10.46 Z" id="Path" fill="#263238"></path>
                    <path d="M127.94,12.11 L131.78,12.18 C131.833155,11.6782689 131.674478,11.1771222 131.342237,10.7974179 C131.009995,10.4177137 130.534347,10.1939172 130.03,10.18 C128.942856,10.195625 128.041977,11.0275371 127.94,12.11 Z" id="Path" fill="#263238"></path>
                    <path d="M128.41,11.2 L131.25,8.47 C130.919166,8.07991506 130.440177,7.84608876 129.929119,7.82519047 C129.41806,7.80429217 128.921579,7.99822934 128.56,8.36 C127.779048,9.12360751 127.713831,10.3583755 128.41,11.2 Z" id="Path" fill="#263238"></path>
                    <path d="M124.81,22.47 C125.44,22.86 126.33,21.61 127.11,20.76 C127.89,19.91 130.31,19.13 131.57,21.89 C132.83,24.65 130.68,27.38 128.88,28.28 C125.65,29.88 124.63,27.55 124.63,27.55 L124.36,40.41 C119.82,47.41 109.52,47.19 113.23,40.07 L113.23,36.16 C111.703952,36.4137254 110.154124,36.4942359 108.61,36.4 C106.09,36 104.51,33.93 103.74,31.09 C102.52,26.53 102.05,22.85 103.09,13.88 C104.23,4.06 115.21,3.95 121.09,7.88 C126.97,11.81 124.81,22.47 124.81,22.47 Z" id="Path" fill="#FFA8A7"></path>
                    <path d="M111.13,12.35 C113.75,12.09 116.34,11.55 118.97,11.35 C119.537148,11.2812621 120.111814,11.3083052 120.67,11.43 C122.67,11.98 122.43,14.32 122.75,15.95 C123.3,18.77 123.75,23.54 124.81,23.56 C125.13,23.56 126.33,21.49 127.11,20.75 C127.53879,20.1124027 127.781209,19.3678293 127.81,18.6 C128.01,17.44 128.11,16.25 128.2,15.07 C128.28,14.07 128.38,13.07 128.38,12.07 C128.42568,10.9398996 128.335027,9.80841174 128.11,8.7 C127.859274,7.75700286 127.378199,6.89106781 126.71,6.18 L126.51,5.96 C125.191882,4.58191238 123.592228,3.50410717 121.82,2.8 C119.270222,1.84476741 116.596051,1.26210797 113.88,1.07 C111.167747,0.877901527 108.467394,0.544112497 105.79,0.07 C105.636525,0.0252777419 105.473475,0.0252777419 105.32,0.07 C105.099364,0.192177031 104.956145,0.418312276 104.94,0.67 C104.716134,1.93827854 105.241405,3.22227355 106.29,3.97 C104.48,4.11 102.4,3.17 100.66,2.69 C100.375587,2.56941258 100.054413,2.56941258 99.77,2.69 C99.5954627,2.81204597 99.4711084,2.99324794 99.42,3.2 C99.2933758,3.66985202 99.2762701,4.1624968 99.37,4.64 C99.5292546,6.08730401 100.067345,7.46702227 100.93,8.64 C102.277827,10.3947541 104.181903,11.6394554 106.33,12.17 C107.911404,12.4749059 109.530202,12.5356108 111.13,12.35 L111.13,12.35 Z" id="Path" fill="#263238"></path>
                    <path d="M113.24,36.16 C113.24,36.16 118.86,34.98 120.82,33.89 C121.987493,33.2512779 122.935379,32.2755126 123.54,31.09 C123.244881,32.2810521 122.718203,33.4023659 121.99,34.39 C120.56,36.31 113.24,37.71 113.24,37.71 L113.24,36.16 Z" id="Path" fill="#F28F8F"></path>
                    <path d="M114.59,21 C114.567448,21.6425589 115.067616,22.1829189 115.71,22.21 C116.211413,22.2512323 116.686716,21.98044 116.90692,21.5280844 C117.127124,21.0757289 117.047063,20.5345893 116.70531,20.1653739 C116.363557,19.7961584 115.830206,19.6745942 115.362212,19.8592479 C114.894218,20.0439016 114.587569,20.4969003 114.59,21 L114.59,21 Z" id="Path" fill="#263238"></path>
                    <path d="M116.39,16.15 L118.8,17.54 C119.163706,16.8293309 118.919864,15.9584696 118.24,15.54 C117.916911,15.3586814 117.532494,15.3214891 117.180637,15.4375067 C116.828781,15.5535244 116.541878,15.8120705 116.39,16.15 Z" id="Path" fill="#263238"></path>
                    <path d="M113.74,29.11 L111.17,30.11 C111.274481,30.466312 111.522124,30.763297 111.853858,30.9301117 C112.185592,31.0969264 112.571671,31.1186136 112.92,30.99 C113.646005,30.6772953 114.004737,29.8548368 113.74,29.11 L113.74,29.11 Z" id="Path" fill="#F28F8F"></path>
                    <path d="M104.25,17.18 L106.45,15.42 C106.250626,15.1093023 105.928558,14.898022 105.564161,14.838879 C105.199764,14.779736 104.827406,14.8783085 104.54,15.11 C103.93132,15.6260327 103.806559,16.5165687 104.25,17.18 L104.25,17.18 Z" id="Path" fill="#263238"></path>
                    <path d="M105.22,20.67 C105.26874,21.2799759 105.794164,21.7403265 106.405254,21.7084611 C107.016344,21.6765958 107.491038,21.1640939 107.476072,20.5523568 C107.461105,19.9406198 106.961917,19.4519442 106.35,19.45 C106.037833,19.4603855 105.742777,19.5951572 105.530533,19.8243054 C105.318289,20.0534535 105.206479,20.3579528 105.22,20.67 L105.22,20.67 Z" id="Path" fill="#263238"></path>
                    <polygon id="Path" fill="#F28F8F" points="111.25 19.73 111.12 26.84 107.08 25.92"></polygon>
                    <polyline id="Path" fill="#5BD989" points="15.31 79.28 21.58 75.66 24.06 72.65 17.8 76.27 15.31 79.28"></polyline>
                    <polyline id="Path" fill="#000000" opacity="0.4" points="15.31 79.28 21.58 75.66 24.06 72.65 17.8 76.27 15.31 79.28"></polyline>
                    <polyline id="Path" fill="#5BD989" points="32.36 89.12 38.63 85.5 43.86 80.87 37.6 84.48 32.36 89.12"></polyline>
                    <polyline id="Path" fill="#000000" opacity="0.4" points="32.36 89.12 38.63 85.5 43.86 80.87 37.6 84.48 32.36 89.12"></polyline>
                    <path d="M85.62,101.61 C87.1025937,103.597236 87.9997302,105.95958 88.21,108.43 C86.7339342,106.439188 85.8375261,104.078762 85.62,101.61 L85.62,101.61 Z M100.19,101.8 C98.08,87.45 90.37,73.26 81.19,67.95 C76.78,65.4 72.7,65.31 69.43,67.22 L63.53,70.62 L63.2,70.82 C62.9372733,70.9646197 62.6834818,71.1249091 62.44,71.3 C61.9553324,71.6335691 61.5003154,72.008289 61.08,72.42 L60.88,72.61 C60.7,72.79 60.51,73 60.34,73.2 C60.17,73.4 59.91,73.71 59.71,73.98 C59.2855121,74.5387217 58.9012133,75.1268659 58.56,75.74 C58.38,76.05 58.21,76.38 58.05,76.74 L6.52,47 L0.26,50.61 L0.26,54.61 L0.79,54.91 L1.29,55.2 L1.29,56 L0.29,56.59 L0.29,58.91 L7.86,74.91 L15.34,79.24 L17.83,76.24 L24.43,80.19 L28.22,86.68 L32.4,89.09 L37.63,84.45 L44.05,88.16 L46.21,97.07 L57,103.31 C57.5333028,105.577717 58.2011511,107.811669 59,110 C59.07,110.22 59.16,110.45 59.25,110.7 C62.83,120.1 68.52,128.15 74.94,131.86 C75.7094126,132.316316 76.5155394,132.707672 77.35,133.03 C77.7911342,133.205392 78.2418574,133.355633 78.7,133.48 C79.1,133.586667 79.5,133.676667 79.9,133.75 C81.1629265,133.980229 82.4570735,133.980229 83.72,133.75 L84.24,133.62 C84.4886216,133.569896 84.7327588,133.499665 84.97,133.41 L85.53,133.19 C85.7282083,133.118462 85.9190851,133.028046 86.1,132.92 C86.2848592,132.840065 86.4651368,132.749927 86.64,132.65 L86.9,132.49 C86.9471269,132.474526 86.9911402,132.450827 87.03,132.42 C88.46,131.6 91.98,129.56 92.94,129.02 C97.7,126.26 100.78,119.28 100.78,109.41 C100.771953,106.862227 100.574745,104.318568 100.19,101.8 Z" id="Shape" fill="#5BD989"></path>
                    <path d="M83.79,113.72 C81.31,112.29 79.31,108.05 79.31,104.25 C79.31,100.45 81.31,98.52 83.79,99.94 C86.27,101.36 88.26,105.61 88.26,109.42 C88.26,113.23 86.26,115.15 83.79,113.72 Z M93.92,105.41 C91.82,91.07 84.11,76.87 74.92,71.57 C70.66,69.11 66.72,68.93 63.52,70.62 L63.19,70.82 C62.9272733,70.9646197 62.6734818,71.1249091 62.43,71.3 C61.9453324,71.6335691 61.4903154,72.008289 61.07,72.42 L60.87,72.61 C60.69,72.79 60.5,73 60.33,73.2 C60.16,73.4 59.9,73.71 59.7,73.98 C59.2755121,74.5387217 58.8912133,75.1268659 58.55,75.74 C58.37,76.05 58.2,76.38 58.04,76.74 C57.1076679,78.6729116 56.4351662,80.7206793 56.04,82.83 L0.25,50.61 L0.25,54.61 L0.78,54.91 L1.28,55.2 L1.28,56 L0.28,56.59 L0.28,58.91 L7.85,74.91 L15.33,79.24 L17.82,76.24 L24.42,80.19 L28.21,86.68 L32.39,89.09 L37.62,84.45 L44.04,88.16 L46.2,97.07 L57,103.31 C57.5333028,105.577717 58.2011511,107.811669 59,110 C59.07,110.22 59.16,110.45 59.25,110.7 C62.83,120.1 68.52,128.15 74.94,131.86 C75.7094126,132.316316 76.5155394,132.707672 77.35,133.03 C77.7911342,133.205392 78.2418574,133.355633 78.7,133.48 C79.1,133.586667 79.5,133.676667 79.9,133.75 C81.1629265,133.980229 82.4570735,133.980229 83.72,133.75 L84.24,133.62 C84.4886216,133.569896 84.7327588,133.499665 84.97,133.41 L85.53,133.19 C85.7282083,133.118462 85.9190851,133.028046 86.1,132.92 C86.2848592,132.840065 86.4651368,132.749927 86.64,132.65 L86.9,132.49 C86.9471269,132.474526 86.9911402,132.450827 87.03,132.42 C91.59,129.54 94.52,122.66 94.52,113.03 C94.5032058,110.478889 94.302687,107.932301 93.92,105.41 L93.92,105.41 Z" id="Shape" fill="#5BD989"></path>
                    <path d="M88.26,109.41 C88.26,113.22 86.26,115.15 83.79,113.72 C81.32,112.29 79.31,108.06 79.31,104.25 C79.31,100.44 81.31,98.51 83.79,99.94 C84.5041856,100.374684 85.1259705,100.945503 85.62,101.62 C85.8349535,104.089351 86.7316189,106.450455 88.21,108.44 C88.2465968,108.761998 88.2632952,109.085946 88.26,109.41 L88.26,109.41 Z" id="Path" fill="#000000" opacity="0.4"></path>
                    <path d="M100.76,109.4 C100.76,119.27 97.68,126.25 92.92,129.01 C91.92,129.55 88.44,131.59 87.01,132.41 C91.57,129.53 94.5,122.65 94.5,113.02 C94.489347,110.472709 94.2955137,107.929483 93.92,105.41 C91.82,91.07 84.11,76.87 74.92,71.57 C70.66,69.11 66.72,68.93 63.52,70.62 L69.42,67.22 C72.69,65.31 76.77,65.4 81.18,67.95 C90.37,73.26 98.08,87.45 100.18,101.8 C100.560904,104.315517 100.754769,106.855814 100.76,109.4 Z" id="Path" fill="#FFFFFF" opacity="0.4"></path>
                    <path d="M94.5,113 C94.5,122.63 91.57,129.51 87.01,132.39 C88.44,131.57 91.96,129.53 92.92,128.99 C97.68,126.23 100.76,119.25 100.76,109.38 C100.76,109.02 100.76,108.65 100.76,108.28 L94.5,111.9 C94.49,112.29 94.5,112.65 94.5,113 Z" id="Path" fill="#5BD989"></path>
                    <path d="M94.5,113 C94.5,122.63 91.57,129.51 87.01,132.39 C88.44,131.57 91.96,129.53 92.92,128.99 C97.68,126.23 100.76,119.25 100.76,109.38 C100.76,109.02 100.76,108.65 100.76,108.28 L94.5,111.9 C94.49,112.29 94.5,112.65 94.5,113 Z" id="Path" fill="#000000" opacity="0.1"></path>
                    <polygon id="Path" fill="#000000" opacity="0.15" points="56.28 86.92 56.28 88.95 0.26 56.61 1.29 56.01 1.29 55.17"></polygon>
                    <polygon id="Path" fill="#000000" opacity="0.15" points="56.28 87.76 56.28 88.95 0.26 56.61 1.29 56.01 1.29 56"></polygon>
                    <path d="M80.64,129.000146 C78.516835,128.944817 76.4463526,128.327124 74.64,127.21 C65.51,121.94 58.08,106.26 58.08,92.26 C58.08,84.09 60.55,77.99 64.86,75.5 C67.86,73.76 71.41,73.98 75.14,76.13 C84.26,81.4 91.69,97.13 91.69,111.13 C91.69,119.29 89.22,125.4 84.91,127.88 C83.6099613,128.622428 82.1370715,129.00876 80.64,129.000146 Z M69.19,75.3498825 C67.8573337,75.3425722 66.546385,75.6875587 65.39,76.35 C61.46,78.62 59.11,84.57 59.11,92.25 C59.11,105.93 66.31,121.25 75.17,126.33 C78.56,128.33 81.77,128.51 84.44,126.97 C88.37,124.7 90.72,118.76 90.72,111.08 C90.72,97.39 83.52,82.08 74.67,76.99 C73.015971,75.9836971 71.1256425,75.4317764 69.19,75.39 L69.19,75.3498825 Z" id="Shape" fill="#000000" opacity="0.15"></path>
                    <path d="M58,76.72 C57.0676679,78.6529116 56.3951662,80.7006793 56,82.81 L0.21,50.59 L6.47,46.98 L58,76.72 Z" id="Path" fill="#FFFFFF" opacity="0.4"></path>
                    <path d="M130.51,79.85 C133.43,74.32 136.77,61.9 138.43,55.63 C140.79,46.73 136.97,41.13 132.63,40.9 C129.92,41.32 120.99,73.79 120.99,73.79 C119.99,74.58 106.42,81.47 102.06,83.2 C101.280293,83.4949378 100.419707,83.4949378 99.64,83.2 C97.55,82.44 96.12,82.58 94.07,82.38 C92.46,82.22 91.65,81.65 91.44,81.99 C91.0445127,82.8651106 91.3885438,83.8972039 92.23,84.36 C93.1127371,84.8741242 94.0524166,85.283556 95.03,85.58 C93.2774307,86.1116398 91.450799,86.3581169 89.62,86.31 C85.42,86.22 83.91,88.04 87.17,92.31 C89.17,94.97 92.48,95.81 99.87,93.26 C101.99,92.52 104.87,91.09 107.56,90.12 C113.1,88.12 114.56,87.88 118.78,86.45 C124.93,84.37 129.21,82.31 130.51,79.85 Z" id="Path" fill="#FFA8A7"></path>
                    <path d="M131,40.06 C133.55,40.41 136,40.98 137.51,43.06 C139.02,45.14 140.23,48.06 138.75,56.01 C137.616633,61.601006 136.099713,67.1073564 134.21,72.49 C134.21,72.49 128.27,75.03 121.96,68.59 L126.3,51.81 C126.3,51.81 127,40.9 131,40.06 Z" id="Path" fill="#455A64"></path>
                </g>
            </g>
        </g>
    </g>
</svg>