<svg xmlns="http://www.w3.org/2000/svg" width="385.64" height="80" viewBox="0 0 385.64 80"><title>Artboard 2</title><path d="M7.48,35H.53L0,32.9,20,7.37h2.46V23.5H35.35a24.32,24.32,0,0,1,.43,2.88c.07.86.11,1.75.11,2.67s0,2-.11,2.89A27.37,27.37,0,0,1,35.35,35H22.43V56.71A22.09,22.09,0,0,0,23,62.06a7.91,7.91,0,0,0,1.55,3.2A5.13,5.13,0,0,0,27,66.86a12.72,12.72,0,0,0,3.53.43A18.35,18.35,0,0,0,33.7,67c1-.17,1.94-.34,2.72-.48a20.72,20.72,0,0,1,1.07,4.22,27.79,27.79,0,0,1,.32,3.9c0,.78,0,1.44-.05,2s-.09,1-.16,1.54a43.17,43.17,0,0,1-10.15,1.18q-9.72,0-14.85-4.54T7.48,60Z" fill="#262626"/><path d="M74.45,42.4a8.81,8.81,0,0,0-.86-4.16,6.32,6.32,0,0,0-2.35-2.51,9.62,9.62,0,0,0-3.68-1.23,34.26,34.26,0,0,0-4.86-.32,38,38,0,0,0-12.29,2.24,29.33,29.33,0,0,1-2.24-5.23,20.3,20.3,0,0,1-.75-5.88A58,58,0,0,1,56.82,23a56.88,56.88,0,0,1,8.76-.74q11.11,0,17.36,5.34t6.25,17.09v32a90,90,0,0,1-9.08,2.24A62.12,62.12,0,0,1,68,80a48.4,48.4,0,0,1-10-1,21.3,21.3,0,0,1-7.8-3.21,15.08,15.08,0,0,1-5-5.76,19.3,19.3,0,0,1-1.76-8.65,15.81,15.81,0,0,1,2.19-8.6,16.9,16.9,0,0,1,5.66-5.56,25.11,25.11,0,0,1,7.75-3,41.25,41.25,0,0,1,8.54-.91q3.09,0,6.84.32Zm0,11c-.86-.14-1.79-.26-2.78-.37A24.6,24.6,0,0,0,69,52.87a15.72,15.72,0,0,0-8.28,1.87,6.54,6.54,0,0,0-3,6,6.82,6.82,0,0,0,1.17,4.28,7.14,7.14,0,0,0,2.83,2.19,11.85,11.85,0,0,0,3.53.85c1.24.11,2.33.16,3.25.16A19.32,19.32,0,0,0,71.67,68c1.07-.17,2-.33,2.78-.48Z" fill="#262626"/><path d="M113.32,54.69A21,21,0,0,1,104,49.61q-3.37-3.36-3.37-10.09,0-8.12,5.82-12.71t15.86-4.59a46.14,46.14,0,0,1,8.23.74,52.27,52.27,0,0,1,8.22,2.25A29.54,29.54,0,0,1,137.68,31a28.66,28.66,0,0,1-2,5.24A42.2,42.2,0,0,0,130,34.34a25.71,25.71,0,0,0-6.52-.8,11.78,11.78,0,0,0-5.66,1.12,3.8,3.8,0,0,0-2,3.58,3.69,3.69,0,0,0,1.44,3.31,16.49,16.49,0,0,0,4.11,1.81l6.09,1.82a31,31,0,0,1,5.4,2.08,15,15,0,0,1,4.11,3.05,12.69,12.69,0,0,1,2.67,4.48,19.37,19.37,0,0,1,1,6.52,16.62,16.62,0,0,1-1.66,7.37,17,17,0,0,1-4.8,5.93,23.88,23.88,0,0,1-7.64,4A33.13,33.13,0,0,1,116.31,80c-1.71,0-3.27,0-4.7-.16a40.41,40.41,0,0,1-4.11-.53c-1.32-.26-2.61-.56-3.9-.91s-2.67-.82-4.16-1.39a30.88,30.88,0,0,1,1-5.82,37,37,0,0,1,2.09-5.72,44.71,44.71,0,0,0,6.67,2.09,30.63,30.63,0,0,0,6.57.69A21.67,21.67,0,0,0,119,68a11.36,11.36,0,0,0,3.25-1,7.67,7.67,0,0,0,2.51-1.81,4.21,4.21,0,0,0,1-2.94,4.26,4.26,0,0,0-1.55-3.69,15.11,15.11,0,0,0-4.32-2Z" fill="#262626"/><path d="M150.81.64A42.74,42.74,0,0,1,158.29,0a44.49,44.49,0,0,1,7.58.64V78.72a45.53,45.53,0,0,1-7.58.64,43.72,43.72,0,0,1-7.48-.64ZM168,49.77,181.68,23.5a55.1,55.1,0,0,1,8.44-.64,47.68,47.68,0,0,1,7.9.64L183.92,49l16.45,29.7a59.32,59.32,0,0,1-8.44.64,53,53,0,0,1-7.9-.64Z" fill="#262626"/><path d="M209.13,1.82q3.42-.54,7.9-.86T228.25.64a61.5,61.5,0,0,1,11.1,1,27.77,27.77,0,0,1,9.14,3.26A17,17,0,0,1,254.63,11a18.9,18.9,0,0,1,2.24,9.61,19.54,19.54,0,0,1-1,6.36,17.67,17.67,0,0,1-2.73,5.13,16.85,16.85,0,0,1-3.84,3.63,10.46,10.46,0,0,1-4.38,1.76,23,23,0,0,1,5.45,1.5,18,18,0,0,1,9.82,9.39,20.46,20.46,0,0,1,1.71,8.76q0,6.95-2.62,11.38a19.26,19.26,0,0,1-7,7A30.14,30.14,0,0,1,242,79a75.13,75.13,0,0,1-12.23,1q-4.91,0-9.72-.27c-3.2-.18-6.83-.51-10.89-1ZM229.31,33a24.3,24.3,0,0,0,5-.48,10.44,10.44,0,0,0,4-1.71A8.22,8.22,0,0,0,241,27.5a12.65,12.65,0,0,0,1-5.28,10.3,10.3,0,0,0-1.12-5.08,8.61,8.61,0,0,0-2.89-3.09,10.54,10.54,0,0,0-3.95-1.5,25.58,25.58,0,0,0-4.33-.37,32.26,32.26,0,0,0-5,.32V33Zm-4.7,34c1,.14,2.16.25,3.48.32s2.51.11,3.57.11a27.94,27.94,0,0,0,4.7-.43,14.1,14.1,0,0,0,4.6-1.66,10,10,0,0,0,3.52-3.41,10.51,10.51,0,0,0,1.39-5.72,12.54,12.54,0,0,0-1.07-5.5,8.88,8.88,0,0,0-3-3.52,12.6,12.6,0,0,0-4.7-1.87,31.18,31.18,0,0,0-6-.54h-6.41Z" fill="#262626"/><path d="M344.41,50.2,333.83,23.5a43.49,43.49,0,0,1,7.8-.64,53.74,53.74,0,0,1,8.23.64l8.43,27-11,28.2a46.82,46.82,0,0,1-7.58.64,52.9,52.9,0,0,1-7.9-.64Zm14.63.32,8.55-27a50.9,50.9,0,0,1,8.22-.64,47.18,47.18,0,0,1,7.8.64L372.93,50.2l12.71,28.52a53,53,0,0,1-7.91.64,46.82,46.82,0,0,1-7.58-.64Z" fill="#262626"/><path d="M312.53,66h-29.8V36.21h20.06L319,23.1a8.65,8.65,0,0,0-2-.24h-38.7a8.89,8.89,0,0,0-8.9,8.9v38.7a8.9,8.9,0,0,0,8.9,8.9H317a8.91,8.91,0,0,0,8.9-8.9V38.63L312.53,55.49Z" fill="#262626"/><polygon points="324.56 27.15 312.53 36.91 297.48 49.11 292.8 42.1 285.4 47.05 296.98 64.37 312.53 44.74 325.28 28.63 329.86 22.86 324.56 27.15" fill="#5bd989"/></svg>