<?xml version="1.0" encoding="UTF-8"?>
<svg width="600px" height="800px" viewBox="0 0 600 800" version="1.1" xmlns="http://www.w3.org/2000/svg" xmlns:xlink="http://www.w3.org/1999/xlink">
    <!-- Generator: Sketch 63.1 (92452) - https://sketch.com -->
    <title>signup</title>
    <desc>Created with Sketch.</desc>
    <defs>
        <polygon id="path-1" points="0 0.8954 9.3177 0.8954 9.3177 18.9996725 0 18.9996725"></polygon>
        <polygon id="path-3" points="0.767 0.4827 14.032 0.4827 14.032 21.4607 0.767 21.4607"></polygon>
    </defs>
    <g id="signup" stroke="none" stroke-width="1" fill="none" fill-rule="evenodd">
        <g id="Mobile-login-amico">
            <rect id="Rectangle" fill="#FBFBFB" x="0" y="5.68434189e-14" width="600" height="800"></rect>
            <g id="freepik--Floor--inject-81" transform="translate(65.000000, 393.000000)" fill="#F0F0F0" fill-rule="nonzero">
                <path d="M69.3449153,192.035503 C160.835593,235.757396 309.164407,235.77071 400.655085,192.035503 C492.145763,148.300296 492.132486,77.4186391 400.655085,33.6967456 C309.177684,-10.0251479 160.835593,-10.0251479 69.3449153,33.6967456 C-22.1457627,77.4186391 -22.1324859,148.313609 69.3449153,192.035503 Z" id="Path"></path>
            </g>
            <g id="freepik--Shadow--inject-81" transform="translate(434.000000, 524.000000)" fill="#EBEBEB" fill-rule="nonzero">
                <ellipse id="Oval" cx="31.0395745" cy="14.5263636" rx="30.3140426" ry="14.4340909"></ellipse>
            </g>
            <g id="freepik--Plants--inject-81" transform="translate(98.000000, 362.000000)" fill-rule="nonzero">
                <path d="M29.1818182,178.518681 L39.9658264,172.297917 C45.9868285,167.384666 50.5695678,160.937031 53.2302893,153.635625 C56.5596694,144.457014 56.0954132,137.480208 53.7078099,133.978542 C50.7763636,129.667778 43.1758264,130.423819 42.8707438,139.496319 C42.2340496,157.376042 37.0211157,169.777778 29.1818182,178.518681 Z" id="Path" fill="#5BD989"></path>
                <path d="M29.1818182,178.518681 L39.9658264,172.297917 C45.9868285,167.384666 50.5695678,160.937031 53.2302893,153.635625 C56.5596694,144.457014 56.0954132,137.480208 53.7078099,133.978542 C50.7763636,129.667778 43.1758264,130.423819 42.8707438,139.496319 C42.2340496,157.376042 37.0211157,169.777778 29.1818182,178.518681 Z" id="Path" fill="#000000" opacity="0.2"></path>
                <path d="M29.1818182,179.181875 C28.8936819,179.178344 28.640795,178.98917 28.5560518,178.713766 C28.4713087,178.438363 28.5741021,178.139754 28.8104132,177.974861 C53.7476033,160.731806 48.9193388,136.684375 48.866281,136.445625 C48.8165222,136.208688 48.8969527,135.963205 49.0772753,135.801646 C49.2575978,135.640088 49.510417,135.586998 49.7404984,135.662376 C49.9705798,135.737753 50.1429684,135.930147 50.1927273,136.167083 C50.1927273,136.419097 55.286281,161.288889 29.606281,179.0625 C29.4816662,179.14766 29.3325565,179.189595 29.1818182,179.181875 L29.1818182,179.181875 Z" id="Path" fill="#FFFFFF"></path>
                <path d="M7.57400826,191 C7.57400826,191 3.82016529,187.949306 4.72214876,183.810972 C5.62413223,179.672639 8.05152893,176.701528 3.89975207,171.369444 C-0.252024793,166.037361 -1.40603306,158.927917 3.55487603,155.081389 C7.33524793,152.097014 13.2379339,156.314931 15.3602479,148.449444 C16.9254545,142.692917 16.394876,129.946319 23.730124,125.701875 C31.0653719,121.457431 35.6681405,127.850625 34.5141322,136.498681 C33.5060331,144.231528 32.0734711,151.672569 33.187686,153.741736 C35.3365289,157.720903 39.0107851,157.177083 38.8383471,164.445694 C38.692438,171.210278 32.2857025,176.807639 32.2857025,176.807639 L7.57400826,191 Z" id="Path" fill="#5BD989"></path>
                <path d="M19.8966942,184.513958 C19.5615699,184.510557 19.2794536,184.262305 19.2334711,183.930347 C17.3366529,168.212639 21.8863636,141.074722 25.6004132,133.010278 C25.6636768,132.829302 25.8021644,132.684555 25.9801742,132.613354 C26.1581841,132.542154 26.3582975,132.551465 26.5289256,132.638889 C26.6888878,132.710914 26.8129405,132.844541 26.8728928,133.009402 C26.9328451,133.174264 26.9236051,133.356359 26.8472727,133.514306 C23.1730165,141.472639 18.7824793,168.690139 20.5997107,183.718125 C20.6385253,184.080305 20.3779562,184.406002 20.0160744,184.447639 L19.8966942,184.513958 Z" id="Path" fill="#FFFFFF"></path>
                <path d="M19.5385537,172.271389 C19.4370527,172.27631 19.3361389,172.253376 19.2467355,172.205069 C14.6439669,169.963472 11.7257851,161.965347 11.606405,161.593958 C11.5179005,161.369355 11.5584394,161.114402 11.7122444,160.928323 C11.8660494,160.742245 12.1088234,160.654437 12.3460818,160.699073 C12.5833402,160.743709 12.7776026,160.913738 12.8532645,161.142986 C12.8532645,161.222569 15.705124,168.968681 19.8303719,170.971528 C20.1090751,171.106497 20.2572788,171.41636 20.1874153,171.718031 C20.1175517,172.019701 19.8482183,172.232875 19.5385537,172.231597 L19.5385537,172.271389 Z" id="Path" fill="#FFFFFF"></path>
                <path d="M19.4589669,177.576944 C19.1867616,177.577186 18.9432402,177.407787 18.8488017,177.1525 C18.711425,176.815533 18.8712392,176.430812 19.2069421,176.290347 C26.9533884,173.186597 31.7816529,163.968194 31.8347107,163.862083 C32.0032032,163.536101 32.4040656,163.408425 32.730062,163.57691 C33.0560583,163.745395 33.1837404,164.14624 33.0152479,164.472222 C32.8030165,164.870139 27.9084298,174.234444 19.7507851,177.523889 C19.6598934,177.566998 19.5592166,177.585302 19.4589669,177.576944 Z" id="Path" fill="#FFFFFF"></path>
                <path d="M290.226446,106.217222 C290.226446,106.217222 284.429876,96.8263889 283.859504,86.6264583 C283.289132,76.4265278 285.530826,72.1820833 288.608182,70.9618056 C291.685537,69.7415278 291.924298,73.4952083 293.502769,75.7102778 C295.08124,77.9253472 298.304504,76.6652778 299.498306,69.7547917 C300.692107,62.8443056 305.042851,51.1853472 314.089215,48.9172222 C324.037562,46.4501389 318.705248,58.1223611 316.198264,62.671875 C313.691281,67.2213889 311.754669,73.4288889 313.399463,75.1134028 C315.044256,76.7979167 317.604298,73.6809028 320.031694,76.5724306 C322.989669,80.0608333 313.797397,92.6217361 308.51814,95.6591667 L290.226446,106.217222 Z" id="Path" fill="#5BD989"></path>
                <path d="M298.17186,102.277847 L298.17186,102.277847 C297.995913,102.270951 297.829931,102.194373 297.710498,102.064993 C297.591066,101.935614 297.527987,101.764053 297.535165,101.588125 C298.433395,85.1801727 303.550407,69.2815745 312.391364,55.4297917 C312.492583,55.2839585 312.64905,55.1858715 312.824422,55.1583144 C312.999793,55.1307573 313.178805,55.1761284 313.319876,55.2838889 C313.608974,55.4987259 313.673749,55.9050219 313.465785,56.1990972 C304.782862,69.8482476 299.758139,85.501864 298.874876,101.654444 C298.864633,101.83045 298.784727,101.995134 298.652813,102.11211 C298.520899,102.229085 298.347835,102.288723 298.17186,102.277847 L298.17186,102.277847 Z" id="Path" fill="#FFFFFF"></path>
                <path d="M298.927934,94.4388889 C298.817026,94.4378438 298.707939,94.4105732 298.609587,94.3593056 C294.895537,92.3034028 292.839545,86.2020139 292.759959,85.95 C292.700857,85.7829452 292.711071,85.5991871 292.788321,85.43971 C292.865571,85.2802329 293.003432,85.1583017 293.171157,85.1011111 C293.519109,84.9878432 293.893058,85.1777774 294.006818,85.5255556 C294.006818,85.5255556 295.996488,91.4014583 299.312603,93.1920833 C299.624791,93.3765877 299.735957,93.7744291 299.564628,94.0940278 C299.442016,94.3274986 299.190478,94.4637426 298.927934,94.4388889 Z" id="Path" fill="#FFFFFF"></path>
                <path d="M299.577893,90.4199306 C299.275584,90.4166694 299.013739,90.2093849 298.941198,89.9159028 C298.897199,89.74696 298.923019,89.5674201 299.012843,89.4177209 C299.102666,89.2680216 299.24894,89.160751 299.418719,89.1200694 C308.995661,86.6927778 312.311777,81.6790278 312.338306,81.6259722 C312.466257,81.4245762 312.691937,81.3067367 312.930334,81.316843 C313.168732,81.3269492 313.383628,81.4634657 313.494074,81.674968 C313.60452,81.8864703 313.593736,82.1408262 313.465785,82.3422222 C313.319876,82.5677083 309.871116,87.8334722 299.750331,90.4066667 L299.577893,90.4199306 Z" id="Path" fill="#FFFFFF"></path>
                <path d="M145.909091,85.6051389 C145.909091,85.6051389 133.188471,82.5013889 132.525248,58.6794444 C131.822231,32.9740278 135.642397,2.97111111 120.587231,0.543819444 C105.532066,-1.88347222 97.1754545,16.4604861 97.361157,37.8816667 C97.533595,56.6368056 105.094339,97.3569444 145.856033,105.341806 L145.909091,85.6051389 Z" id="Path" fill="#5BD989"></path>
                <path d="M145.909091,85.6051389 C145.909091,85.6051389 133.188471,82.5013889 132.525248,58.6794444 C131.822231,32.9740278 135.642397,2.97111111 120.587231,0.543819444 C105.532066,-1.88347222 97.1754545,16.4604861 97.361157,37.8816667 C97.533595,56.6368056 105.094339,97.3569444 145.856033,105.341806 L145.909091,85.6051389 Z" id="Path" fill="#000000" opacity="0.2"></path>
                <path d="M145.909091,102.901345 L145.789711,102.901345 C136.623967,101.23 129.156074,96.1764583 123.598264,87.8997917 C107.123802,63.3218056 112.310207,17.42875 114.021322,9.41736111 C114.100841,9.06268668 114.446441,8.83424915 114.803926,8.90006944 C115.160513,8.98565612 115.387786,9.33529166 115.32124,9.69590278 C113.636653,17.6542361 108.476777,62.9636806 124.699215,87.1570139 C129.473505,94.7426448 137.211038,99.9777641 146.028471,101.588125 C146.203311,101.620213 146.357951,101.72114 146.457703,101.868267 C146.557454,102.015394 146.593967,102.196405 146.55905,102.370694 C146.500848,102.68242 146.226171,102.906636 145.909091,102.901345 Z" id="Path" fill="#FFFFFF"></path>
                <path d="M145.909091,164.034514 C132.764008,165.811875 111.421488,165.785347 99.0988017,156.076181 C86.7761157,146.367014 89.3494215,138.010764 94.0848347,134.522361 C98.8202479,131.033958 102.932231,127.054792 94.7878512,119.308681 C86.6434711,111.562569 73.5647107,99.1210417 69.3200826,80.45875 C65.0754545,61.7964583 67.1712397,50.1242361 75.5013223,46.2379167 C83.5793802,42.4709722 85.7149587,48.46625 90.6626033,60.8281944 C95.6102479,73.1901389 106.739132,62.5922917 116.263017,66.4520833 C125.786901,70.311875 125.402231,77.951875 125.999132,84.5175 C126.596033,91.083125 129.739711,92.9002778 135.138347,92.9002778 C140.536983,92.9002778 145.909091,96.0040278 145.909091,102.185 L145.909091,164.034514 Z" id="Path" fill="#5BD989"></path>
                <path d="M145.909091,142.361319 C145.852302,142.373922 145.793441,142.373922 145.736653,142.361319 C145.166281,142.202153 131.570207,138.249514 111.766364,120.064722 C90.6758678,100.699444 80.7275207,71.6515278 80.621405,71.3597222 C80.5157408,71.012414 80.7030702,70.6436252 81.0458678,70.5240972 C81.3899963,70.4096339 81.762254,70.5928004 81.8815289,70.9352778 C81.9743802,71.2270833 91.829876,99.9566667 112.668347,119.083194 C132.193636,137.029236 145.948884,141.048194 146.094793,141.087986 C146.263655,141.137235 146.406036,141.251545 146.490613,141.405767 C146.575191,141.55999 146.595036,141.741493 146.545785,141.910347 C146.457424,142.1855 146.197986,142.36926 145.909091,142.361319 Z" id="Path" fill="#FFFFFF"></path>
                <path d="M117.297645,124.680632 C117.024205,124.684789 116.778604,124.513944 116.687479,124.256111 C112.429587,113.326667 111.461281,89.9424306 111.381694,88.9476389 C111.373936,88.5839406 111.655217,88.2792328 112.018388,88.2579167 C112.377073,88.2630884 112.674336,88.5374731 112.70814,88.8945833 C112.70814,89.1333333 113.702975,113.048125 117.881281,123.778611 C117.945825,123.943862 117.941467,124.128082 117.869181,124.290096 C117.796894,124.45211 117.662707,124.578409 117.496612,124.640764 C117.432614,124.663763 117.365566,124.677172 117.297645,124.680632 Z" id="Path" fill="#FFFFFF"></path>
                <path d="M117.191529,140.398264 C115.96862,140.407866 114.746198,140.345862 113.530537,140.212569 C113.29359,140.184137 113.089812,140.03146 112.995962,139.812051 C112.902113,139.592642 112.932451,139.339833 113.075549,139.148857 C113.218647,138.95788 113.452764,138.857748 113.689711,138.886181 C113.809091,138.886181 126.158306,140.292153 131.822231,134.522361 C131.982999,134.332048 132.236864,134.247882 132.47949,134.304453 C132.722117,134.361024 132.912573,134.548789 132.972582,134.790578 C133.032591,135.032367 132.95203,135.28739 132.764008,135.450833 C128.665289,139.682014 121.515744,140.398264 117.191529,140.398264 Z" id="Path" fill="#FFFFFF"></path>
            </g>
            <g id="freepik--Gear--inject-81" transform="translate(98.000000, 182.000000)" fill-rule="nonzero">
                <path d="M107.892614,68.6533333 L106.456705,60.3466667 L99.0644318,65.2266667 C98.3889852,63.8934093 97.4316087,62.7239934 96.2590909,61.8 L99.7956818,52.2 L93.1479545,50.72 L88.2818182,60.0533333 C86.5213009,60.3511883 84.8143395,60.9083176 83.21625,61.7066667 L81.1022727,54.6666667 L73.2047727,60.8933333 L73.7232955,69.16 C72.1150416,70.9666515 70.6565601,72.9019696 69.3623864,74.9466667 L62.8476136,74.6133333 L58.2739773,84.8933333 L63.8713636,87.2933333 C63.2870145,89.4196538 62.9173145,91.5995043 62.7678409,93.8 L55.6547727,100.36 L57.0773864,108.68 L64.4829545,103.8 C65.1545333,105.13204 66.1127142,106.297885 67.2882955,107.213333 L63.8181818,116.826667 L70.4659091,118.293333 L77.4327273,111.493333 C79.0414773,111.24 78.6426136,108.2 80.3976136,107.333333 L82.5115909,114.346667 L90.3957955,108.133333 L90.1963636,104.88 C91.7918182,103.093333 97.8279545,99.16 99.1309091,97.1066667 L100.76625,94.44 L105.339886,84.16 L103.212614,80.2933333 L100.846023,75.2533333 L107.892614,68.6533333 Z M83.7613636,96 C77.6986364,100.773333 75.7840909,101.826667 74.7603409,95.44 C73.7365909,89.0533333 77.2067045,79.3466667 83.2694318,74.56 C89.3321591,69.7733333 91.6455682,69.44 92.7357955,75.8133333 C93.8260227,82.1866667 89.8373864,91.28 83.7613636,96 Z" id="Shape" fill="#E0E0E0"></path>
                <polygon id="Path" fill="#F5F5F5" points="93.2011364 50.72 101.829886 55.7066667 96.96375 65.0133333 88.335 60.0266667"></polygon>
                <polygon id="Path" fill="#F5F5F5" points="115.085455 65.3333333 107.693182 70.2133333 99.0644318 65.2266667 106.456705 60.3466667"></polygon>
                <polygon id="Path" fill="#E0E0E0" points="113.902159 89.1066667 108.304773 86.72 99.6760227 81.7333333 105.273409 84.12"></polygon>
                <polygon id="Path" fill="#E0E0E0" points="63.8048864 116.826667 72.4336364 121.8 75.9702273 112.2 67.3414773 107.213333"></polygon>
                <polygon id="Path" fill="#E0E0E0" points="91.0605682 119.333333 82.4451136 114.346667 80.3311364 107.333333 88.9598864 112.32"></polygon>
                <path d="M116.508068,73.64 L115.085455,65.3333333 L107.693182,70.2133333 C107.012809,68.8794666 106.050985,67.7101604 104.874545,66.7866667 L108.411136,57.1866667 L101.829886,55.7066667 L96.9504545,65.04 C95.1899373,65.337855 93.4829759,65.8949842 91.8848864,66.6933333 L89.7842045,59.68 L81.8867045,65.9066667 L82.4052273,74.1733333 C80.7952104,75.9927412 79.336686,77.9414944 78.0443182,80 L71.51625,79.6666667 L66.9426136,89.9466667 L72.54,92.3466667 C71.9609392,94.4786923 71.5913366,96.6624344 71.4364773,98.8666667 L64.3367045,105.333333 L65.7593182,113.653333 L73.1515909,108.773333 C73.8321373,110.103332 74.794092,111.268247 75.9702273,112.186667 L72.4336364,121.786667 L79.0813636,123.266667 L83.9475,113.933333 C85.7148206,113.638804 87.4272959,113.076842 89.0263636,112.266667 L91.1270455,119.28 L99.0245455,113.066667 L98.5060227,104.8 C100.114277,102.993348 101.572758,101.05803 102.866932,99.0133333 L109.395,99.3333333 L113.968636,89.0533333 L108.291477,86.6666667 C108.880059,84.5362174 109.254202,82.3519644 109.408295,80.1466667 L116.508068,73.64 Z M92.4034091,101.04 C86.3539773,105.813333 80.5571591,104.52 79.4536364,98.1466667 C78.3501136,91.7733333 82.3786364,82.72 88.4413636,77.9466667 C94.5040909,73.1733333 100.287614,74.48 101.391136,80.8533333 C102.494659,87.2266667 98.4661364,96.2666667 92.4034091,101.04 Z" id="Shape" fill="#EBEBEB"></path>
                <polygon id="Path" fill="#F5F5F5" points="89.7842045 59.6533333 81.1554545 54.6666667 73.2579545 60.8933333 81.8867045 65.88"></polygon>
                <polygon id="Path" fill="#E0E0E0" points="73.2579545 60.8933333 73.7764773 69.16 82.4052273 74.1466667 81.8867045 65.88"></polygon>
                <polygon id="Path" fill="#F5F5F5" points="78.0443182 79.9333333 69.4155682 74.9466667 62.9007955 74.6266667 71.51625 79.6133333"></polygon>
                <polygon id="Path" fill="#E0E0E0" points="62.9007955 74.6266667 58.3271591 84.8933333 66.9426136 89.88 71.51625 79.6133333"></polygon>
                <polygon id="Path" fill="#F5F5F5" points="71.4364773 98.7866667 62.8210227 93.8 55.7079545 100.36 64.3234091 105.346667"></polygon>
                <polygon id="Path" fill="#E0E0E0" points="65.7593182 113.666667 57.1305682 108.68 55.7079545 100.36 64.3234091 105.346667"></polygon>
                <polygon id="Path" fill="#F5F5F5" points="101.829886 55.7066667 93.2011364 50.72 99.7956818 52.2 108.411136 57.1866667"></polygon>
                <path d="M69.2560227,30.9466667 L69.2560227,18.5333333 L59.4040909,22.9866667 C58.8822751,20.8805958 57.9811122,18.8878707 56.745,17.1066667 L62.9539773,4.56 L55.3755682,0.173333333 L47.6376136,11.84 C45.4812213,11.6510736 43.3085821,11.8635321 41.2292045,12.4666667 L40.1389773,1.68 L29.4228409,7.89333333 L28.3459091,19.8933333 C26.0137151,21.9657574 23.869195,24.2413201 21.9375,26.6933333 L14.1995455,24.0266667 L6.62113636,37.2 L12.8168182,42.5333333 C11.6720014,45.4366586 10.7822563,48.4347194 10.1577273,51.4933333 L0.305795455,58.44 L0.305795455,70.8666667 L10.1577273,66.4133333 C10.6795431,68.5194042 11.5807059,70.5121293 12.8168182,72.2933333 L6.64772727,84.8533333 L14.2261364,89.24 L21.9640909,77.5733333 C24.1204801,77.7616452 26.2930071,77.5491977 28.3725,76.9466667 L29.4494318,87.7333333 L40.1655682,81.52 L41.2557955,69.52 C44.6004771,68.2961813 47.5633994,66.2079473 49.8446591,63.4666667 L55.4021591,65.4266667 L62.9805682,52.2666667 L58.3271591,48.2666667 C59.3373392,44.9311331 59.7117121,41.4345708 59.4306818,37.96 L69.2560227,30.9466667 Z M34.7809091,61.96 C26.5643182,66.72 21.4854545,63.2933333 21.4854545,53.8133333 C21.4854545,44.3333333 28.2794318,32.6133333 36.5093182,27.8533333 C44.7392045,23.0933333 49.7117045,26.52 49.7117045,36.08 C49.7117045,45.64 43.0107955,57.1866667 34.7809091,61.96 Z" id="Shape" fill="#E0E0E0"></path>
                <polygon id="Path" fill="#F5F5F5" points="63.9910227 5.14666667 55.3755682 0.173333333 47.6376136 11.84 56.2530682 16.8266667"></polygon>
                <polygon id="Path" fill="#F5F5F5" points="77.8847727 23.52 69.2560227 18.5333333 59.4040909 22.9866667 68.0328409 27.9733333"></polygon>
                <polygon id="Path" fill="#E0E0E0" points="38.0382955 92.72 29.4228409 87.7333333 28.3459091 76.9466667 36.9613636 81.9333333"></polygon>
                <polygon id="Path" fill="#E0E0E0" points="6.60784091 84.8533333 15.2365909 89.84 21.4455682 77.2933333 12.8168182 72.3066667"></polygon>
                <path d="M77.8847727,36 L77.8847727,23.5866667 L68.0328409,28 C67.516485,25.8920292 66.6148846,23.8983365 65.37375,22.12 L71.5827273,9.57333333 L64.0043182,5.17333333 L56.2663636,16.8533333 C54.1099433,16.6578374 51.9360941,16.8704142 49.8579545,17.48 L48.7677273,6.66666667 L38.0515909,12.88 L36.9613636,24.88 C34.6325097,26.9558803 32.4882788,29.231136 30.5529545,31.68 L22.815,29.0133333 L15.2365909,42.1866667 L21.4455682,47.52 C20.2947163,50.4212289 19.4048103,53.4198318 18.7864773,56.48 L8.93454545,63.4266667 L8.93454545,75.8533333 L18.7864773,71.4 C19.3025413,73.5080721 20.2041652,75.501817 21.4455682,77.28 L15.2365909,89.8266667 L22.815,94.2133333 L30.5529545,82.5466667 C32.7093468,82.735593 34.8819861,82.5231346 36.9613636,81.92 L38.0515909,92.7066667 L48.7677273,86.4933333 L49.8446591,74.4933333 C52.1768531,72.4209093 54.3213732,70.1453466 56.2530682,67.6933333 L63.9910227,70.36 L71.5694318,57.2 L65.3604545,51.8666667 C66.5109712,48.9653211 67.4008681,45.9667487 68.0195455,42.9066667 L77.8847727,36 Z M43.4096591,67.0133333 C35.1797727,71.7733333 28.5054545,67.9066667 28.5054545,58.3866667 C28.5054545,48.8666667 35.1531818,37.28 43.4096591,32.5066667 C51.6661364,27.7333333 58.3005682,31.6133333 58.3005682,41.1333333 C58.3005682,50.6533333 51.62625,62.1733333 43.4096591,66.9466667 L43.4096591,67.0133333 Z" id="Shape" fill="#EBEBEB"></path>
                <polygon id="Path" fill="#F0F0F0" points="21.9375 26.72 30.5529545 31.7066667 22.815 29 14.1995455 24"></polygon>
                <polygon id="Rectangle" fill="#F5F5F5" transform="translate(14.721343, 33.097660) rotate(-60.020000) translate(-14.721343, -33.097660) " points="7.12621279 28.1243236 22.3287543 28.1056165 22.3164741 38.0709962 7.11393265 38.0897033"></polygon>
                <polygon id="Path" fill="#E0E0E0" points="6.60784091 37.1733333 15.2365909 42.16 21.4455682 47.52 12.8168182 42.5466667"></polygon>
                <polygon id="Path" fill="#F5F5F5" points="10.1577273 51.5066667 18.7864773 56.4933333 8.93454545 63.44 0.305795455 58.4533333"></polygon>
                <polygon id="Path" fill="#E0E0E0" points="0.305795455 58.4533333 8.93454545 63.44 8.93454545 75.8666667 0.305795455 70.88"></polygon>
                <polygon id="Path" fill="#F5F5F5" points="48.7677273 6.66666667 40.1389773 1.68 29.4228409 7.89333333 38.0382955 12.88"></polygon>
            </g>
            <g id="freepik--Device--inject-81" transform="translate(240.000000, 182.000000)">
                <path d="M17.3938211,361.736813 L141.962927,289.562308 C142.525384,289.363899 142.901743,288.830852 142.901743,288.232637 C142.901743,287.634423 142.525384,287.101376 141.962927,286.902967 L130.446911,280.254615 C129.000486,279.524356 127.29488,279.524356 125.848455,280.254615 L1.2395935,352.362637 C0.677135881,352.561046 0.300776995,353.094093 0.300776995,353.692308 C0.300776995,354.290522 0.677135881,354.823569 1.2395935,355.021978 L12.7953659,361.67033 C14.2312824,362.421586 15.9369279,362.446246 17.3938211,361.736813 L17.3938211,361.736813 Z" id="Path" fill="#E0E0E0" fill-rule="nonzero"></path>
                <path d="M138.543902,10.9032967 L26.2196748,75.9773626 C22.8332062,78.1948742 20.7021774,81.8984749 20.4815447,85.9498901 L20.4815447,353.306703 C20.4815447,356.976593 23.052439,358.465824 26.2196748,356.630879 L138.543902,291.556813 C141.935178,289.343872 144.067748,285.637593 144.282033,281.584286 L144.282033,14.2274725 C144.282033,10.5575824 141.72439,9.06835165 138.543902,10.9032967 Z" id="Path" fill="#455A64" fill-rule="nonzero"></path>
                <path d="M26.2196748,75.9773626 L138.543902,10.9032967 C141.379837,9.25450549 143.725447,10.2783516 144.20252,13.1371429 C143.666606,9.50161692 141.607404,6.26933671 138.543902,4.25494505 L133.879187,1.5956044 C130.272587,-0.240402667 126.009527,-0.240402667 122.402927,1.5956044 L10.0654472,66.6164835 C8.3735114,67.6809765 6.97830393,69.1586598 6.0103252,70.9113187 L22.1645528,80.219011 C23.13218,78.4802018 24.5284419,77.0197149 26.2196748,75.9773626 L26.2196748,75.9773626 Z" id="Path" fill="#37474F" fill-rule="nonzero"></path>
                <path d="M4.30081301,343.945824 C4.52144573,347.997239 6.65247446,351.70084 10.0389431,353.918352 L14.7169106,356.577692 C17.9915998,358.22138 21.809487,358.385832 25.2125203,357.02978 C22.5621138,358.066923 20.4550407,356.537802 20.4550407,353.253516 L20.4550407,85.9498901 C20.5214244,83.9438148 21.1009982,81.9886004 22.1380488,80.2721978 L5.98382114,70.9645055 C4.96126879,72.667911 4.38248575,74.6021669 4.30081301,76.589011 L4.30081301,343.945824 Z" id="Path" fill="#263238" fill-rule="nonzero"></path>
                <path d="M29.3073984,111.599231 L135.495935,50.101978 C137.404228,49.0116484 138.941463,49.9025275 138.941463,52.0964835 L138.941463,249.978022 C138.812295,252.410501 137.53171,254.634368 135.495935,255.961538 L29.3471545,317.458791 C27.4388618,318.562418 25.901626,317.671538 25.901626,315.464286 L25.901626,117.582747 C26.0239074,115.158287 27.2883689,112.936786 29.3073984,111.599231 Z" id="Path" fill="#FFFFFF" fill-rule="nonzero"></path>
                <path d="M82.3817886,53.5724176 C81.1930998,54.3553925 80.4455394,55.6581637 80.3674797,57.0827473 C80.3674797,58.4124176 81.2686179,58.9043956 82.3817886,58.2528571 C83.5752887,57.4744456 84.3243867,56.1689949 84.3960976,54.7425275 C84.3960976,53.4527473 83.4949593,52.9341758 82.3817886,53.5724176 Z" id="Path" fill="#37474F" fill-rule="nonzero"></path>
                <path d="M82.3817886,296.170769 C77.6832695,299.254818 74.730288,304.400449 74.4305691,310.025934 C74.4305691,315.118571 77.9953659,317.192857 82.3817886,314.63989 C87.0787102,311.554328 90.0311823,306.409584 90.3331544,300.784725 C90.3595122,295.692088 86.7814634,293.617802 82.3817886,296.170769 Z" id="Path" fill="#37474F" fill-rule="nonzero"></path>
                <path d="M63.3121138,74.1557143 C60.9501306,75.7289146 59.4742836,78.3351613 59.3365041,81.1763736 C59.3365041,83.7559341 61.1387805,84.8063736 63.3121138,83.5165934 C65.6993281,81.9581421 67.2011817,79.3494478 67.3539837,76.4959341 C67.3539837,73.9163736 65.5517073,72.8659341 63.3121138,74.1557143 Z" id="Path" fill="#37474F" fill-rule="nonzero"></path>
                <path d="M73.2113821,73.2781319 C73.2113821,75.0067033 74.5365854,75.6582418 76.0870732,74.7407692 L102.591138,59.3564835 C104.256351,58.3130104 105.32485,56.5344102 105.466829,54.5696703 C105.466829,52.8543956 104.141626,52.2028571 102.591138,53.1203297 L76.0870732,68.5046154 C74.4254592,69.5453786 73.3574618,71.3182057 73.2113821,73.2781319 Z" id="Path" fill="#37474F" fill-rule="nonzero"></path>
                <path d="M13.259187,120.162308 C15.1665399,121.408894 16.3675179,123.492997 16.4926829,125.773516 C16.4926829,127.847802 15.0482114,128.685495 13.259187,127.648352 C11.3584756,126.3973 10.1632086,124.314572 10.0389431,122.037143 C10.0389431,119.976154 11.4834146,119.138462 13.259187,120.162308 Z" id="Path" fill="#37474F" fill-rule="nonzero"></path>
                <path d="M13.259187,145.133516 C15.1665399,146.380103 16.3675179,148.464206 16.4926829,150.744725 C16.4926829,152.805714 15.0482114,153.643407 13.259187,152.61956 C11.3584756,151.368509 10.1632086,149.285781 10.0389431,147.008352 C10.0389431,144.934066 11.4834146,144.096374 13.259187,145.133516 Z" id="Path" fill="#37474F" fill-rule="nonzero"></path>
                <path d="M12.2520325,120.667582 C14.1593854,121.914169 15.3603635,123.998272 15.4855285,126.278791 C15.4855285,128.33978 14.0410569,129.177473 12.2520325,128.153626 C10.3446797,126.90704 9.14370157,124.822937 9.01853659,122.542418 C9.03178862,120.468132 10.4762602,119.67033 12.2520325,120.667582 Z" id="Path" fill="#455A64" fill-rule="nonzero"></path>
                <path d="M12.2520325,145.625495 C14.163031,146.874803 15.3645003,148.964699 15.4855285,151.25 C15.4855285,153.310989 14.0410569,154.148681 12.2520325,153.111538 C10.3398579,151.869546 9.13732778,149.78275 9.01853659,147.50033 C9.03178862,145.439341 10.4762602,144.601648 12.2520325,145.625495 Z" id="Path" fill="#455A64" fill-rule="nonzero"></path>
                <path d="M160.43626,58.3592308 C160.43626,56.151978 158.899024,55.2610989 156.990732,56.3647253 L144.282033,63.7178022 L50.8419512,117.861978 C48.8061757,119.189149 47.5255917,121.413015 47.3964228,123.845495 L47.3964228,321.673846 C47.3964228,323.881099 48.9336585,324.771978 50.8419512,323.668352 L144.321789,269.510879 L156.990732,262.171099 C159.026507,260.843928 160.307091,258.620061 160.43626,256.187582 L160.43626,58.3592308 Z" id="Path" fill="#FFFFFF" fill-rule="nonzero"></path>
                <path d="M161.761463,58.3592308 C161.931982,56.9959501 161.272171,55.6627785 160.08663,54.975168 C158.901089,54.2875575 157.420406,54.3792484 156.32813,55.2079121 L144.20252,62.2418681 L144.20252,62.2418681 L50.1793496,116.758352 C47.7219058,118.314706 46.1855113,120.985109 46.0712195,123.898681 L46.0712195,321.673846 C45.9628407,323.026391 46.6044104,324.329183 47.7409756,325.064505 C48.2154826,325.34126 48.75591,325.483715 49.3047154,325.47695 C50.081542,325.452372 50.8390803,325.228008 51.5045528,324.825165 L145.593984,270.308681 L145.593984,270.308681 L157.693089,263.301319 C160.135421,261.730439 161.666835,259.068694 161.80122,256.160989 L161.761463,58.3592308 Z M144.229024,268.034945 L144.229024,268.034945 L143.142358,268.673187 L143.142358,268.673187 L50.2323577,322.498242 C49.9160972,322.742024 49.5072338,322.829933 49.119187,322.737582 C48.9469106,322.631209 48.7746341,322.258901 48.7746341,321.647253 L48.7746341,123.845495 C48.9136827,121.889389 49.9394417,120.105413 51.557561,119.005495 L144.374797,65.1538462 L144.374797,65.1538462 L157.626829,57.4550549 C157.94309,57.2112731 158.351953,57.1233641 158.74,57.2157143 C158.912276,57.3220879 159.084553,57.6943956 159.084553,58.306044 L159.084553,256.187582 C158.945504,258.143688 157.919745,259.927663 156.301626,261.027582 L144.20252,268.034945 L144.229024,268.034945 Z" id="Shape" fill="#5BD989" fill-rule="nonzero"></path>
                <path d="M103.916341,135.854422 C110.562495,132.150589 115.916341,135.139397 115.916341,142.568513 C115.916341,149.99763 110.540341,159.014104 103.916341,162.689336 C97.2923415,166.364568 91.9163415,163.404362 91.9163415,155.982395 C91.9163415,148.560429 97.2923415,139.565406 103.916341,135.854422 Z" id="Path" fill="#5BD989" fill-rule="nonzero"></path>
                <path d="M103.916341,141.796909 C106.12507,140.55906 107.916341,141.561128 107.916341,144.007354 C107.764147,146.740575 106.27829,149.23946 103.916341,150.734475 C101.707613,151.972324 99.9163415,150.970256 99.9163415,148.52403 C100.068535,145.79081 101.554393,143.291924 103.916341,141.796909 Z" id="Path" fill="#5BD989" fill-rule="nonzero"></path>
                <path d="M110.916341,154.628739 C110.916341,150.73269 108.250003,149.151685 104.949806,151.099709 L102.882877,152.320754 C99.5895698,154.268778 96.9163415,159.011793 96.9163415,162.907842 L96.9163415,163.959492 C98.824806,164.601776 101.222444,164.255931 103.806105,162.710216 C106.668205,160.90165 109.088531,158.446346 110.881893,155.53217 L110.916341,154.628739 Z" id="Path" fill="#5BD989" fill-rule="nonzero"></path>
                <path d="M103.916341,141.796909 C106.12507,140.55906 107.916341,141.561128 107.916341,144.007354 C107.764147,146.740575 106.27829,149.23946 103.916341,150.734475 C101.707613,151.972324 99.9163415,150.970256 99.9163415,148.52403 C100.068535,145.79081 101.554393,143.291924 103.916341,141.796909 Z" id="Path" fill="#FFFFFF" fill-rule="nonzero" opacity="0.7"></path>
                <path d="M110.916341,154.628739 C110.916341,150.73269 108.250003,149.151685 104.949806,151.099709 L102.882877,152.320754 C99.5895698,154.268778 96.9163415,159.011793 96.9163415,162.907842 L96.9163415,163.959492 C98.824806,164.601776 101.222444,164.255931 103.806105,162.710216 C106.668205,160.90165 109.088531,158.446346 110.881893,155.53217 L110.916341,154.628739 Z" id="Path" fill="#FFFFFF" fill-rule="nonzero" opacity="0.7"></path>
                <g id="logo" transform="translate(56.000000, 81.000000)">
                    <g id="Group-3" transform="translate(0.000000, 47.517600)">
                        <mask id="mask-2" fill="white">
                            <use xlink:href="#path-1"></use>
                        </mask>
                        <g id="Clip-2"></g>
                        <path d="M1.8427,9.8394 L0.1317,10.8274 L-0.0003,10.3774 L4.9217,1.2444 L5.5277,0.8954 L5.5277,4.8694 L8.7127,3.0304 C8.7647,3.2634 8.7997,3.4804 8.8177,3.6804 C8.8347,3.8814 8.8437,4.0954 8.8437,4.3234 C8.8437,4.5694 8.8347,4.8114 8.8177,5.0484 C8.7997,5.2874 8.7647,5.5624 8.7127,5.8734 L5.5277,7.7124 L5.5277,13.0544 C5.5277,13.5994 5.5717,14.0124 5.6587,14.2954 C5.7467,14.5774 5.8737,14.7674 6.0407,14.8644 C6.2067,14.9614 6.4137,14.9744 6.6587,14.9014 C6.9047,14.8304 7.1947,14.6984 7.5277,14.5064 C7.7907,14.3534 8.0497,14.1824 8.3037,13.9914 C8.5577,13.8014 8.7817,13.6324 8.9757,13.4854 C9.0977,13.7484 9.1857,14.0444 9.2387,14.3734 C9.2917,14.7024 9.3177,15.0084 9.3177,15.2884 C9.3177,15.4824 9.3127,15.6464 9.3047,15.7834 C9.2957,15.9204 9.2817,16.0554 9.2647,16.1874 C8.4577,16.8464 7.6237,17.4244 6.7647,17.9214 C5.1677,18.8424 3.9477,19.1734 3.1057,18.9144 C2.2637,18.6554 1.8427,17.6824 1.8427,15.9984 L1.8427,9.8394 Z" id="Fill-1" fill="#333333" mask="url(#mask-2)"></path>
                    </g>
                    <path d="M18.3457,52.356 C18.1347,52.442 17.9067,52.543 17.6607,52.659 C17.4147,52.775 17.1967,52.888 17.0027,53 C16.1427,53.496 15.4637,54.043 14.9637,54.638 C14.4637,55.234 14.2137,55.874 14.2137,56.558 C14.2137,57.015 14.3087,57.31 14.5027,57.444 C14.6957,57.578 14.9287,57.624 15.1997,57.581 C15.4717,57.538 15.7617,57.44 16.0687,57.29 C16.3757,57.139 16.6427,56.998 16.8717,56.866 C17.1347,56.713 17.3977,56.54 17.6607,56.344 C17.9247,56.148 18.1527,55.977 18.3457,55.831 L18.3457,52.356 Z M18.3457,49.645 C18.3457,49.224 18.2757,48.922 18.1347,48.74 C17.9937,48.558 17.8017,48.463 17.5557,48.456 C17.3097,48.449 17.0077,48.523 16.6477,48.677 C16.2877,48.833 15.8887,49.037 15.4497,49.29 C14.5027,49.837 13.4937,50.604 12.4237,51.59 C12.1777,51.276 11.9927,50.953 11.8707,50.62 C11.7477,50.287 11.6867,49.84 11.6867,49.278 C12.4587,48.569 13.2307,47.931 14.0027,47.362 C14.7747,46.794 15.4937,46.317 16.1607,45.932 C17.9857,44.878 19.4117,44.494 20.4377,44.778 C21.4647,45.063 21.9777,46.171 21.9777,48.101 L21.9777,55.997 C21.3637,56.545 20.6177,57.16 19.7407,57.841 C18.8627,58.523 17.8717,59.184 16.7657,59.822 C15.8717,60.338 15.0507,60.733 14.3047,61.006 C13.5597,61.278 12.9187,61.385 12.3837,61.325 C11.8487,61.266 11.4367,61.03 11.1467,60.618 C10.8577,60.207 10.7127,59.579 10.7127,58.737 C10.7127,57.895 10.8917,57.085 11.2517,56.307 C11.6117,55.529 12.0767,54.804 12.6467,54.132 C13.2177,53.461 13.8537,52.849 14.5547,52.294 C15.2567,51.74 15.9587,51.26 16.6607,50.855 C17.1697,50.561 17.7307,50.263 18.3457,49.961 L18.3457,49.645 Z" id="Fill-4" fill="#333333"></path>
                    <path d="M27.9262,47.1407 C26.9432,47.4277 26.1762,47.4537 25.6232,47.2207 C25.0702,46.9867 24.7942,46.3167 24.7942,45.2117 C24.7942,43.8777 25.2722,42.5577 26.2282,41.2507 C27.1842,39.9447 28.4872,38.8147 30.1372,37.8627 C30.8212,37.4677 31.4962,37.1397 32.1642,36.8767 C32.8302,36.6147 33.5062,36.4097 34.1902,36.2597 C34.1552,36.7367 34.0672,37.2607 33.9272,37.8327 C33.7862,38.4057 33.6202,38.9317 33.4272,39.4117 C33.0062,39.4787 32.5412,39.5937 32.0322,39.7557 C31.5232,39.9177 30.9882,40.1617 30.4262,40.4857 C29.8302,40.8297 29.3642,41.1907 29.0312,41.5677 C28.6982,41.9437 28.5312,42.3337 28.5312,42.7377 C28.5312,43.1237 28.6502,43.3277 28.8862,43.3487 C29.1242,43.3697 29.4612,43.3247 29.9002,43.2107 L31.4002,42.7917 C31.8912,42.6497 32.3352,42.5647 32.7292,42.5377 C33.1242,42.5127 33.4622,42.5667 33.7432,42.7037 C34.0232,42.8397 34.2432,43.0817 34.4012,43.4287 C34.5592,43.7767 34.6372,44.2657 34.6372,44.8977 C34.6372,45.5467 34.5022,46.2307 34.2302,46.9497 C33.9582,47.6677 33.5632,48.3827 33.0452,49.0937 C32.5282,49.8057 31.9012,50.4917 31.1632,51.1547 C30.4262,51.8167 29.5932,52.4167 28.6632,52.9527 C28.2412,53.1967 27.8562,53.4057 27.5052,53.5817 C27.1542,53.7587 26.8162,53.9097 26.4912,54.0357 C26.1672,54.1617 25.8462,54.2717 25.5302,54.3667 C25.2152,54.4617 24.8722,54.5447 24.5042,54.6177 C24.5392,54.1227 24.6232,53.5977 24.7542,53.0387 C24.8862,52.4797 25.0572,51.9117 25.2672,51.3337 C25.8462,51.2277 26.3952,51.0827 26.9122,50.8967 C27.4302,50.7127 27.9692,50.4577 28.5312,50.1337 C28.7772,49.9917 29.0452,49.8157 29.3342,49.6047 C29.6232,49.3937 29.8912,49.1607 30.1372,48.9047 C30.3822,48.6487 30.5892,48.3807 30.7552,48.0997 C30.9222,47.8197 31.0052,47.5297 31.0052,47.2317 C31.0052,46.8097 30.8782,46.5807 30.6242,46.5437 C30.3692,46.5067 30.0142,46.5497 29.5582,46.6717 L27.9262,47.1407 Z" id="Fill-6" fill="#333333"></path>
                    <path d="M41.4018,38.1495 L44.7708,29.7295 C45.4558,29.2295 46.1488,28.7765 46.8508,28.3715 C47.5168,27.9865 48.1668,27.6645 48.7978,27.4045 L45.3238,35.7005 L49.3778,40.6775 C48.6578,41.1985 47.9638,41.6515 47.2978,42.0365 C46.6838,42.3915 46.0348,42.7125 45.3498,43.0035 L41.4018,38.1495 Z M37.1648,28.4885 C37.7608,28.0395 38.3758,27.6315 39.0068,27.2665 C39.6388,26.9025 40.2608,26.5955 40.8758,26.3455 L40.8758,45.5865 C40.2608,46.0465 39.6388,46.4585 39.0068,46.8235 C38.3758,47.1885 37.7608,47.4895 37.1648,47.7295 L37.1648,28.4885 Z" id="Fill-8" fill="#333333"></path>
                    <path d="M55.3515,34.3335 C55.5975,34.2275 55.8825,34.0885 56.2065,33.9185 C56.5315,33.7495 56.8255,33.5875 57.0885,33.4355 C57.4565,33.2235 57.8435,32.9655 58.2475,32.6625 C58.6505,32.3585 59.0275,32.0045 59.3785,31.6005 C59.7295,31.1965 60.0185,30.7485 60.2475,30.2565 C60.4755,29.7655 60.5895,29.2295 60.5895,28.6505 C60.5895,28.1065 60.5015,27.7065 60.3265,27.4475 C60.1505,27.1895 59.9005,27.0435 59.5765,27.0115 C59.2505,26.9795 58.8655,27.0495 58.4175,27.2195 C57.9705,27.3905 57.4745,27.6325 56.9305,27.9465 L55.3515,28.8585 L55.3515,34.3335 Z M56.5095,25.2945 C56.9485,25.0415 57.3555,24.7665 57.7335,24.4695 C58.1105,24.1725 58.4395,23.8425 58.7205,23.4785 C59.0005,23.1155 59.2205,22.7155 59.3785,22.2825 C59.5365,21.8495 59.6155,21.3695 59.6155,20.8435 C59.6155,20.3345 59.5235,19.9705 59.3395,19.7525 C59.1555,19.5345 58.9175,19.4165 58.6285,19.3995 C58.3385,19.3825 58.0145,19.4475 57.6545,19.5935 C57.2945,19.7395 56.9395,19.9145 56.5885,20.1165 C56.0975,20.4005 55.6845,20.6645 55.3515,20.9095 L55.3515,25.9635 L56.5095,25.2945 Z M51.5355,20.4805 C52.0965,20.0695 52.7465,19.6245 53.4825,19.1455 C54.2195,18.6675 55.1415,18.1095 56.2465,17.4715 C57.2115,16.9145 58.1235,16.4665 58.9835,16.1275 C59.8435,15.7895 60.5935,15.6245 61.2345,15.6312863 C61.8745,15.6395 62.3795,15.8525 62.7475,16.2715 C63.1165,16.6895 63.3005,17.3735 63.3005,18.3205 C63.3005,18.8825 63.2175,19.4525 63.0505,20.0315 C62.8835,20.6105 62.6595,21.1605 62.3795,21.6825 C62.0985,22.2045 61.7825,22.6845 61.4315,23.1245 C61.0805,23.5635 60.7215,23.9165 60.3525,24.1815 C60.7565,24.0005 61.2035,23.8655 61.6945,23.7745 C62.1855,23.6855 62.6425,23.7065 63.0635,23.8405 C63.4845,23.9745 63.8355,24.2585 64.1165,24.6935 C64.3965,25.1275 64.5375,25.7665 64.5375,26.6085 C64.5375,27.7495 64.3225,28.8075 63.8935,29.7835 C63.4625,30.7605 62.8835,31.6695 62.1555,32.5105 C61.4275,33.3525 60.5845,34.1275 59.6285,34.8385 C58.6725,35.5485 57.6675,36.2075 56.6155,36.8145 C55.8075,37.2815 55.0095,37.7195 54.2195,38.1325 C53.4305,38.5435 52.5355,38.9775 51.5355,39.4325 L51.5355,20.4805 Z" id="Fill-10" fill="#333333"></path>
                    <g id="Group-14" transform="translate(81.000000, 0.517600)">
                        <mask id="mask-4" fill="white">
                            <use xlink:href="#path-3"></use>
                        </mask>
                        <g id="Clip-13"></g>
                        <path d="M7.478,10.6367 L9.583,2.7617 C10.233,2.2827 10.909,1.8387 11.611,1.4337 C12.259,1.0587 12.901,0.7417 13.532,0.4827 L10.9,8.5817 L14.032,13.8017 C13.348,14.3017 12.699,14.7297 12.084,15.0837 C11.47,15.4387 10.847,15.7457 10.215,16.0047 L7.478,10.6367 Z M3.873,12.6397 L1.267,7.5637 C1.846,7.1247 2.486,6.7017 3.188,6.2967 C3.855,5.9117 4.531,5.5747 5.214,5.2847 L7.294,10.7427 L4.583,19.2567 C3.952,19.7267 3.329,20.1387 2.714,20.4937 C2.1,20.8487 1.451,21.1707 0.767,21.4607 L3.873,12.6397 Z" id="Fill-12" fill="#333333" mask="url(#mask-4)"></path>
                    </g>
                    <path d="M77.0156,21.5889 L69.6726,25.8289 L69.6726,18.4849 L74.6156,15.6309 L78.6006,10.0989 C78.4436,10.1539 78.2806,10.2249 78.1126,10.3219 L68.5756,15.8279 C67.3646,16.5269 66.3816,18.0769 66.3816,19.2879 L66.3816,28.8249 C66.3816,30.0359 67.3646,30.4509 68.5756,29.7519 L78.1126,24.2459 C79.3236,23.5469 80.3056,21.9969 80.3056,20.7859 L80.3056,12.9429 L77.0156,18.9959 L77.0156,21.5889 Z" id="Fill-15" fill="#333333"></path>
                    <polygon id="Fill-17" fill="#6AE59E" points="79.9809 10.3018 77.0159 14.4168 73.3079 19.5648 72.1539 18.5038 70.3309 20.7758 73.1829 23.3988 77.0159 16.3468 80.1589 10.5628 81.2859 8.4898"></polygon>
                </g>
                <path d="M62.2519512,195.611429 L89.9619512,179.562308 C91.2871545,178.830989 92.2545528,179.416044 92.2545528,180.891978 L92.2545528,181.809451 C92.1694377,183.430279 91.3174516,184.912692 89.9619512,185.798462 L62.2519512,201.847582 C60.9930081,202.578901 59.9593496,201.980549 59.9593496,200.517912 L59.9593496,199.60044 C60.0465811,197.980241 60.8980539,196.498721 62.2519512,195.611429 L62.2519512,195.611429 Z" id="Path" fill="#5BD989" fill-rule="nonzero"></path>
                <path d="M62.2519512,195.611429 L89.9619512,179.562308 C91.2871545,178.830989 92.2545528,179.416044 92.2545528,180.891978 L92.2545528,181.809451 C92.1694377,183.430279 91.3174516,184.912692 89.9619512,185.798462 L62.2519512,201.847582 C60.9930081,202.578901 59.9593496,201.980549 59.9593496,200.517912 L59.9593496,199.60044 C60.0465811,197.980241 60.8980539,196.498721 62.2519512,195.611429 L62.2519512,195.611429 Z" id="Path" fill="#000000" fill-rule="nonzero" opacity="0.1"></path>
                <path d="M61.1122764,208.984725 L144.944634,160.425165 C145.56748,160.052857 146.084309,160.345385 146.084309,161.09 L146.084309,170.902967 C146.037021,171.710298 145.615123,172.448648 144.944634,172.897473 L61.1122764,221.457033 C60.4761789,221.829341 59.9593496,221.523516 59.9593496,220.792198 L59.9593496,210.979231 C60.0055176,210.168214 60.4336006,209.427651 61.1122764,208.984725 L61.1122764,208.984725 Z" id="Path" fill="#5BD989" fill-rule="nonzero"></path>
                <path d="M61.1122764,208.984725 L144.944634,160.425165 C145.56748,160.052857 146.084309,160.345385 146.084309,161.09 L146.084309,170.902967 C146.037021,171.710298 145.615123,172.448648 144.944634,172.897473 L61.1122764,221.457033 C60.4761789,221.829341 59.9593496,221.523516 59.9593496,220.792198 L59.9593496,210.979231 C60.0055176,210.168214 60.4336006,209.427651 61.1122764,208.984725 L61.1122764,208.984725 Z" id="Path" fill="#FFFFFF" fill-rule="nonzero" opacity="0.2"></path>
                <path d="M62.2519512,233.264505 L89.9619512,217.215385 C91.2871545,216.484066 92.2545528,217.082418 92.2545528,218.545055 L92.2545528,219.462527 C92.171568,221.083988 91.3190639,222.567302 89.9619512,223.451538 L62.2519512,239.500659 C60.9930081,240.245275 59.9593496,239.646923 59.9593496,238.170989 L59.9593496,237.253516 C60.0507723,235.634569 60.9012325,234.154811 62.2519512,233.264505 L62.2519512,233.264505 Z" id="Path" fill="#5BD989" fill-rule="nonzero"></path>
                <path d="M62.2519512,233.264505 L89.9619512,217.215385 C91.2871545,216.484066 92.2545528,217.082418 92.2545528,218.545055 L92.2545528,219.462527 C92.171568,221.083988 91.3190639,222.567302 89.9619512,223.451538 L62.2519512,239.500659 C60.9930081,240.245275 59.9593496,239.646923 59.9593496,238.170989 L59.9593496,237.253516 C60.0507723,235.634569 60.9012325,234.154811 62.2519512,233.264505 L62.2519512,233.264505 Z" id="Path" fill="#000000" fill-rule="nonzero" opacity="0.1"></path>
                <path d="M61.1122764,246.637802 L144.944634,198.078242 C145.56748,197.705934 146.084309,198.011758 146.084309,198.743077 L146.084309,208.556044 C146.037021,209.363375 145.615123,210.101725 144.944634,210.550549 L61.1122764,259.11011 C60.4761789,259.482418 59.9593496,259.18989 59.9593496,258.445275 L59.9593496,248.632308 C60.0055176,247.82129 60.4336006,247.080728 61.1122764,246.637802 Z" id="Path" fill="#5BD989" fill-rule="nonzero"></path>
                <path d="M61.1122764,246.637802 L144.944634,198.078242 C145.56748,197.705934 146.084309,198.011758 146.084309,198.743077 L146.084309,208.556044 C146.037021,209.363375 145.615123,210.101725 144.944634,210.550549 L61.1122764,259.11011 C60.4761789,259.482418 59.9593496,259.18989 59.9593496,258.445275 L59.9593496,248.632308 C60.0055176,247.82129 60.4336006,247.080728 61.1122764,246.637802 Z" id="Path" fill="#FFFFFF" fill-rule="nonzero" opacity="0.2"></path>
                <path d="M90.5471545,259.209121 L123.677236,240.048571 C125.002439,239.303956 125.983089,239.902308 125.983089,241.378242 L125.983089,251.643297 C125.894984,253.266601 125.037787,254.74951 123.677236,255.632308 L90.5471545,274.806154 C89.2219512,275.537473 88.2545528,274.939121 88.2545528,273.476484 L88.2545528,263.198132 C88.3480507,261.579806 89.1980115,260.100917 90.5471545,259.209121 Z" id="Path" fill="#5BD989" fill-rule="nonzero"></path>
                <path d="M90.5471545,259.209121 L123.677236,240.048571 C125.002439,239.303956 125.983089,239.902308 125.983089,241.378242 L125.983089,251.643297 C125.894984,253.266601 125.037787,254.74951 123.677236,255.632308 L90.5471545,274.806154 C89.2219512,275.537473 88.2545528,274.939121 88.2545528,273.476484 L88.2545528,263.198132 C88.3480507,261.579806 89.1980115,260.100917 90.5471545,259.209121 Z" id="Path" fill="#000000" fill-rule="nonzero" opacity="0.1"></path>
            </g>
            <g id="freepik--Character--inject-81" transform="translate(379.000000, 323.000000)" fill-rule="nonzero">
                <path d="M33.8627907,68.9263473 C33.8627907,68.9263473 17.5846512,46.4073054 16.6302326,43.6688623 C15.8746512,41.6482635 16.6302326,38.6439521 16.8688372,37.2481437 C17.1074419,35.8523353 17.3195349,32.7416766 17.5581395,31.9307784 C17.955814,30.4153293 16.0072093,30.7210778 14.9069767,32.1035928 C13.8067442,33.4861078 13.4355814,36.2511377 12.8655814,36.7031138 C12.2955814,37.1550898 7.96093023,30.8141317 5.69418605,27.8895808 C3.42744186,24.9650299 2.00906977,23.1837126 0.617209302,24.2737725 C-0.376976744,25.0580838 0.365348837,26.7596407 2.00906977,29.2588024 C2.96906827,30.6045466 3.85413986,32.0024882 4.66023256,33.4462275 C4.91209302,33.9912575 3.56,34.0311377 2.83093023,35.1610778 C2.26093023,36.0384431 2.83093023,37.4608383 2.0355814,38.1388024 C1.02223776,38.9120965 0.748506279,40.3246684 1.39930233,41.4222754 C2.87486491,43.7460517 4.77775823,45.7671256 7.00651163,47.3777246 C9.4455814,49.065988 10.4265116,49.6641916 11.8713953,51.9639521 C13.3162791,54.2637126 26.2804651,77.7531737 27.1553488,79.1622754 C28.0302326,80.5713772 29.7137209,83.4427545 32.272093,83.522515 C34.8304651,83.6022754 55.7746512,65.5232335 56.8483721,64.6192814 C60.2948837,61.7346108 61.3951163,61.322515 61.9783721,63.9147305 C62.1798012,64.836227 62.3302634,65.7681886 62.4290698,66.7063473 C62.84,70.0031138 65.0802326,81.7810778 65.0802326,81.7810778 C65.0802326,81.7810778 75.6848837,86.9256287 84.3939535,84.4397605 C93.1030233,81.9538922 96.045814,78.2450299 96.045814,78.2450299 L91.6846512,71.1197605 C92.8644186,68.1819162 98.3125581,56.271018 100.075581,47.9360479 L72.7686047,43.5093413 C72.2118605,43.3897006 71.3104651,43.1637126 70.1174419,42.8579641 C68.6195349,42.4591617 64.8151163,41.1431138 61.9386047,43.6688623 C52.5534884,51.8708982 33.8893023,68.9263473 33.8893023,68.9263473" id="Path" fill="#FFA8A7"></path>
                <path d="M87.9995349,207.098084 L83.1081395,213.917605 C85.3310907,214.958463 87.7601808,215.481108 90.2132558,215.446347 C94.6009302,215.605868 95.8072093,214.117006 95.9662791,213.824551 C96.7086047,212.229341 95.5553488,209.357964 95.2372093,206.885389 L87.9995349,207.098084 Z" id="Path" fill="#37474F"></path>
                <path d="M83.3865116,210.647425 C83.3865116,210.647425 77.447907,210.261916 73.3518605,209.756766 C69.255814,209.251617 66.0081395,211.245629 66.9625581,212.933892 C67.9169767,214.622156 70.1837209,216.031257 73.7097674,217.214371 C76.7188372,218.237964 80.3376744,218.969102 83.4660465,219.873054 C86.5944186,220.777006 88.7683721,221.96012 90.5844186,221.322036 C92.6125581,220.617485 93.4874419,219.806587 93.3151163,218.317725 C92.8724634,216.199912 92.3238632,214.105769 91.6713953,212.043234 L83.3865116,210.647425 Z" id="Path" fill="#37474F"></path>
                <path d="M95.9662791,200.251976 C95.9662791,200.251976 95.2239535,206.446707 95.1709302,207.776048 C95.117907,209.105389 89.1395349,209.530778 87.9995349,207.098084 L87.8139535,199.520838 L95.9662791,200.251976 Z" id="Path" fill="#F28F8F"></path>
                <path d="M89.9481395,204.053892 L92.0823256,213.465629 C92.0823256,213.465629 92.2811628,214.608862 87.4030233,215.34 C82.5248837,216.071138 74.8630233,212.774371 73.5506977,212.109701 C72.2383721,211.44503 72.0925581,210.102395 76.8911628,210.368263 C81.6897674,210.634132 83.3865116,210.647425 83.3865116,210.647425 L81.8223256,206.486587 L89.9481395,204.053892 Z" id="Path" fill="#FFA8A7"></path>
                <path d="M99.9960465,47.8562874 L103.376279,46.9124551 C103.376279,46.9124551 110.441628,69.3384431 111.223721,71.5052695 C112.005814,73.6720958 112.893953,75.9585629 111.369535,78.6305389 C109.553488,81.8076647 99.9960465,94.5826347 99.9960465,94.5826347 L93.9248837,88.6271856 L100.817907,75.9718563 L94.7202326,63.608982 L99.9960465,47.8562874 Z" id="Path" fill="#F28F8F"></path>
                <path d="M65.2790698,18.7304192 C63.6683077,15.6979162 63.7233719,12.0483517 65.4248837,9.06610778 C68.7918605,2.80491018 76.2946512,-0.239281437 85.2290698,0.917245509 C89.3648837,1.46227545 94.2430233,4.90526946 96.9074419,10.0498204 C99.8502326,15.7526946 100.128605,27.2382036 100.884186,31.5851497 L65.2790698,18.7304192 Z" id="Path" fill="#37474F"></path>
                <path d="M65.0404651,21.1897006 C65.0404651,21.1897006 62.9195349,25.2441916 63.2906977,25.6164072 C63.8404293,25.9384169 64.4412739,26.1632486 65.0669767,26.2810778 L65.0404651,21.1897006 Z" id="Path" fill="#FFA8A7"></path>
                <path d="M71.4827907,8.3748503 C69.1762791,9.87700599 65.1995349,12.6420359 65.0272093,21.748024 C64.8416279,31.0534132 66.1672093,34.1241916 67.545814,35.2009581 C68.4737209,35.9320958 73.9218605,35.5598802 76.2548837,35.0148503 C78.587907,34.4698204 85.3086047,31.1331737 87.7344186,26.0683832 C90.5844186,20.1129341 90.0011628,11.4456287 85.7725581,8.78694611 C81.3974524,6.19249444 75.9993384,6.03682079 71.4827907,8.3748503 Z" id="Path" fill="#FFA8A7"></path>
                <path d="M95.9662791,78.1918563 C100.04907,84.5726946 103.919767,90.1559281 104.76814,97.3609581 C106.517907,112.502156 100.791395,129.81018 99.5586047,141.016527 C101.876973,144.204091 103.213402,148.002918 103.402791,151.943713 C103.402791,156.583114 95.9662791,200.251976 95.9662791,200.251976 C95.9662791,200.251976 90.557907,201.900359 87.8139535,199.520838 L82.7104651,119.188743 L85.3616279,109.40479 L95.9662791,78.1918563 Z" id="Path" fill="#5BD989"></path>
                <path d="M95.9662791,78.1918563 C100.04907,84.5726946 103.919767,90.1559281 104.76814,97.3609581 C106.517907,112.502156 100.791395,129.81018 99.5586047,141.016527 C101.876973,144.204091 103.213402,148.002918 103.402791,151.943713 C103.402791,156.583114 95.9662791,200.251976 95.9662791,200.251976 C95.9662791,200.251976 90.557907,201.900359 87.8139535,199.520838 L82.7104651,119.188743 L85.3616279,109.40479 L95.9662791,78.1918563 Z" id="Path" fill="#000000" opacity="0.2"></path>
                <path d="M82.7104651,119.188743 L85.3616279,109.40479 C90.4377792,108.06475 95.3337658,106.114191 99.9430233,103.595569 C99.9430233,103.595569 97.185814,108.633772 89.2588372,111.398802 L85.1627907,123.961078 L84.8181395,152.741317 L82.7104651,119.188743 Z" id="Path" fill="#5BD989"></path>
                <path d="M82.7104651,119.188743 L85.3616279,109.40479 C90.4377792,108.06475 95.3337658,106.114191 99.9430233,103.595569 C99.9430233,103.595569 97.185814,108.633772 89.2588372,111.398802 L85.1627907,123.961078 L84.8181395,152.741317 L82.7104651,119.188743 Z" id="Path" fill="#000000" opacity="0.3"></path>
                <path d="M95.9662791,78.1918563 C98.1534884,81.7810778 103.376279,87.8960479 102.262791,93.7850299 C100.937209,100.910299 97.0930233,105.921916 85.4013953,109.40479 L74.4255814,149.28503 C74.4255814,149.28503 80.1388372,154.602395 81.8886047,159.746946 C83.6383721,164.891497 89.9481395,204.080479 89.9481395,204.080479 C89.9481395,204.080479 87.9862791,207.284192 81.8223256,206.513174 C81.8223256,206.513174 60.3346512,157.327545 58.8234884,154.123832 C56.9893173,150.879345 56.3467422,147.09292 57.0074419,143.422635 C57.6834884,138.26479 64.9609302,81.8076647 64.9609302,81.8076647 L95.9662791,78.1918563 Z" id="Path" fill="#5BD989"></path>
                <path d="M95.9662791,78.1918563 C98.1534884,81.7810778 103.376279,87.8960479 102.262791,93.7850299 C100.937209,100.910299 97.0930233,105.921916 85.4013953,109.40479 L74.4255814,149.28503 C74.4255814,149.28503 80.1388372,154.602395 81.8886047,159.746946 C83.6383721,164.891497 89.9481395,204.080479 89.9481395,204.080479 C89.9481395,204.080479 87.9862791,207.284192 81.8223256,206.513174 C81.8223256,206.513174 60.3346512,157.327545 58.8234884,154.123832 C56.9893173,150.879345 56.3467422,147.09292 57.0074419,143.422635 C57.6834884,138.26479 64.9609302,81.8076647 64.9609302,81.8076647 L95.9662791,78.1918563 Z" id="Path" fill="#000000" opacity="0.2"></path>
                <path d="M99.9960465,47.8562874 L72.6890698,43.4295808 C72.1323256,43.3099401 71.2309302,43.0839521 70.037907,42.7782036 L70.037907,42.7782036 C70.037907,42.7782036 68.8713953,59.9532934 61.8590698,63.8881437 L61.8590698,63.8881437 C62.0313953,64.7123353 62.1772093,65.6295808 62.3097674,66.6797605 C62.7206977,69.9765269 64.9609302,81.754491 64.9609302,81.754491 C64.9609302,81.754491 75.5655814,86.8990419 84.2746512,84.4131737 C92.9837209,81.9273054 95.9265116,78.2184431 95.9265116,78.2184431 L91.5653488,71.0931737 C92.7848837,68.1287425 98.2727907,56.2178443 99.9960465,47.8562874 Z" id="Path" fill="#5BD989"></path>
                <path d="M99.9960465,47.8562874 L72.6890698,43.4295808 C72.1323256,43.3099401 71.2309302,43.0839521 70.037907,42.7782036 L70.037907,42.7782036 C70.037907,42.7782036 68.8713953,59.9532934 61.8590698,63.8881437 L61.8590698,63.8881437 C62.0313953,64.7123353 62.1772093,65.6295808 62.3097674,66.6797605 C62.7206977,69.9765269 64.9609302,81.754491 64.9609302,81.754491 C64.9609302,81.754491 75.5655814,86.8990419 84.2746512,84.4131737 C92.9837209,81.9273054 95.9265116,78.2184431 95.9265116,78.2184431 L91.5653488,71.0931737 C92.7848837,68.1287425 98.2727907,56.2178443 99.9960465,47.8562874 Z" id="Path" fill="#FFFFFF" opacity="0.7"></path>
                <path d="M92.7981395,68.2616766 C89.171663,70.445464 85.3720897,72.3261854 81.437907,73.8847904 C85.0087328,73.8133364 88.5045798,72.8443381 91.6051163,71.0665868 L92.7981395,68.2616766 Z" id="Path" fill="#5BD989"></path>
                <path d="M70.8067442,8.82682635 C70.8067442,8.82682635 69.4811628,17.4675449 72.6095349,22.5456287 C72.6095349,22.5456287 73.7760465,19.1026347 76.6790698,19.754012 C79.582093,20.4053892 79.7411628,24.2471856 77.6997674,26.4007186 C76.6409502,27.6333524 74.9722628,28.1498402 73.4048837,27.7300599 C73.4048837,27.7300599 72.9409302,33.9779641 72.6890698,39.2155689 C72.4372093,44.4531737 71.0586047,55.8722156 76.9309302,60.4850299 C82.8032558,65.0978443 97.5437209,66.7196407 104.45,57.0420359 C108.294186,51.6582036 103.190698,42.1401198 100.817907,31.465509 C98.6306977,21.6549701 97.397907,7.11197605 87.0186047,4.77233533 C76.6393023,2.43269461 70.8067442,8.82682635 70.8067442,8.82682635 Z" id="Path" fill="#37474F"></path>
            </g>
            <g id="freepik--Cloud--inject-81" transform="translate(439.000000, 205.000000)" fill="#EBEBEB" fill-rule="nonzero">
                <path d="M49.2,9.03970588 L47,10.3632353 C47.1846834,9.58621768 47.2874584,8.79224109 47.3066667,7.99411765 C47.3066667,3.56029412 44.1733333,1.77352941 40.3066667,4.02352941 C39.1299211,4.72811119 38.0799326,5.62276182 37.2,6.67058824 L37.2,6.67058824 C37.2,0.714705882 32.9866667,-1.70735294 27.7866667,1.27058824 C22.229091,4.86836038 18.7325797,10.8808113 18.3733333,17.4573529 C18.3733333,17.7617647 18.3733333,18.0529412 18.3733333,18.3441176 C17.0338416,18.1768089 15.6779724,18.4863189 14.5466667,19.2176471 C10.4142873,21.8906003 7.81400211,26.3597039 7.54666667,31.2485294 C7.54598726,31.8088764 7.60407815,32.3677713 7.72,32.9161765 L6.54666667,33.5911765 C3.36,35.4176471 0.773333333,38.9779412 0.773333333,41.5323529 C0.773333333,44.0867647 3.36,44.6955882 6.54666667,42.8558824 L49.2133333,18.4367647 C52.4,16.6102941 54.9866667,13.05 54.9866667,10.4955882 C54.9866667,7.94117647 52.3866667,7.2 49.2,9.03970588 Z" id="Path"></path>
            </g>
        </g>
    </g>
</svg>