<?xml version="1.0" encoding="UTF-8"?>
<svg width="600px" height="800px" viewBox="0 0 600 800" version="1.1" xmlns="http://www.w3.org/2000/svg" xmlns:xlink="http://www.w3.org/1999/xlink">
    <!-- Generator: Sketch 63.1 (92452) - https://sketch.com -->
    <title>404</title>
    <desc>Created with Sketch.</desc>
    <g id="404" stroke="none" stroke-width="1" fill="none" fill-rule="evenodd">
        <g id="404-Error-Page-not-Found-with-people-connecting-a-plug-amico" transform="translate(70.000000, 179.000000)" fill-rule="nonzero">
            <g id="freepik--Floor--inject-98" transform="translate(2.000000, 202.000000)" fill="#F5F5F5">
                <ellipse id="freepik--floor--inject-98" cx="229.03" cy="119.25" rx="228.44" ry="118.95"></ellipse>
            </g>
            <g id="freepik--Shadows--inject-98" transform="translate(30.000000, 266.000000)" fill="#E6E6E6">
                <ellipse id="freepik--Shadow--inject-98" cx="347.38" cy="35.61" rx="60.93" ry="35.18"></ellipse>
                <g id="freepik--shadow--inject-98" transform="translate(0.000000, 4.000000)">
                    <path d="M102,10.73 C125.31,24.19 126.26,46.41 102.94,59.87 C79.62,73.33 40.89,72.93 17.57,59.47 C-5.75,46.01 -5.74,24.19 17.57,10.73 C40.88,-2.73 78.67,-2.73 102,10.73 Z"></path>
                    <path d="M292.14,83.26 L215.62,39.08 C212.898455,37.6992013 209.681545,37.6992013 206.96,39.08 L130.44,83.26 C128.05,84.64 128.05,86.88 130.44,88.26 L165.29,108.38 L132.74,127.17 C126.13,130.98 115.37,130.98 108.74,127.17 L57.54,97.61 C54.72,95.98 53.16,93.93 53.16,91.85 C53.16,89.77 54.72,87.71 57.54,86.08 L102.91,59.88 C103.560957,59.5394743 103.972825,58.8694773 103.982768,58.1349002 C103.992711,57.400323 103.599127,56.7194239 102.957626,56.3614042 C102.316124,56.0033846 101.529978,56.0258813 100.91,56.42 L55.56,82.6 C51.45,84.98 49.18,88.26 49.18,91.84 C49.18,95.42 51.45,98.69 55.56,101.07 L106.76,130.63 C115.544334,135.157246 125.975666,135.157246 134.76,130.63 L169.31,110.69 L207,132.44 C209.721545,133.820799 212.938455,133.820799 215.66,132.44 L292.18,88.26 C294.53,86.88 294.53,84.64 292.14,83.26 Z"></path>
                </g>
            </g>
            <g id="freepik--character-2--inject-98" transform="translate(198.000000, 3.000000)">
                <g id="freepik--Character--inject-98">
                    <g id="freepik--Bottom--inject-98" transform="translate(138.000000, 118.000000)">
                        <path d="M73.58,164.09 C73.58,164.09 76.36,122.91 75.58,107.73 C74.93,95.73 73.3,90.73 72.96,88.02 C72.96,88.02 70.01,60.02 69.77,36.13 C69.65,24.65 68.59,16.49 62.3,2.85 L21.87,12.52 C21.05,18.58 18.27,58.88 17.61,94.71 C17.04,126.08 17.93,153.54 17.93,153.54 L17.93,155.19 C17.93,157.03 17.53,158.31 16.35,161.25 C14.8750299,165.037827 12.7572706,168.542617 10.09,171.61 C9.26,172.51 3.49,177.55 2.73,178.61 C0.25,181.5 5.39,183.13 9.2,182.61 C13.2,182.07 19.46,180.54 21.2,178.1 C22.38,176.46 23.27,170.75 24.48,169.1 C28.57,163.52 30.25,161.1 30.28,159.34 C30.34,156.12 29.23,154.85 28.83,153.03 C29.16,149.23 37.37,117.98 37.51,106.91 C37.58,101.64 37.22,94.38 37.22,94.38 L43.58,57.86 C46.04,66.98 50.36,89.62 51.82,98.31 C53.59,108.93 58.22,136.19 60.96,152.45 C62.01,158.72 62.5,161.89 62.96,164.8 L63.07,166.04 C63.16,167.62 64.31,184.52 64.93,188.04 C66.23,195.43 72.8,194.5 73.85,188.52 C74.75,183.44 73.63,167.68 73.6,165.75 L73.58,164.09 Z" id="Path" fill="#FFA8A7"></path>
                        <path d="M73.58,164.09 C75.44,164.09 74.22,171.3 74.7,175.91 C75.21,180.86 76.83,184.48 77.3,188.53 C77.93055,192.069688 77.3862174,195.718473 75.75,198.92 C74.46,201.92 67.96,205.92 65.49,201.71 C63.02,197.5 62.49,192.63 62.78,188.01 C63.07,183.39 62.78,180.29 62.87,176.66 C62.96,173.46 60.61,165.29 63.02,164.83 L63.13,166.07 C64,167.8 72.78,168.14 73.66,165.8 L73.58,164.09 Z" id="Path" fill="#37474F"></path>
                        <path d="M30.7,163.27 C31.27,165.58 30.7,171.92 30.7,171.92 C30.7,171.92 29.7,174.11 26.13,175.56 L24.53,166.74 L30.7,163.27 Z" id="Path" fill="#263238"></path>
                        <polygon id="Path" fill="#000000" points="26.11 175.56 18.25 172.98 16.35 166 25.19 170.47"></polygon>
                        <path d="M17.93,155.19 L17.93,153.54 C16.86,154.06 14.51,162.67 11.33,168.54 C8.43,173.93 2.68,176.93 0.81,179.28 C-1.69,182.41 3.17,186.46 10.96,184.79 C14.83,183.96 20.69,181.49 22.28,178.88 C23.87,176.27 24.4,171.47 25.7,169.55 C27,167.63 30.09,165.42 30.7,163.24 C31.2080666,161.272266 31.2080666,159.207734 30.7,157.24 C30.09,155.24 29.55,152.85 28.87,153.07 L28.87,154.58 C28.35,155.64 26.46,156.88 22.53,157.1 C20.61,157.19 18.79,156.9 17.93,155.19 Z" id="Path" fill="#37474F"></path>
                        <path d="M21.05,12 C21.05,12 18.38,41.67 17.52,67.94 C16.66,94.21 17.43,128.11 17.43,128.11 C17.43,128.11 20.14,130.05 26.11,130.32 C32.08,130.59 34.11,128.6 34.11,128.6 C34.11,128.6 37.76,116.69 38.33,108.31 C38.6918237,103.77387 38.6918237,99.2161296 38.33,94.68 L43.66,59.62 C43.66,59.62 50.42,94.14 51.19,98.31 C51.96,102.48 58.43,139.37 58.43,139.37 C58.43,139.37 60.97,141.71 67.49,141.59 C73.26,141.48 74.93,139.41 74.93,139.41 C74.93,139.41 76.32,116.79 76,107.13 C75.73,98.61 73.78,91.83 73.39,86.3 C73,80.77 72.78,49.3 72.39,37.3 C72,25.3 71,15 60.73,0.56 L21.05,12 Z" id="Path" fill="#455A64"></path>
                        <path d="M43.7,59.65 L39.26,37.65 C39.26,37.65 31.53,35.65 27.92,30.91 C27.92,30.91 28.92,36.15 36.92,39.5 L41.64,61.38 L40,84 L43.7,59.65 Z" id="Path" fill="#37474F"></path>
                    </g>
                    <g id="freepik--Top--inject-98" transform="translate(0.000000, 19.000000)">
                        <path d="M102.56,105.53 C105.407878,105.964463 108.317144,105.749089 111.07,104.9 C109.860739,104.295477 108.729163,103.546689 107.7,102.67 C106.718415,101.881123 106.541265,100.455066 107.3,99.45 C107.67,99.05 108.59,99.98 110.67,100.57 C113.33,101.32 115.26,101.48 117.82,102.96 C118.785891,103.521928 119.920681,103.720516 121.02,103.52 C127.26,102.35 141.81,95.52 148.48,91.96 C149.84,86.41 152.2,78.25 155.11,68.07 C157.8,58.69 162.11,54.59 168.99,54.74 L168,75.11 C168,75.11 164.72,89.18 160.66,100.67 C159.95,102.67 157.1,105 151.88,106.94 C145.12,109.45 136.96,111.82 126.99,114.55 C122.950078,115.700639 118.823076,116.52002 114.65,117 C104.11,117.9 100.07,115 98.65,112.92 C94.61,107.18 97,104.42 102.56,105.53 Z" id="Path" fill="#FFA8A7"></path>
                        <path d="M186.72,54.59 L196.34,55.33 C194.65305,63.2925699 197.426133,71.5428766 203.58,76.87 L199.29,94.15 C199.43,96.29 202.97,103.49 206.4,111.23 C199.95,119.87 168.31,122.82 157.99,115.23 C159.58,107.09 160.77,100.91 161.09,97.82 L160.57,86.65 C147.63,76.04 163.24,59.87 168.99,54.73 L176.21,54.41 L186.72,54.59 Z" id="Path" fill="#5BD989"></path>
                        <path d="M227.23,140.68 C225.812334,139.573788 225.039689,137.83346 225.17,136.04 C225.34,134.43 225.71,132.41 226.38,131.63 C227.05,130.85 231.25,125.14 233.11,128.46 C235.11,132.08 234.7,133.55 234.7,133.55 L227.23,140.68 Z" id="Path" fill="#F28F8F"></path>
                        <path d="M214.27,217 C209.755682,216.849793 205.359592,215.518899 201.52,213.14 L151.59,184.3 C143.88,179.85 137.59,168.98 137.59,160.07 L137.59,118.18 C137.579952,115.326915 136.051191,112.695113 133.577819,111.272924 C131.104446,109.850735 128.060849,109.853431 125.59,111.28 L108.11,121.4 C107.490022,121.794119 106.703876,121.816615 106.062374,121.458596 C105.420873,121.100576 105.027289,120.419677 105.037048,119.6851 C105.047175,118.950523 105.459043,118.280526 106.11,117.94 L123.64,107.81 C127.349364,105.668388 131.918997,105.666259 135.630355,107.804413 C139.341713,109.942568 141.632043,113.896798 141.64,118.18 L141.64,160.07 C141.64,167.57 147.14,177.07 153.64,180.84 L203.57,209.66 C209.96,213.35 215.89,213.99 220.25,211.48 C224.61,208.97 227.02,203.48 227.02,196.13 L227.02,142.65 C227.02,133.59 232.81,123.15 240.2,118.88 L252.39,111.88 C253.009978,111.485881 253.796124,111.463385 254.437626,111.821404 C255.079127,112.179424 255.472711,112.860323 255.462952,113.5949 C255.452825,114.329477 255.040957,114.999474 254.39,115.34 L242.2,122.34 C236.14,125.84 231.02,135.13 231.02,142.64 L231.02,196.12 C231.02,204.98 227.9,211.66 222.25,214.93 C219.822256,216.319443 217.067021,217.034147 214.27,217 Z" id="Path" fill="#37474F"></path>
                        <g id="freepik--Plug--inject-98" transform="translate(26.000000, 99.000000)">
                            <path d="M102,25.29 L102,28.56 C102,33.79 98.33,40.16 93.79,42.77 L63.51,60.26 L32.72,42.48 L32.72,15.82 L62.58,2 C67.33,-0.19 74.85,0.15 79.39,2.76 L93.77,11.07 C98.3,13.69 102,20.06 102,25.29 Z" id="Path" fill="#37474F"></path>
                            <path d="M62.58,2 C67.33,-0.19 74.85,0.15 79.39,2.76 L93.77,11.07 C98.3,13.68 98.12,17.58 93.37,19.78 L63.48,33.58 L32.68,15.81 L62.58,2 Z" id="Path" fill="#455A64"></path>
                            <path d="M66.39,27.18 C68.8093867,28.7586694 70.33203,31.395442 70.49,34.28 L70.49,56.21 L63.49,60.21 L32.7,42.43 L32.7,15.82 L40.5,12.22 L66.39,27.18 Z" id="Path" fill="#000000" opacity="0.15"></path>
                            <path d="M30.07,11.23 C31.009514,10.7928124 32.1122933,10.9000271 32.95,11.51 L63.23,29 C65.6533453,30.5795734 67.1767457,33.2213727 67.33,36.11 L67.33,62.19 C67.4410697,63.22294 66.9812746,64.2344892 66.13,64.83 C65.43,65.22 62.96,66.65 62.27,67.06 C61.3270212,67.4967839 60.221591,67.3896834 59.38,66.78 L29.09,49.29 C26.6706133,47.7113306 25.14797,45.074558 24.99,42.19 L24.99,16.11 C24.8816424,15.0770044 25.3359502,14.0653107 26.18,13.46 L30.07,11.23 Z" id="Path" fill="#37474F"></path>
                            <path d="M59.38,31.22 L29.09,13.74 C26.83,12.43 24.99,13.49 24.99,16.11 L24.99,42.19 C25.14797,45.074558 26.6706133,47.7113306 29.09,49.29 L59.38,66.78 C61.64,68.09 63.48,67.03 63.48,64.41 L63.48,38.33 C63.3219678,35.4427904 61.799725,32.8029985 59.38,31.22 L59.38,31.22 Z" id="Path" fill="#455A64"></path>
                            <path d="M23.51,61.58 L23.51,66.09 C23.51,67.92 24.14,69.19 25.18,69.79 L27.9,71.36 C29.2282998,72.0062538 30.8046453,71.867843 32,71 L57,56.54 L57,38.74 L54.28,37.17 L29.23,51.63 C25.8467625,53.8457203 23.7222379,57.5413533 23.51,61.58 Z M34.84,56 C34.935485,56.3252084 34.9892491,56.6612342 35,57 C34.8552796,59.7105261 33.4247158,62.1889314 31.15,63.67 C30.8384774,63.852452 30.5014143,63.9872772 30.15,64.07 C30.0624081,63.7436881 30.0153867,63.4078206 30.01,63.07 C30.1563178,60.359948 31.5864938,57.8822146 33.86,56.4 C34.1707081,56.2304965 34.4994238,56.0963268 34.84,56 L34.84,56 Z" id="Shape" fill="#5BD989"></path>
                            <path d="M27.76,71.26 C27.8123394,71.305803 27.8693145,71.3460207 27.93,71.38 L27.93,71.38 L27.83,71.32 L25.2,69.79 C24.15,69.21 23.53,67.94 23.53,66.1 L23.53,61.59 C23.5955789,59.5859878 24.1777174,57.6328959 25.22,55.92 L27.94,57.49 C26.9078072,59.2067635 26.3296515,61.1580391 26.26,63.16 L26.26,67.67 C26.1867281,68.8379393 26.5623224,69.9897616 27.31,70.89 C27.4447503,71.0307919 27.5958181,71.1550032 27.76,71.26 Z" id="Path" fill="#000000" opacity="0.2"></path>
                            <path d="M57,38.74 L32,53.2 C30.3038707,54.2571546 28.9062625,55.7304952 27.94,57.48 L25.22,55.91 C26.1856253,54.1632779 27.5792223,52.6905382 29.27,51.63 L54.32,37.17 L57,38.74 Z" id="Path" fill="#FFFFFF" opacity="0.5"></path>
                            <path d="M28,71.45 L27.93,71.45 L27.93,71.45 C27.93,71.45 28,71.45 28,71.45 Z" id="Path" fill="#FFFFFF" opacity="0.5"></path>
                            <path d="M35,57 C34.9987711,56.638848 34.9517289,56.2793109 34.86,55.93 L34.86,55.93 C36.51,55.48 37.72,56.51 37.72,58.57 C37.5743544,61.277726 36.1484907,63.7544217 33.88,65.24 C32.1,66.24 30.58,65.73 30.16,64.07 C30.5131509,63.9928551 30.8510667,63.8576888 31.16,63.67 C33.4272878,62.1832863 34.8527686,59.7072559 35,57 L35,57 Z" id="Path" fill="#000000" opacity="0.2"></path>
                            <path d="M0.42,48.24 L0.42,52.76 C0.42,54.58 1.05,55.86 2.09,56.45 L4.81,58.03 C6.13654477,58.6624436 7.70306665,58.5165421 8.89,57.65 L33.89,43.18 L33.89,25.41 L31.17,23.83 L6.17,38.29 C2.77895194,40.5024732 0.643802949,44.1972093 0.42,48.24 L0.42,48.24 Z M11.75,42.63 C11.8411021,42.9794334 11.8881339,43.3388909 11.89,43.7 C11.7436822,46.410052 10.3135062,48.8877854 8.04,50.37 C7.72347968,50.5420309 7.38784637,50.6762842 7.04,50.77 C6.94466848,50.4282265 6.89754648,50.0748115 6.9,49.72 C7.04564555,47.012274 8.47150932,44.5355783 10.74,43.05 C11.0553239,42.8633667 11.3953168,42.7219835 11.75,42.63 Z" id="Shape" fill="#5BD989"></path>
                            <path d="M4.93,58.1 L4.88,58.1 L4.81,58.1 L2.09,56.51 C1.04,55.92 0.42,54.65 0.42,52.81 L0.42,48.3 C0.430703525,47.3364542 0.582308722,46.3796569 0.87,45.46 C1.17103568,44.4761394 1.58372282,43.5299787 2.1,42.64 L2.1,42.64 L4.82,44.2 L4.82,44.2 C4.56222294,44.6455792 4.33179716,45.1064308 4.13,45.58 C3.50923317,46.9238712 3.16897059,48.3801951 3.13,49.86 L3.13,54.37 C3.04478121,55.5310988 3.40203123,56.6814439 4.13,57.59 C4.36571463,57.8042691 4.63626418,57.9767445 4.93,58.1 L4.93,58.1 Z" id="Path" fill="#000000" opacity="0.2"></path>
                            <path d="M33.92,25.41 L8.92,39.87 C7.22159389,40.9243626 5.82335444,42.3983687 4.86,44.15 L2.14,42.59 C3.08857813,40.8417051 4.46474968,39.3623207 6.14,38.29 L31.14,23.83 L33.92,25.41 Z" id="Path" fill="#FFFFFF" opacity="0.5"></path>
                            <polygon id="Path" fill="#FFFFFF" opacity="0.5" points="5 58.12 4.93 58.12 4.98 58.12"></polygon>
                            <path d="M11.88,43.69 C11.8818387,43.3325808 11.838154,42.9763824 11.75,42.63 L11.75,42.63 C13.39,42.17 14.61,43.21 14.61,45.27 C14.4643544,47.977726 13.0384907,50.4544217 10.77,51.94 C8.98,52.94 7.47,52.43 7.05,50.76 C7.40400057,50.6856436 7.74237448,50.550294 8.05,50.36 C10.3170967,48.8744791 11.7398037,46.3968145 11.88,43.69 L11.88,43.69 Z" id="Path" fill="#000000" opacity="0.2"></path>
                        </g>
                        <path d="M34,130.550006 C33.3142131,130.551907 32.7156915,130.085472 32.55,129.42 L28.55,113.74 C28.3428933,112.936426 28.8264258,112.117107 29.63,111.91 C30.4335743,111.702893 31.2528931,112.186426 31.46,112.99 L35.46,128.68 C35.5627802,129.06477 35.5061516,129.474724 35.3029112,129.817222 C35.0996708,130.15972 34.7669725,130.405853 34.38,130.5 C34.2558507,130.532123 34.1282333,130.548915 34,130.550006 L34,130.550006 Z" id="Path" fill="#E0E0E0"></path>
                        <path d="M22.74,137.090055 C22.4028465,137.090883 22.0752272,136.978153 21.81,136.77 L6.92,125 C6.47242839,124.67714 6.23828926,124.134591 6.31041061,123.587455 C6.38253196,123.040319 6.7492641,122.576975 7.26521052,122.381122 C7.78115693,122.185269 8.36297725,122.288543 8.78,122.65 L23.67,134.41 C24.3177816,134.925811 24.4293079,135.867093 23.92,136.52 C23.6367982,136.883273 23.2006026,137.093978 22.74,137.090055 L22.74,137.090055 Z" id="Path" fill="#E0E0E0"></path>
                        <path d="M2.22,151.45 C1.39157288,151.480376 0.695375661,150.833427 0.665,150.005 C0.634624339,149.176573 1.28157288,148.480376 2.11,148.45 L19.52,147.1 C19.9170717,147.066922 20.3108498,147.194259 20.6133733,147.453564 C20.9158969,147.71287 21.1019598,148.082541 21.13,148.48 C21.1875783,149.303714 20.5728298,150.020921 19.75,150.09 L2.34,151.44 L2.22,151.45 Z" id="Path" fill="#E0E0E0"></path>
                        <path d="M240.84,124.36 C240.500766,120.665393 239.953229,116.992884 239.2,113.36 C236.924894,104.836687 233.89284,96.5336808 230.14,88.55 C228.47,85.36 224.7,80.71 222.03,76.78 C218.25,71.23 215.59,68.12 212.72,64.35 C206.4,56.08 203.72,55.6 196.34,55.35 C195.34,57.98 193.06,68.76 200.45,77.47 L216.29,94.17 C217.19,95.62 226.87,112.17 228.48,118.28 C228.758485,119.366522 228.623043,120.517776 228.1,121.51 C226.834747,124.310663 225.904964,127.251061 225.33,130.27 C224.86,132.39 223.6,134.07 224.03,134.4 C225.12367,135.13075 226.576011,135.014894 227.54,134.12 C228.670823,132.906493 229.593259,131.514392 230.27,130 C230.87108,129.960647 231.461101,130.175253 231.896437,130.591579 C232.331774,131.007906 232.572494,131.587763 232.56,132.19 C232.65,133.42 232.09,135.13 231.66,137.26 C231.58,137.68 231.48,138.16 231.29,139.32 C231.125879,140.103396 231.032172,140.899904 231.01,141.7 C233.01,142.07 235.1,140.85 238.46,137.7 C241.49,134.76 241.69,130.9 240.84,124.36 Z" id="Path" fill="#FFA8A7"></path>
                        <path d="M188.44,49.73 C188.5,47.73 195,43.05 198.29,38.07 C201.29,33.45 205.6,20.75 195.5,16.69 C195.5,16.69 197.68,10.6 193.72,7.01 C189.76,3.42 184.43,5.64 183.59,7.14 C182.547867,3.29988281 179.10776,0.599845454 175.13,0.5 C171.217939,0.205430501 167.686363,2.83705187 166.85,6.67 C163.556143,5.24417634 159.713807,6.32053106 157.64,9.25 C153.93,14.36 158.85,19.04 158.85,19.04 C157.549812,19.9174626 156.838645,21.4397457 157,23 C157.29,25.16 159.36,25.69 159.6,26.77 C159.695379,27.2343213 159.470892,27.7055242 159.050223,27.9239934 C158.629554,28.1424626 158.114975,28.055084 157.79,27.71 C157.89889,28.2795129 158.230177,28.7821824 158.710593,29.1068389 C159.19101,29.4314954 159.78097,29.5513875 160.35,29.44 C162.68,29.31 164.76,26.14 164.76,26.14 L188.44,49.73 Z" id="Path" fill="#263238"></path>
                        <path d="M167.24,16.05 C164.24,17.35 161.41,21.92 161.45,34.7 C161.45,45.53 164.81,48.27 166.45,49.08 C168.09,49.89 171.4,49.47 174.59,48.98 L174.59,55.21 C174.59,55.21 168.82,62.37 173.99,65.93 C187.31,63.6 188.33,54.86 188.33,54.86 L188.57,41.28 C188.57,41.28 190.4,43.2 193.57,40.38 C196.23,38.05 197.19,34.06 195.19,31.86 C193.19,29.66 190.63,29.49 188.31,31.94 C188.31,31.94 184.06,32.22 177.67,28.21 C171.28,24.2 169,20.13 167.24,16.05 Z" id="Path" fill="#FFA8A7"></path>
                        <path d="M174.91,41.48 C174.937308,41.8972229 174.795987,42.3079449 174.51774,42.6200331 C174.239493,42.9321214 173.84761,43.1194509 173.43,43.14 C172.774193,43.1927378 172.152281,42.8411413 171.859341,42.2520313 C171.566401,41.6629213 171.661381,40.9548441 172.099216,40.4637587 C172.537051,39.9726734 173.229636,39.7974007 173.848362,40.0211017 C174.467089,40.2448027 174.88745,40.8224622 174.91,41.48 L174.91,41.48 Z" id="Path" fill="#B16668"></path>
                        <path d="M166.68,31 C166.673858,31.7859986 166.038555,32.4218599 165.252563,32.4286932 C164.46657,32.4355265 163.820308,31.8108068 163.800501,31.0250339 C163.780694,30.2392609 164.394661,29.5827749 165.18,29.55 C165.571596,29.5419714 165.950203,29.6905535 166.231814,29.9627782 C166.513426,30.235003 166.674753,30.6083573 166.68,31 L166.68,31 Z" id="Path" fill="#263238"></path>
                        <path d="M177.75,31.66 C177.777308,32.0772229 177.635987,32.4879449 177.35774,32.8000331 C177.079493,33.1121214 176.68761,33.2994509 176.27,33.32 C175.399564,33.3256292 174.686405,32.6303001 174.67,31.76 C174.652137,31.209811 174.929153,30.6918854 175.396699,30.4013209 C175.864245,30.1107563 176.451289,30.0916964 176.936699,30.3513209 C177.422108,30.6109453 177.732137,31.109811 177.75,31.66 L177.75,31.66 Z" id="Path" fill="#263238"></path>
                        <path d="M165.68,25.27 L162.63,27.06 C162.850229,27.47683 163.233659,27.7834924 163.688698,27.906732 C164.143736,28.0299716 164.629518,27.9587208 165.03,27.71 C165.862971,27.2003602 166.149043,26.1264878 165.68,25.27 L165.68,25.27 Z" id="Path" fill="#263238"></path>
                        <path d="M188.37,30.18 L188.37,36.18 C187.592365,36.1998075 186.841085,35.8975152 186.293883,35.3446328 C185.746681,34.7917504 185.452163,34.0373893 185.48,33.26 C185.486755,31.6343893 186.748109,30.2901089 188.37,30.18 Z" id="Path" fill="#263238"></path>
                        <polygon id="Path" fill="#F28F8F" points="170.62 29.57 170.01 38.21 165.45 37.14"></polygon>
                        <path d="M174.63,49 C177.98,48.61 184.9,46.69 186.03,43.87 C185.582179,45.2828235 184.717697,46.5272585 183.55,47.44 C181.46,49.24 174.62,51.1 174.62,51.1 L174.63,49 Z" id="Path" fill="#F28F8F"></path>
                    </g>
                    <g id="freepik--question-marks--inject-98" transform="translate(201.000000, 0.000000)">
                        <path d="M13.9,1.18 C15.1759034,1.66706637 16.3723128,2.34109985 17.45,3.18 C18.4939443,3.94305082 19.3916561,4.88818894 20.1,5.97 C20.7740511,7.01065739 21.2173316,8.18364567 21.4,9.41 C21.5801693,10.7189423 21.4182449,12.0522347 20.93,13.28 C20.5808125,14.2629438 20.040417,15.1670017 19.34,15.94 C18.7140239,16.5990117 17.9967121,17.1647786 17.21,17.62 C16.444342,18.0573829 15.6411515,18.4255119 14.81,18.72 L12.45,19.57 C11.7557082,19.8208327 11.0861746,20.1355135 10.45,20.51 C9.85030848,20.8114759 9.34775421,21.2759054 9,21.85 C8.84058755,22.1180396 8.61281662,22.3389084 8.34,22.49 C8.07557401,22.6356163 7.75951947,22.6539915 7.48,22.54 L4.36,21.37 C4.06065451,21.2592554 3.81893899,21.0319706 3.69,20.74 C3.55070743,20.4596837 3.55070743,20.1303163 3.69,19.85 C4.09098036,18.8878166 4.68290745,18.0169353 5.43,17.29 C6.10746873,16.6529979 6.86359855,16.1052238 7.68,15.66 C8.46809204,15.2367894 9.29112533,14.882149 10.14,14.6 C10.98,14.32 11.76,14.05 12.49,13.77 C13.1494541,13.5279508 13.7826877,13.2197101 14.38,12.85 C14.8937848,12.5243898 15.2870817,12.0397918 15.5,11.47 C15.9003702,10.4566292 15.7730523,9.3107683 15.16,8.41 C14.4072739,7.31730129 13.3135715,6.50493716 12.05,6.1 C9.79471191,5.20262189 7.21869828,5.82358941 5.62,7.65 C5.42073755,7.86074433 5.18749286,8.03652294 4.93,8.17 C4.65248541,8.25692858 4.35234186,8.23548975 4.09,8.11 L0.77,6.86 C0.530803304,6.77698412 0.335793932,6.60003117 0.23,6.37 C0.113743087,6.13351567 0.113743087,5.85648433 0.23,5.62 C0.66984064,4.60035958 1.35729552,3.70666824 2.23,3.02 C3.20171926,2.21192081 4.30879453,1.58220827 5.5,1.16 C6.80847304,0.697678625 8.18253211,0.447849701 9.57,0.42 C11.0488156,0.392029873 12.5191026,0.650094113 13.9,1.18 L13.9,1.18 Z M6.78,25.08 C7.07502293,25.1847528 7.31143368,25.4102523 7.43,25.7 C7.55462309,25.9870576 7.55462309,26.3129424 7.43,26.6 L6.07,30.21 C5.96524716,30.5050229 5.73974767,30.7414337 5.45,30.86 C5.16294243,30.9846231 4.83705757,30.9846231 4.55,30.86 L1.02,29.53 C0.724977073,29.4252472 0.488566317,29.1997477 0.37,28.91 C0.245376909,28.6229424 0.245376909,28.2970576 0.37,28.01 L1.73,24.4 C1.83770781,24.1044668 2.06176862,23.8659505 2.35,23.74 C2.638,23.62 2.962,23.62 3.25,23.74 L6.78,25.08 Z" id="Shape" fill="#5BD989"></path>
                        <path d="M15.63,44.28 C15.8407197,44.4868457 15.959432,44.7697239 15.959432,45.065 C15.959432,45.3602761 15.8407197,45.6431543 15.63,45.85 L13.13,48.49 C12.9274805,48.7052945 12.6455716,48.8281779 12.35,48.83 C12.0539869,48.8407473 11.7659569,48.7327361 11.55,48.53 L9,46.08 C8.78470546,45.8774805 8.6618221,45.5955716 8.66,45.3 C8.64457542,45.0032449 8.75325209,44.7134404 8.96,44.5 L11.47,41.87 C11.9057479,41.4418114 12.6042521,41.4418114 13.04,41.87 L15.63,44.28 Z M30.63,26.15 C31.5599441,27.0310199 32.3581396,28.041394 33,29.15 C33.6185981,30.2004907 34.0484254,31.3512094 34.27,32.55 C34.4574116,33.6991121 34.3994752,34.8748794 34.1,36 C33.4548889,38.1524867 31.9342563,39.9344213 29.91,40.91 C29.1275459,41.2554109 28.2987717,41.484503 27.45,41.59 C26.623422,41.6829813 25.7904963,41.7063969 24.96,41.66 L22.6,41.53 C21.8959689,41.491967 21.1899623,41.515389 20.49,41.6 C19.8628195,41.6692101 19.2672713,41.9115844 18.77,42.3 C18.5347296,42.4778192 18.2538742,42.5853071 17.96,42.61 C17.6756154,42.641899 17.3921874,42.5425152 17.19,42.34 L14.92,40.18 C14.7013934,39.9738156 14.5721755,39.6902542 14.56,39.39 C14.5308913,39.0901573 14.6504246,38.7950593 14.88,38.6 C15.5768497,37.9072546 16.4068979,37.3629607 17.32,37 C18.1412311,36.694959 18.9982438,36.4966698 19.87,36.41 C20.7118852,36.340108 21.5581148,36.340108 22.4,36.41 C23.2333333,36.4833333 24.0133333,36.5333333 24.74,36.56 C25.4086798,36.5936899 26.0790482,36.5568196 26.74,36.45 C27.309125,36.3615247 27.8330013,36.0872807 28.23,35.67 C28.9417663,34.93334 29.2480338,33.8950183 29.05,32.89 C28.8013185,31.6632835 28.1502399,30.5546902 27.2,29.74 C25.5638041,28.1394053 23.0985012,27.7391938 21.04,28.74 C20.7931492,28.8485706 20.5291281,28.9128834 20.26,28.93 C19.9837106,28.9134302 19.7266465,28.7830878 19.55,28.57 L17.13,26.26 C16.9557918,26.1024224 16.8484576,25.8841762 16.83,25.65 C16.8173652,25.399842 16.9119309,25.1561535 17.09,24.98 C17.8463717,24.2606585 18.7660256,23.7356322 19.77,23.45 C20.9104223,23.1089926 22.1017318,22.9702321 23.29,23.04 C24.5980187,23.1196702 25.8845845,23.4100761 27.1,23.9 C28.4002947,24.412576 29.586382,25.1772455 30.59,26.15 L30.63,26.15 Z" id="Shape" fill="#5BD989"></path>
                        <g id="Group" opacity="0.6" transform="translate(8.000000, 23.000000)" fill="#FFFFFF">
                            <path d="M7.63,21.28 C7.84071975,21.4868457 7.95943203,21.7697239 7.95943203,22.065 C7.95943203,22.3602761 7.84071975,22.6431543 7.63,22.85 L5.13,25.49 C4.92748049,25.7052945 4.6455716,25.8281779 4.35,25.83 C4.05398688,25.8407473 3.76595686,25.7327361 3.55,25.53 L1,23.08 C0.784705463,22.8774805 0.661822103,22.5955716 0.66,22.3 C0.644575418,22.0032449 0.753252089,21.7134404 0.96,21.5 L3.47,18.87 C3.90574792,18.4418114 4.60425208,18.4418114 5.04,18.87 L7.63,21.28 Z M22.63,3.15 C23.5599441,4.03101993 24.3581396,5.04139395 25,6.15 C25.6185981,7.20049066 26.0484254,8.35120939 26.27,9.55 C26.4574116,10.6991121 26.3994752,11.8748794 26.1,13 C25.4548889,15.1524867 23.9342563,16.9344213 21.91,17.91 C21.1275459,18.2554109 20.2987717,18.484503 19.45,18.59 C18.623422,18.6829813 17.7904963,18.7063969 16.96,18.66 L14.6,18.53 C13.8959689,18.491967 13.1899623,18.515389 12.49,18.6 C11.8628195,18.6692101 11.2672713,18.9115844 10.77,19.3 C10.5347296,19.4778192 10.2538742,19.5853071 9.96,19.61 C9.67561542,19.641899 9.39218738,19.5425152 9.19,19.34 L6.92,17.18 C6.70139337,16.9738156 6.57217551,16.6902542 6.56,16.39 C6.53089128,16.0901573 6.65042463,15.7950593 6.88,15.6 C7.57684975,14.9072546 8.40689794,14.3629607 9.32,14 C10.1412311,13.694959 10.9982438,13.4966698 11.87,13.41 C12.7118852,13.340108 13.5581148,13.340108 14.4,13.41 C15.2333333,13.4833333 16.0133333,13.5333333 16.74,13.56 C17.4086798,13.5936899 18.0790482,13.5568196 18.74,13.45 C19.309125,13.3615247 19.8330013,13.0872807 20.23,12.67 C20.9417663,11.93334 21.2480338,10.8950183 21.05,9.89 C20.8013185,8.6632835 20.1502399,7.55469015 19.2,6.74 C17.5638041,5.13940527 15.0985012,4.73919375 13.04,5.74 C12.7931492,5.84857055 12.5291281,5.91288338 12.26,5.93 C11.9837106,5.91343015 11.7266465,5.78308775 11.55,5.57 L9.13,3.26 C8.95579181,3.10242242 8.84845762,2.88417623 8.83,2.65 C8.81736516,2.39984202 8.91193087,2.15615346 9.09,1.98 C9.84637174,1.26065847 10.7660256,0.735632217 11.77,0.45 C12.9104223,0.108992615 14.1017318,-0.0297678666 15.29,0.04 C16.5980187,0.119670211 17.8845845,0.41007613 19.1,0.9 C20.4002947,1.412576 21.586382,2.17724551 22.59,3.15 L22.63,3.15 Z" id="Shape"></path>
                        </g>
                    </g>
                </g>
            </g>
            <g id="freepik--character-1--inject-98" transform="translate(0.000000, 8.000000)">
                <g id="freepik--character--inject-98">
                    <g id="freepik--bottom--inject-98" transform="translate(56.000000, 141.000000)">
                        <path d="M2.81,149.71 C5.98,151.64 10.19,151.71 14.16,150.32 L17.16,129.32 L3.16,125.74 L2.81,149.71 Z" id="Path" fill="#FFA8A7"></path>
                        <path d="M25.4,169.81 C25.75,170.17 25.54,172.81 25.11,173.4 C24.68,173.99 22.27,175.99 17.83,176.07 C13.6,176.14 9.83,175.37 7.47,173.66 C5.11,171.95 3.98,170.16 3.87,167.74 C3.76,165.32 4.16,163.03 3.12,161.12 C2.08,159.21 0.83,157.61 0.51,156.67 C0.134355631,154.967137 0.134355631,153.202863 0.51,151.5 L25.4,169.81 Z" id="Path" fill="#263238"></path>
                        <path d="M15.13,149.44 C15.1497119,150.351839 15.2772656,151.258142 15.51,152.14 C16.0552803,154.031234 16.824036,155.850734 17.8,157.56 C18.2854125,158.452058 18.8299618,159.310642 19.43,160.13 C20.62,161.72 22.14,163.05 23.43,164.58 C24.7993773,166.029957 25.6229251,167.910332 25.76,169.9 C25.76,173.22 22.11,174.15 19.32,174.49 C16.2882285,174.85999 13.2120535,174.542119 10.32,173.56 C7.22849172,172.571579 5.00237225,169.864242 4.63,166.64 C4.52,165.71 4.63,164.78 4.57,163.85 C4.3209702,161.716285 3.54424358,159.678237 2.31,157.92 C1.59243171,156.902527 0.988811105,155.809303 0.51,154.66 C-0.25,152.57 0.57,150.3 1.23,148.29 C1.8,146.56 2.23,144.47 2.87,144.67 C2.87,145.02 2.87,145.8 2.87,145.8 C3.05,146.19 3.49,146.47 3.6,146.93 C3.70376461,147.40466 3.84761383,147.869661 4.03,148.32 C4.30233136,149.016207 4.78464727,149.610364 5.41,150.02 C5.52,148.77 5.63,147.52 5.73,146.28 C5.67247138,145.880702 5.80212675,145.477168 6.0814678,145.186107 C6.36080884,144.895045 6.75867601,144.748923 7.16,144.79 C9.5057629,144.361035 11.9030087,144.29023 14.27,144.58 C14.6301043,144.606984 14.9646924,144.776077 15.2,145.05 C15.3220913,145.315601 15.3604578,145.612069 15.31,145.9 C15.1862187,147.075892 15.1261309,148.257618 15.13,149.44 Z" id="Path" fill="#5BD989"></path>
                        <path d="M15.13,149.44 C15.1497119,150.351839 15.2772656,151.258142 15.51,152.14 C16.0552803,154.031234 16.824036,155.850734 17.8,157.56 C18.2854125,158.452058 18.8299618,159.310642 19.43,160.13 C20.62,161.72 22.14,163.05 23.43,164.58 C24.7993773,166.029957 25.6229251,167.910332 25.76,169.9 C25.76,173.22 22.11,174.15 19.32,174.49 C16.2882285,174.85999 13.2120535,174.542119 10.32,173.56 C7.22849172,172.571579 5.00237225,169.864242 4.63,166.64 C4.52,165.71 4.63,164.78 4.57,163.85 C4.3209702,161.716285 3.54424358,159.678237 2.31,157.92 C1.59243171,156.902527 0.988811105,155.809303 0.51,154.66 C-0.25,152.57 0.57,150.3 1.23,148.29 C1.8,146.56 2.23,144.47 2.87,144.67 C2.87,145.02 2.87,145.8 2.87,145.8 C3.05,146.19 3.49,146.47 3.6,146.93 C3.70376461,147.40466 3.84761383,147.869661 4.03,148.32 C4.30233136,149.016207 4.78464727,149.610364 5.41,150.02 C5.52,148.77 5.63,147.52 5.73,146.28 C5.67247138,145.880702 5.80212675,145.477168 6.0814678,145.186107 C6.36080884,144.895045 6.75867601,144.748923 7.16,144.79 C9.5057629,144.361035 11.9030087,144.29023 14.27,144.58 C14.6301043,144.606984 14.9646924,144.776077 15.2,145.05 C15.3220913,145.315601 15.3604578,145.612069 15.31,145.9 C15.1862187,147.075892 15.1261309,148.257618 15.13,149.44 Z" id="Path" fill="#000000" opacity="0.2"></path>
                        <path d="M18.21,158.28 C17.03,157.28 14.27,157.13 12.75,157.21 C11.2100998,157.261546 9.70766932,157.698179 8.38,158.48 C7.97563914,158.726446 7.45385852,158.655483 7.13,158.31 L7.13,158.31 C6.94301789,158.112689 6.85286594,157.842788 6.8837318,157.572712 C6.91459766,157.302636 7.06332117,157.060035 7.29,156.91 C8.75949818,155.952359 10.4665216,155.422593 12.22,155.38 C16,155.32 17,156 17,156 C17,156 18.64,157.2 18.21,158.28 Z" id="Path" fill="#455A64"></path>
                        <path d="M20.86,161.82 C19.36,160.82 16.32,160.82 14.8,160.87 C13.2883494,160.941501 11.8223316,161.410627 10.55,162.23 C10.1433994,162.481991 9.61528032,162.410736 9.29,162.06 L9.29,162.06 C9.1005212,161.862901 9.00970152,161.591055 9.04265855,161.319644 C9.07561559,161.048233 9.22885645,160.806023 9.46,160.66 C10.9380541,159.648801 12.6706557,159.073578 14.46,159 C18.19,158.93 19.12,159.75 19.12,159.75 C19.9890179,160.13364 20.6314905,160.897961 20.86,161.82 Z" id="Path" fill="#455A64"></path>
                        <path d="M10.93,151.75 C12.5092378,151.560884 14.1105716,151.781282 15.58,152.39 C16.21,152.8 16.58,153.85 16.15,154.09 C14.8530913,153.488122 13.4273377,153.216713 12,153.3 C10.602442,153.361904 9.22583857,153.66293 7.93,154.19 C7.6,154.31 7.22,154.49 6.93,154.65 C6.71400601,154.760688 6.46159432,154.776119 6.23372536,154.692567 C6.0058564,154.609015 5.82324718,154.434076 5.73,154.21 L5.73,154.21 C5.60059939,153.828673 5.76001417,153.40916 6.11,153.21 C7.59446717,152.385886 9.23774496,151.88813 10.93,151.75 Z" id="Path" fill="#455A64"></path>
                        <path d="M42.27,141.82 C44.71,147.93 48.53,146.05 54.35,142.53 L55.23,121.67 L40.42,120.3 L42.27,141.82 Z" id="Path" fill="#FFA8A7"></path>
                        <path d="M76.69,156.53 C76.9601702,157.511795 76.8457267,158.559668 76.37,159.46 C75.91,160.3 71.28,162.6 65.23,161.86 C60.7441156,161.307756 56.4890672,159.560147 52.91,156.8 C50.68,155.14 48.29,154.73 45.29,154.39 C42.29,154.05 40.04,153.01 39.45,151.57 C38.86,150.13 39.76,147.75 39.76,147.75 L76.69,156.53 Z" id="Path" fill="#263238"></path>
                        <path d="M53.13,137.3 C53.6767701,137.184532 54.2147593,137.030821 54.74,136.84 C55.0335878,136.731259 55.3564122,136.731259 55.65,136.84 C56.03,137.01 56.15,137.47 56.24,137.84 C56.325367,138.744897 56.4995389,139.639203 56.76,140.51 C57.1691494,141.232557 57.7121549,141.870588 58.36,142.39 C59.8012818,143.679909 61.3731105,144.81605 63.05,145.78 C64.98,146.96 66.88,147.89 68.87,148.92 C70.86,149.95 73.65,150.69 75.23,151.92 C77.52,153.66 77.61,157.71 74.81,159.15 C72.4,160.4 66.16,161.56 59.81,159.38 C56.34,158.19 52.64,154.22 48.04,153.61 C45.11,153.23 41.21,152.77 39.44,150.44 C38.8,149.44 39.36,146.54 39.88,143.15 C40.35,140.15 40.78,135.35 41.75,135.67 L41.82,136.59 L43,138 C43.2584955,138.275166 43.5322611,138.535577 43.82,138.78 C44.1357734,139.149496 44.469509,139.503256 44.82,139.84 C45.2954604,140.247192 45.8863878,140.495451 46.51,140.55 C46.8056258,140.56865 47.1004515,140.502748 47.36,140.36 C47.86,140.08 47.93,139.42 48.36,139.01 C48.8250584,138.531803 49.3832158,138.154026 50,137.9 C50.8566536,137.59506 51.752251,137.413247 52.66,137.36 C52.8178008,137.3502 52.9747982,137.330158 53.13,137.3 L53.13,137.3 Z" id="Path" fill="#5BD989"></path>
                        <path d="M53.13,137.3 C53.6767701,137.184532 54.2147593,137.030821 54.74,136.84 C55.0335878,136.731259 55.3564122,136.731259 55.65,136.84 C56.03,137.01 56.15,137.47 56.24,137.84 C56.325367,138.744897 56.4995389,139.639203 56.76,140.51 C57.1691494,141.232557 57.7121549,141.870588 58.36,142.39 C59.8012818,143.679909 61.3731105,144.81605 63.05,145.78 C64.98,146.96 66.88,147.89 68.87,148.92 C70.86,149.95 73.65,150.69 75.23,151.92 C77.52,153.66 77.61,157.71 74.81,159.15 C72.4,160.4 66.16,161.56 59.81,159.38 C56.34,158.19 52.64,154.22 48.04,153.61 C45.11,153.23 41.21,152.77 39.44,150.44 C38.8,149.44 39.36,146.54 39.88,143.15 C40.35,140.15 40.78,135.35 41.75,135.67 L41.82,136.59 L43,138 C43.2584955,138.275166 43.5322611,138.535577 43.82,138.78 C44.1357734,139.149496 44.469509,139.503256 44.82,139.84 C45.2954604,140.247192 45.8863878,140.495451 46.51,140.55 C46.8056258,140.56865 47.1004515,140.502748 47.36,140.36 C47.86,140.08 47.93,139.42 48.36,139.01 C48.8250584,138.531803 49.3832158,138.154026 50,137.9 C50.8566536,137.59506 51.752251,137.413247 52.66,137.36 C52.8178008,137.3502 52.9747982,137.330158 53.13,137.3 L53.13,137.3 Z" id="Path" fill="#000000" opacity="0.2"></path>
                        <path d="M60.4,144 C60.0091393,143.156349 59.2197661,142.566198 58.3,142.43 C56.98,142.11 54.57,142.97 53.04,144.1 C52.7449827,144.314522 52.5754953,144.661338 52.5875141,145.025906 C52.5995328,145.390475 52.7914943,145.725375 53.1,145.92 L53.1,145.92 C53.4944263,146.158019 53.9943661,146.130245 54.36,145.85 C56.0518386,144.463279 58.2217503,143.798654 60.4,144 Z" id="Path" fill="#455A64"></path>
                        <path d="M64.41,146.57 C63.8629179,145.706527 62.9308616,145.162206 61.91,145.11 C59.8469534,145.08937 57.8304338,145.723033 56.15,146.92 C55.8611025,147.119827 55.6886871,147.448727 55.6886871,147.8 C55.6886871,148.151273 55.8611025,148.480173 56.15,148.68 L56.15,148.68 C56.533361,148.911171 57.0201094,148.879253 57.37,148.6 C59.2838246,146.884285 61.8764968,146.136682 64.41,146.57 L64.41,146.57 Z" id="Path" fill="#455A64"></path>
                        <path d="M68.87,148.91 C68.2395945,148.106298 67.2903584,147.617077 66.27,147.57 C64.2789625,147.586084 62.3437618,148.229984 60.74,149.41 C60.4576473,149.619507 60.2962365,149.954356 60.3082156,150.305743 C60.3201947,150.65713 60.5040348,150.980208 60.8,151.17 L60.8,151.17 C61.1731355,151.421595 61.6683669,151.392945 62.01,151.1 C63.8202859,149.323934 66.3654706,148.511404 68.87,148.91 Z" id="Path" fill="#455A64"></path>
                        <path d="M2.42,93.41 C2.87,83.34 5.01,78.1 5.31,75.31 C5.31,75.31 6.13,19.91 7.48,3.1 L57.08,0.99 C57.81,18.99 58.47,67.35 58.08,73.75 C57.71,79.88 55.22,133.05 55.22,133.05 C48.22,135.24 40.75,132.05 40.75,132.05 C40.75,132.05 36.59,101.8 35.91,95.13 C35.4273388,89.1305887 35.5815323,83.0969269 36.37,77.13 L33.2,34.06 C33.2,34.06 29.37,67.46 27.48,80.06 C25.32,94.47 16,139.14 16,139.14 C9.3,140.81 2.78,137.92 2.78,137.92 C2.78,137.92 1.76,108 2.42,93.41 Z" id="Path" fill="#455A64"></path>
                        <path d="M33.21,34.1 L34.15,28.16 C37.04,27.73 44.36,23.16 48.69,19.16 C45.6055157,23.8273184 41.4322761,27.6745236 36.53,30.37 L36.38,77.15 L33.21,34.1 Z" id="Path" fill="#37474F"></path>
                    </g>
                    <g id="freepik--top--inject-98" transform="translate(0.000000, 18.000000)">
                        <path d="M109.55,94.81 C106.18,87.12 100.38,74.17 100.38,74.17 L98.91,53.17 C101.055742,53.238367 103.195862,53.4286741 105.32,53.74 C108.44,54.23 113.39,57.21 115.65,62.83 C117.34,67 126.12,92.44 126.12,92.44 L141.42,84.38 C145.34,81.89 146.73,77.76 149.23,75.38 C151.73,73 154.23,72.64 157,70.73 C159.77,68.82 160.86,67.29 161.56,69.2 C162.26,71.11 159.16,74.04 158.56,74.77 C157.96,75.5 154.95,77.06 158.79,77.26 C162.63,77.46 170.4,73.72 172.26,73.08 C174.12,72.44 173.96,74.65 172.99,76.02 C172.02,77.39 171.92,81.41 170.3,83.66 C168.58,86.06 167.65,87.09 163.96,88.52 C160.53,89.84 153.42,90.18 149.76,92.29 C146.1,94.4 137.24,102.41 131.33,106.52 C123.4,112.04 118.94,112.4 115.83,108 C112.72,103.6 110.74,97.52 109.55,94.81 Z" id="Path" fill="#FFA8A7"></path>
                        <path d="M96.84,52.72 C102.04,52.32 108.17,52.64 111.56,55.72 C114.27,58.19 115.29,59.72 118.31,68.26 C120.31,73.99 124.59,87.19 124.59,87.19 C118.713534,88.5157738 113.440036,91.7466704 109.59,96.38 L99.84,74.47 L96.84,52.72 Z" id="Path" fill="#E0E0E0"></path>
                        <path d="M126.12,92.39 C123.484755,93.3230307 121.217429,95.0752148 119.65,97.39 C119.65,97.39 120.02,93.39 125.65,91 L126.12,92.39 Z" id="Path" fill="#F28F8F"></path>
                        <path d="M84.39,51.78 C81.9269983,51.6784527 79.4627382,51.9481392 77.08,52.58 C72.51,53.79 64.32,56.09 64.32,56.09 C61.72,57.44 60.71,61.94 60.12,64.53 C58.24,72.82 63.12,91.53 63.87,98.82 C64.62,106.11 63,128.44 63,128.44 C68.59,134.92 98.88,139.22 113.63,128.44 C113.63,128.44 114.27,77.17 112.82,69.81 C110.62,58.67 107.35,53.38 95.82,52.71 L84.39,51.78 Z" id="Path" fill="#F5F5F5"></path>
                        <path d="M90.86,24.28 L87.57,26.09 C87.0977277,25.1500678 87.4342708,24.004947 88.34,23.47 C88.7793845,23.2314143 89.2972551,23.1829942 89.7732522,23.3359933 C90.2492492,23.4889923 90.641919,23.8300861 90.86,24.28 L90.86,24.28 Z" id="Path" fill="#263238"></path>
                        <path d="M105.17,25.6 L102.17,23.29 C102.454819,22.8799594 102.895575,22.6049247 103.389068,22.5292936 C103.882561,22.4536625 104.385455,22.5840765 104.78,22.89 C105.60484,23.5488386 105.775587,24.7353067 105.17,25.6 Z" id="Path" fill="#263238"></path>
                        <path d="M75.74,13.81 C75.74,13.81 72.2,14.3 70.9,17 C69.78,19.32 70.18,24.92 71.69,31 C72.5433366,34.944863 73.817288,38.7868321 75.49,42.46 C76.0809039,43.5007028 77.0465504,44.2767965 78.19,44.63 L78,37.37 L77.74,32.37 C77.74,32.37 80.97,27.95 81.33,24.37 C81.79,19.71 80.81,17.8 80.81,17.8 L75.74,13.81 Z" id="Path" fill="#263238"></path>
                        <path d="M81.4499384,20.81 C81.4775629,28.2706905 87.5392668,34.3010794 95,34.2900152 C102.46,34.2900152 108.06,28.14 108,20.67 C107.94,13.2 102.34,7.22 94.87,7.24988762 C87.426567,7.3050233 81.427774,13.3663968 81.4499384,20.81 L81.4499384,20.81 Z" id="Path" fill="#263238"></path>
                        <path d="M78,31.52 C76.78,32.58 75.79,29.85 74.77,28.78 C73.75,27.71 70.4,26.27 68.77,29.78 C67.14,33.29 70.23,38.38 72.77,39.36 C74.3483123,39.9575942 76.1305136,39.395229 77.08,38 L77.08,54 C80.93,60.94 87.72,60.72 91.35,60.33 C94.98,59.94 95.77,56.17 93.12,53.13 L93.12,48.13 C95.1369125,48.4464916 97.1821592,48.5437247 99.22,48.42 C102.54,47.9 104.22,45.42 105.22,41.79 C106.82,36 107.47,26.28 105.22,15.05 C101.5,12.17 88.6,12.65 80.79,17.6 C81.4,27.67 79.16,30.47 78,31.52 Z" id="Path" fill="#FFA8A7"></path>
                        <path d="M105.88,9.49 C106.382382,7.40535141 106.607658,5.2635539 106.55,3.12 C106.55,2.28 106.34,1.26 105.55,0.94 C104.76,0.62 103.98,1.2 103.3,1.66 C100.42,3.6 96.84,4.15 93.37,4.34 C87.37,4.67 78.2,4.28 75.15,10.85 C74.3,12.67 74.15,14.59 75.83,15.85 C77.327832,16.8533495 79.0405792,17.4904914 80.83,17.71 C83.83,18.24 86.83,18.9 89.91,19.31 C92.99,19.72 96.65,20.12 99.7,19.18 C102.27,18.39 104.88,17.71 106.79,15.67 C108.445484,13.8911896 109.379471,11.5597861 109.41,9.13 C109.41,8.79 109.34,8.36 109,8.27 C108.830118,8.24864978 108.657931,8.28379005 108.51,8.37 L105.88,9.49 Z" id="Path" fill="#263238"></path>
                        <path d="M93.09,48.24 C93.09,48.24 85.67,46.77 83.09,45.4 C81.5617477,44.6082755 80.3072958,43.3747311 79.49,41.86 C79.8700436,43.3731988 80.5501616,44.7946455 81.49,46.04 C83.4,48.46 93.07,50.21 93.07,50.21 L93.09,48.24 Z" id="Path" fill="#F28F8F"></path>
                        <path d="M91.6,29.19 C91.5725833,30.1053047 90.8131975,30.8278146 89.897662,30.809672 C88.9821265,30.7915295 88.2519605,30.0395023 88.260827,29.12383 C88.2696934,28.2081577 89.0142848,27.4704105 89.93,27.47 C90.8649859,27.4864359 91.611146,28.2549361 91.6,29.19 Z" id="Path" fill="#263238"></path>
                        <path d="M94,40.74 C94.0167722,41.6198977 93.3197865,42.3481584 92.44,42.37 C91.5547193,42.3535715 90.8488484,41.6253629 90.86,40.74 C90.851968,40.3182842 91.0118298,39.9106576 91.3044026,39.6068321 C91.5969753,39.3030066 91.9982814,39.1278819 92.42,39.12 C93.301346,39.1364075 94.0056279,39.8585192 94,40.74 Z" id="Path" fill="#B16668"></path>
                        <path d="M89.5,23.94 L86.06,26.11 C85.4701819,25.1286449 85.7616973,23.8565774 86.72,23.23 C87.1808338,22.9475358 87.7363747,22.8636222 88.2600773,22.9973736 C88.7837798,23.1311249 89.2310481,23.4711517 89.5,23.94 Z" id="Path" fill="#263238"></path>
                        <path d="M101.64,21.82 L105.26,23.44 C105.06268,23.9201837 104.67747,24.2987149 104.193909,24.4876061 C103.710347,24.6764972 103.170554,24.6592957 102.7,24.44 C101.720216,23.9741513 101.259775,22.8360815 101.64,21.82 L101.64,21.82 Z" id="Path" fill="#263238"></path>
                        <path d="M103.55,28.69 C103.517187,29.5693157 102.784498,30.2594049 101.904795,30.2395518 C101.025091,30.2196986 100.324281,29.4972583 100.331169,28.6173576 C100.338058,27.7374568 101.050093,27.0260774 101.93,27.02 C102.837372,27.0364319 103.561149,27.7825478 103.55,28.69 Z" id="Path" fill="#263238"></path>
                        <polygon id="Path" fill="#F28F8F" points="95.37 25.87 95.97 36.99 101.24 35.59"></polygon>
                        <path d="M2,71.67 C3.73,72.6 10.78,77.56 14.61,77.99 C16.23,78.17 16.67,77.91 16.61,77.49 C16.53,76.91 15.5,76.04 15.25,75.57 C14.82,74.75 12.25,71.35 13.25,69.57 C14.25,67.79 15.12,69.49 17.5,71.82 C19.88,74.15 22.32,74.96 24.41,77.67 C26.5,80.38 27.2,84.67 30.66,87.78 L44.44,97.19 C44.44,97.19 50.86,67.4 53.68,63.89 C56.68,60.2 69.55,68.24 66.85,79.97 C64.15,91.7 58,112.06 53.72,116.05 C50.96,118.64 45.15,116.2 37.9,109.75 C32.17,104.65 24.32,97 21,94.29 C17.68,91.58 10.78,90.12 7.61,88.29 C4.2,86.29 3.45,85.12 2.14,82.47 C0.91,79.98 1.46,75.99 0.73,74.47 C0,72.95 0.24,70.74 2,71.67 Z" id="Path" fill="#FFA8A7"></path>
                        <path d="M64.32,56.09 C68.74,58.85 68.96,62.87 69.18,67.47 C69.2426011,72.8545739 68.3904915,78.2106909 66.66,83.31 C64.79,89.1 61.82,99.67 61.82,99.67 C61.82,99.67 50.28,99.94 44.34,94.81 C44.34,94.81 47.05,83.41 48.96,74.81 C50.87,66.21 53.19,57.06 64.32,56.09 Z" id="Path" fill="#E0E0E0"></path>
                        <path d="M44.39,97.21 C47.54,98.96 49.39,102.72 49.96,104.21 C49.6833292,100.690548 47.734266,97.5177408 44.72,95.68 L44.39,97.21 Z" id="Path" fill="#F28F8F"></path>
                    </g>
                    <g id="freepik--Outlet--inject-98" transform="translate(164.000000, 286.000000)">
                        <polygon id="Path" fill="#5BD989" points="0.11 45.34 77.29 89.9 77.29 106.32 0.11 61.76"></polygon>
                        <polygon id="Path" fill="#000000" opacity="0.35" points="0.11 45.34 77.29 89.9 77.29 106.32 0.11 61.76"></polygon>
                        <polygon id="Path" fill="#5BD989" points="154.47 45.34 77.29 89.9 77.29 106.32 154.47 61.76"></polygon>
                        <polygon id="Path" fill="#000000" opacity="0.2" points="154.47 45.34 77.29 89.9 77.29 106.32 154.47 61.76"></polygon>
                        <polygon id="Path" fill="#5BD989" points="154.47 45.34 77.29 0.79 0.11 45.34 77.29 89.9"></polygon>
                        <polygon id="Path" fill="#000000" opacity="0.15" points="154.47 45.34 77.29 0.79 0.11 45.34 77.29 89.9"></polygon>
                        <polygon id="Path" fill="#000000" opacity="0.1" points="77.29 89.9 77.29 85.21 8.23 45.34 0.11 45.34"></polygon>
                        <polygon id="Path" fill="#000000" opacity="0.1" points="77.29 0.79 77.29 5.48 146.35 45.34 154.47 45.34"></polygon>
                        <polygon id="Path" fill="#5BD989" points="154.47 45.34 146.35 45.34 77.29 85.21 77.29 89.9"></polygon>
                        <polygon id="Path" fill="#5BD989" points="77.29 0.79 77.29 5.48 8.23 45.34 0.11 45.34"></polygon>
                        <path d="M77.57,26 L110.73,45.14 C113.21,46.58 113.21,48.9 110.73,50.33 L86,64.65 C83.1737823,66.094087 79.8262177,66.094087 77,64.65 L43.84,45.51 C41.36,44.07 41.36,41.75 43.84,40.32 L68.58,26 C71.4035103,24.559317 74.7464897,24.559317 77.57,26 Z" id="Path" fill="#37474F"></path>
                        <path d="M86,64.65 L109.91,50.84 L77.57,32.17 C74.7395243,30.7437141 71.4004757,30.7437141 68.57,32.17 L44.66,46 L77,64.65 C79.8262177,66.094087 83.1737823,66.094087 86,64.65 L86,64.65 Z" id="Path" fill="#455A64"></path>
                        <path d="M57.54,45.37 L72.05,37 C72.5974769,36.7253118 73.2425231,36.7253118 73.79,37 L75.57,38 C76.05,38.27 76.05,38.72 75.57,39 L61.06,47.37 C60.5160042,47.6445193 59.8739958,47.6445193 59.33,47.37 L57.55,46.37 C57.3370125,46.297539 57.1929802,46.0985077 57.1907038,45.8735427 C57.1884809,45.6485777 57.3285041,45.4467059 57.54,45.37 L57.54,45.37 Z" id="Path" fill="#263238"></path>
                        <path d="M79.21,57.9 L93.72,49.53 C94.2639958,49.2554807 94.9060042,49.2554807 95.45,49.53 L97.24,50.53 C97.72,50.8 97.72,51.25 97.24,51.53 L82.73,59.9 C82.1860042,60.1745193 81.5439958,60.1745193 81,59.9 L79.22,58.9 C79.0070125,58.827539 78.8629802,58.6285077 78.8607038,58.4035427 C78.8584809,58.1785777 78.9985041,57.9767059 79.21,57.9 Z" id="Path" fill="#263238"></path>
                        <path d="M43.76,77.77 C43.594489,74.6914506 41.9664938,71.8777693 39.38,70.2 C38.4817503,69.5440598 37.2976518,69.4290988 36.29,69.9 L34.4,71 C33.4940483,71.6387694 33.0043918,72.7175439 33.12,73.82 C33.2881055,76.8979176 34.9106059,79.7122317 37.49,81.4 C38.3921414,82.0556369 39.5788793,82.1704825 40.59,81.7 L42.47,80.57 C43.3697714,79.9345059 43.8616496,78.8668631 43.76,77.77 L43.76,77.77 Z" id="Path" fill="#5BD989"></path>
                        <path d="M37.49,71.33 C40.0764938,73.0077693 41.704489,75.8214506 41.87,78.9 C41.87,81.69 39.87,82.82 37.49,81.43 C34.9106059,79.7422317 33.2881055,76.9279176 33.12,73.85 C33.12,71.07 35.08,69.94 37.49,71.33 Z" id="Path" fill="#000000" opacity="0.1"></path>
                    </g>
                    <g id="freepik--Cable--inject-98" transform="translate(79.000000, 93.000000)" fill="#37474F">
                        <path d="M71.76,296.27 C66.8802906,296.355183 62.0602091,295.188034 57.76,292.88 L6.56,263.32 C2.45,260.94 0.18,257.66 0.18,254.08 C0.18,250.5 2.45,247.23 6.56,244.85 L65.88,210.6 C72.38,206.85 77.88,197.34 77.88,189.83 L77.88,2.1 C77.88,0.9954305 78.7754305,0.1 79.88,0.1 C80.9845695,0.1 81.88,0.9954305 81.88,2.1 L81.88,189.83 C81.88,198.89 75.74,209.54 67.88,214.07 L8.56,248.32 C5.74,249.95 4.18,251.99 4.18,254.08 C4.18,256.17 5.74,258.22 8.56,259.85 L59.76,289.41 C66.37,293.23 77.13,293.23 83.76,289.41 L121.51,267.63 C122.129978,267.235881 122.916124,267.213385 123.557626,267.571404 C124.199127,267.929424 124.592711,268.610323 124.582952,269.3449 C124.572825,270.079477 124.160957,270.749474 123.51,271.09 L85.76,292.88 C81.4605947,295.190137 76.6399564,296.35742 71.76,296.27 Z" id="Path"></path>
                    </g>
                    <g id="freepik--exclamation-marks--inject-98" transform="translate(38.000000, 0.000000)">
                        <path d="M22.92,23.31 C22.8601435,23.0358814 22.9182002,22.7492262 23.08,22.52 C23.2324387,22.2802018 23.4796942,22.1165768 23.76,22.07 L28.62,21.13 C28.8972866,21.0671832 29.1882034,21.1253665 29.42,21.29 C29.652327,21.4499106 29.8136253,21.6936504 29.87,21.97 L30.62,25.87 C30.676992,26.1455228 30.6152788,26.4323076 30.45,26.66 C30.3018535,26.9012645 30.0583809,27.0684247 29.78,27.12 L24.91,28.05 C24.6358814,28.1098565 24.3492262,28.0517998 24.12,27.89 C23.8802018,27.7375613 23.7165768,27.4903058 23.67,27.21 L22.92,23.31 Z M18.86,2.25 C18.8042627,1.9727083 18.8616563,1.68464106 19.0194123,1.44988508 C19.1771683,1.21512911 19.4222019,1.05315593 19.7,1 L24.57,0.06 C24.8455228,0.00300798418 25.1323076,0.0647211598 25.36,0.23 C25.5974665,0.380195204 25.7607891,0.623364457 25.81,0.9 L29,17.57 C29.056992,17.8455228 28.9952788,18.1323076 28.83,18.36 C28.6798048,18.5974665 28.4366355,18.7607891 28.16,18.81 L23.29,19.75 C23.0144772,19.806992 22.7276924,19.7452788 22.5,19.58 C22.2625335,19.4298048 22.0992109,19.1866355 22.05,18.91 L18.86,2.25 Z" id="Shape" fill="#5BD989"></path>
                        <path d="M14.8,39.63 C14.6111492,39.4207334 14.5134278,39.1448649 14.5284401,38.8633835 C14.5434525,38.5819021 14.669962,38.3179925 14.88,38.13 L18.57,34.82 C18.7782888,34.6282404 19.0581005,34.5337585 19.34,34.56 C19.6202298,34.5660174 19.8850703,34.6893677 20.07,34.9 L22.72,37.9 C22.9088508,38.1092666 23.0065722,38.3851351 22.9915599,38.6666165 C22.9765475,38.9480979 22.850038,39.2120075 22.64,39.4 L19,42.67 C18.7917112,42.8617596 18.5118995,42.9562415 18.23,42.93 C17.9497702,42.9239826 17.6849297,42.8006323 17.5,42.59 L14.8,39.63 Z M0.49,23.63 C0.30182621,23.4190723 0.204760213,23.1422545 0.22,22.86 C0.228549914,22.5782093 0.355648212,22.3131186 0.57,22.13 L4.26,18.82 C4.46660388,18.6246151 4.746619,18.526428 5.03,18.55 C5.3117907,18.5585499 5.57688143,18.6856482 5.76,18.9 L17.08,31.56 C17.2717596,31.7682888 17.3662415,32.0481005 17.34,32.33 C17.3339826,32.6102298 17.2106323,32.8750703 17,33.06 L13.3,36.37 C13.0941369,36.5590734 12.8185369,36.6533576 12.54,36.63 C12.2562671,36.6267874 11.9872576,36.5031884 11.8,36.29 L0.49,23.63 Z" id="Shape" fill="#5BD989"></path>
                        <g id="Group" opacity="0.6" transform="translate(0.000000, 18.000000)" fill="#FFFFFF">
                            <path d="M14.8,21.63 C14.6111492,21.4207334 14.5134278,21.1448649 14.5284401,20.8633835 C14.5434525,20.5819021 14.669962,20.3179925 14.88,20.13 L18.57,16.82 C18.7782888,16.6282404 19.0581005,16.5337585 19.34,16.56 C19.6202298,16.5660174 19.8850703,16.6893677 20.07,16.9 L22.72,19.9 C22.9088508,20.1092666 23.0065722,20.3851351 22.9915599,20.6666165 C22.9765475,20.9480979 22.850038,21.2120075 22.64,21.4 L19,24.67 C18.7917112,24.8617596 18.5118995,24.9562415 18.23,24.93 C17.9497702,24.9239826 17.6849297,24.8006323 17.5,24.59 L14.8,21.63 Z M0.49,5.63 C0.30182621,5.41907234 0.204760213,5.1422545 0.22,4.86 C0.228549914,4.5782093 0.355648212,4.31311857 0.57,4.13 L4.26,0.82 C4.46660388,0.62461508 4.746619,0.526427961 5.03,0.55 C5.3117907,0.558549914 5.57688143,0.685648212 5.76,0.9 L17.08,13.56 C17.2717596,13.7682888 17.3662415,14.0481005 17.34,14.33 C17.3339826,14.6102298 17.2106323,14.8750703 17,15.06 L13.3,18.37 C13.0941369,18.5590734 12.8185369,18.6533576 12.54,18.63 C12.2562671,18.6267874 11.9872576,18.5031884 11.8,18.29 L0.49,5.63 Z" id="Shape"></path>
                        </g>
                    </g>
                </g>
            </g>
            <g id="freepik--error-404--inject-98" transform="translate(140.000000, 0.000000)">
                <g id="freepik--Text--inject-98">
                    <path d="M8,1 C9.71278819,0.892677239 11.4067081,1.40760048 12.77,2.45 C13.9524664,3.5267081 14.5785127,5.08445871 14.47,6.68 C14.5730868,8.2834418 13.9487042,9.84807106 12.77,10.94 C11.4157994,12.0043462 9.7196339,12.5377316 8,12.44 L4,12.44 L4,18.09 C4.00460708,18.2740816 3.93210239,18.4517181 3.8,18.58 C3.6734506,18.7085696 3.50040075,18.7806737 3.32,18.7800747 L1.27,18.7800747 C1.08617916,18.7827237 0.909087981,18.7109025 0.779092754,18.5809072 C0.649097526,18.450912 0.577276278,18.2738208 0.57992526,18.09 L0.57992526,1.71 C0.57992526,1.52790673 0.652994045,1.35341316 0.782689827,1.22559703 C0.912385609,1.0977809 1.08792642,1.02732216 1.27,1.03 L8,1 Z M4,9.27 L7.93,9.27 C8.7393573,9.31190744 9.5430397,9.1135962 10.24,8.7 C10.8611963,8.23312573 11.1884676,7.47202977 11.1,6.7 C11.1991908,5.92643021 10.8696907,5.16015074 10.24,4.7 C9.53606419,4.30644936 8.7354506,4.11929293 7.93,4.16 L4,4.16 L4,9.27 Z" id="Shape" fill="#455A64"></path>
                    <path d="M16.76,8.84 C16.8495518,8.4356762 17.0085769,8.04995579 17.23,7.7 C17.492119,7.2629946 17.8308691,6.87681951 18.23,6.56 C18.7268934,6.17642026 19.2846402,5.87895526 19.88,5.68 C20.6120241,5.43923527 21.3795588,5.32427413 22.15,5.34 C22.9398804,5.32755476 23.7266132,5.44235696 24.48,5.68 C25.1378804,5.88948244 25.7467057,6.22960831 26.27,6.68 C26.7774009,7.13620411 27.1712001,7.70464462 27.42,8.34 C27.7028494,9.07329346 27.8420435,9.85413868 27.83,10.64 L27.83,18.09 C27.8307198,18.2753496 27.7547643,18.4527456 27.62,18.58 C27.4941109,18.7095438 27.3206275,18.7818285 27.14,18.78 L25.22,18.78 C25.0361792,18.7827237 24.859088,18.7109025 24.7290928,18.5809072 C24.5990975,18.450912 24.5272763,18.2738208 24.53,18.09 L24.53,17.26 C24.1286408,17.7943133 23.603619,18.2232527 23,18.51 C22.2040873,18.8855815 21.3294238,19.0639442 20.45,19.03 C19.7719031,19.0442788 19.0961145,18.9462894 18.45,18.74 C17.9144769,18.571453 17.4204319,18.292062 17,17.92 C16.6153895,17.5673809 16.3088201,17.1381837 16.1,16.66 C15.8881716,16.1605433 15.7826002,15.6224698 15.79,15.08 C15.7389268,14.0204543 16.2003078,13.0009511 17.03,12.34 C18.0323222,11.6071623 19.206913,11.1455929 20.44,11 L24.57,10.29 C24.6221261,9.71372249 24.3629273,9.1533957 23.89,8.82 C23.3740246,8.52215862 22.7855345,8.37330523 22.19,8.39 C21.8472794,8.37260936 21.5051451,8.43419354 21.19,8.57 C20.9407621,8.69535641 20.7115818,8.85713071 20.51,9.05 C20.3856973,9.16496851 20.2439335,9.25947772 20.09,9.33 C19.9561661,9.38245969 19.8137475,9.40958704 19.67,9.41 L17.31,9.41 C17.1511302,9.41573817 16.9964769,9.35819275 16.88,9.25 C16.7620497,9.14934171 16.7149359,8.98836983 16.76,8.84 Z M21,16 C21.5199677,16.0080214 22.0374624,15.9268457 22.53,15.76 C22.9444492,15.6168891 23.3279208,15.3963081 23.66,15.11 C23.9490897,14.8587436 24.1809648,14.5484401 24.34,14.2 C24.4872664,13.8869395 24.5656958,13.5459418 24.57,13.2 L24.57,12.9 L21.12,13.5 C20.5915014,13.5632335 20.0830818,13.7406686 19.63,14.02 C19.3294973,14.2324645 19.156499,14.5822219 19.17,14.95 C19.1663193,15.3036112 19.3870927,15.6207222 19.72,15.74 C20.1237254,15.9154294 20.5598255,16.0040122 21,16 L21,16 Z" id="Shape" fill="#455A64"></path>
                    <path d="M37,21.31 C37.3690839,21.3086468 37.736097,21.2547733 38.09,21.15 C38.4537505,21.0427825 38.793323,20.8662048 39.09,20.63 C39.3967167,20.3822036 39.6515754,20.0763732 39.84,19.73 C40.0385557,19.3329917 40.1380558,18.8938187 40.13,18.45 L40.13,17.51 C39.9671478,17.6876691 39.7898766,17.8515613 39.6,18 C39.3536688,18.1971875 39.0851901,18.3649867 38.8,18.5 C38.4508904,18.6642772 38.0855745,18.7916351 37.71,18.88 C37.2474291,18.9846419 36.774233,19.0349819 36.3,19.03 C35.5093389,19.042912 34.7261466,18.8753294 34.01,18.54 C33.3419639,18.2252506 32.7461738,17.7758546 32.26,17.22 C31.7684607,16.6606471 31.3822341,16.016936 31.12,15.32 C30.8386346,14.6015536 30.6797641,13.8410031 30.65,13.07 C30.65,12.82 30.65,12.52 30.65,12.19 C30.65,11.86 30.65,11.55 30.65,11.3 C30.6797641,10.5289969 30.8386346,9.76844637 31.12,9.05 C31.384576,8.35419825 31.7705636,7.71088553 32.26,7.15 C32.7432599,6.59524485 33.3355537,6.14591857 34,5.83 C34.7161466,5.49467061 35.4993389,5.32708797 36.29,5.34 C36.764233,5.33501807 37.2374291,5.38535809 37.7,5.49 C38.0755745,5.57836491 38.4408904,5.70572275 38.79,5.87 C39.0751901,6.00501327 39.3436688,6.17281245 39.59,6.37 C39.7798766,6.51843869 39.9571478,6.68233093 40.12,6.86 L40.12,6.28 C40.125206,5.90496638 40.4250823,5.60068015 40.8,5.59 L42.73,5.59 C43.1045531,5.60530677 43.4046932,5.90544693 43.42,6.28 L43.42,18.17 C43.5379411,19.8886909 42.9114345,21.5751592 41.7,22.8 C40.3880447,23.8975567 38.7078606,24.4552348 37,24.36 C36.1868614,24.3659854 35.3775628,24.2479627 34.6,24.01 C33.9179722,23.8128441 33.2727871,23.5054522 32.69,23.1 C32.1785197,22.7566506 31.7372888,22.3188137 31.39,21.81 C31.0832476,21.369676 30.9002213,20.8551304 30.86,20.32 C30.8430971,20.1388462 30.9136897,19.9605069 31.05,19.84 C31.1814535,19.7126742 31.356995,19.6410246 31.54,19.64 L33.27,19.64 C33.4972435,19.635224 33.7169336,19.7216594 33.88,19.88 C34.05,20.04 34.19,20.19 34.31,20.32 C34.5479598,20.6261737 34.8568443,20.8698492 35.21,21.03 C35.7792747,21.2521361 36.3900835,21.3476816 37,21.31 L37,21.31 Z M34,11.48 C33.9499994,11.9520129 33.9499994,12.4279871 34,12.9 C34.0068566,13.7911463 34.3664137,14.6432966 35,15.27 C35.5894323,15.7568876 36.3358204,16.0127921 37.1,15.99 C37.8645239,16.012293 38.6098371,15.7484022 39.19,15.25 C39.7921714,14.712959 40.1526307,13.9559944 40.19,13.15 C40.226751,12.8179746 40.2434479,12.4840353 40.24,12.15 C40.2429972,11.8159738 40.2263016,11.4820613 40.19,11.15 C40.1038952,9.52850037 38.7432872,8.26982714 37.12,8.31 C36.3558204,8.28720795 35.6094323,8.54311244 35.02,9.03 C34.3592172,9.67278455 33.9905957,10.5581988 34,11.48 L34,11.48 Z" id="Shape" fill="#455A64"></path>
                    <path d="M46.27,12.19 C46.2655516,11.27833 46.4142881,10.3723899 46.71,9.51 C46.9884761,8.70372366 47.4272886,7.9621646 48,7.33 C48.5542201,6.705504 49.2363231,6.2075688 50,5.87 C51.6453692,5.17030277 53.5046308,5.17030277 55.15,5.87 C55.9038659,6.19320725 56.5842726,6.66608989 57.15,7.26 C57.6978989,7.85975125 58.1256316,8.55906021 58.41,9.32 C58.702956,10.1104611 58.8519752,10.9470006 58.85,11.79 L58.85,12.93 C58.856893,13.1115773 58.7837842,13.2870382 58.65,13.41 C58.5272946,13.5452844 58.3526351,13.6216979 58.17,13.62 L49.7,13.62 C49.6963004,13.9680258 49.7787492,14.3115623 49.94,14.62 C50.0978608,14.9154578 50.3199788,15.1717478 50.59,15.37 C50.8721331,15.5802384 51.1908769,15.7362194 51.53,15.83 C51.8845019,15.930865 52.2514304,15.9813598 52.62,15.98 C53.0628581,15.9919568 53.5048627,15.9345974 53.93,15.81 C54.2297018,15.7180609 54.5131414,15.5797154 54.77,15.4 C54.912047,15.2892752 55.0664022,15.1953198 55.23,15.12 C55.3832816,15.0623966 55.5463217,15.0352232 55.71,15.04 L57.71,15.04 C57.893005,15.0410246 58.0685465,15.1126742 58.2,15.24 C58.3423202,15.3605515 58.4138474,15.5450162 58.39,15.73 C58.3311684,16.0591268 58.1977597,16.3704138 58,16.64 C57.698311,17.0635195 57.3262569,17.4321913 56.9,17.73 C56.3395408,18.1180791 55.7267388,18.4244801 55.08,18.64 C54.2772228,18.9055728 53.4354485,19.0340363 52.59,19.02 C51.7055946,19.0341867 50.8276235,18.8674403 50.01,18.53 C49.2449034,18.2179873 48.5609343,17.735789 48.01,17.12 C47.4377145,16.5085522 46.9954574,15.787333 46.71,15 C46.4042874,14.0952479 46.2554778,13.1448957 46.27,12.19 L46.27,12.19 Z M52.49,8.38 C52.0594545,8.3675162 51.6308402,8.44235363 51.23,8.6 C50.9049079,8.72550701 50.6088626,8.91606493 50.36,9.16 C50.1280591,9.3743337 49.9410942,9.63268515 49.81,9.92 C49.6872463,10.1719264 49.6061926,10.4421053 49.57,10.72 L55.3,10.72 C55.2629852,10.4477608 55.199347,10.1798103 55.11,9.92 C55.0155804,9.63538531 54.8583693,9.37564514 54.65,9.16 C54.4180278,8.91439508 54.134587,8.72315796 53.82,8.6 C53.3958651,8.43836896 52.9435908,8.36355668 52.49,8.38 L52.49,8.38 Z" id="Shape" fill="#455A64"></path>
                    <path d="M79.64,18.09 C79.6426778,18.2720736 79.5722191,18.4476144 79.444403,18.5773102 C79.3165868,18.707006 79.1420933,18.7800339 78.96,18.7800339 L77,18.7800339 C76.8193725,18.7818285 76.6458891,18.7095438 76.52,18.58 C76.3852357,18.4527456 76.3092089,18.2753496 76.31,18.09 L76.31,11.65 C76.3564179,10.7828442 76.1059919,9.92575213 75.6,9.22 C75.063039,8.58226676 74.2510127,8.24330166 73.42,8.31 C72.6137921,8.2707477 71.8347833,8.60671832 71.31,9.22 C70.7636267,9.9084518 70.4863841,10.772169 70.53,11.65 L70.53,18.09 C70.5346071,18.2740816 70.4621024,18.4517181 70.33,18.58 C70.2034506,18.7085696 70.0304007,18.7806737 69.85,18.7800339 L68,18.7800339 C67.8195993,18.7806737 67.6465494,18.7085696 67.52,18.58 C67.3878976,18.4517181 67.3153929,18.2740816 67.32,18.09 L67.32,6.28 C67.313107,6.09842275 67.3862158,5.92296175 67.52,5.8 C67.6427054,5.66471563 67.8173649,5.58830211 68,5.59 L69.93,5.59 C70.1126351,5.58830211 70.2872946,5.66471563 70.41,5.8 C70.5437842,5.92296175 70.616893,6.09842275 70.61,6.28 L70.61,6.86 C71.0630687,6.41373207 71.5867961,6.04543343 72.16,5.77 C72.8176459,5.46716582 73.5362544,5.32002217 74.26,5.34 C75.1478919,5.31074722 76.0315575,5.47451536 76.85,5.82 C77.5022463,6.10954502 78.0750909,6.55204174 78.52,7.11 C78.9534553,7.66731268 79.2605488,8.31220916 79.42,9 C79.6025089,9.74277486 79.6931865,10.505138 79.6900811,11.27 L79.64,18.09 Z" id="Path" fill="#455A64"></path>
                    <path d="M88.82,5.34 C89.6793798,5.32605044 90.5338741,5.47185701 91.34,5.77 C92.061292,6.05426517 92.7227632,6.47150085 93.29,7 C93.8377616,7.50527832 94.2855527,8.10911782 94.61,8.78 C94.9426647,9.46168506 95.1364235,10.2027276 95.18,10.96 C95.1924445,11.1531331 95.1924445,11.3468669 95.18,11.54 L95.18,12.95 C95.192181,13.1398048 95.192181,13.3301952 95.18,13.52 C95.1172676,14.2752761 94.9208843,15.0134065 94.6,15.7 C94.284799,16.3679928 93.8394314,16.9663492 93.29,17.46 C92.7190602,17.9712076 92.0577422,18.3713897 91.34,18.64 C89.7210372,19.2039377 87.9589628,19.2039377 86.34,18.64 C85.6039256,18.3783596 84.9249586,17.977769 84.34,17.46 C83.7935693,16.9659548 83.3515538,16.3675338 83.04,15.7 C82.7158616,15.0139791 82.5160949,14.2758584 82.45,13.52 C82.45,13.3666667 82.45,13.1766667 82.45,12.95 C82.45,12.72 82.45,12.49 82.45,12.25 C82.45,12.01 82.45,11.78 82.45,11.54 C82.45,11.3 82.45,11.11 82.45,10.96 C82.5032057,10.2042797 82.6964919,9.46504483 83.02,8.78 C83.3444473,8.10911782 83.7922384,7.50527832 84.34,7 C84.9245624,6.47926165 85.6034616,6.07531662 86.34,5.81 C87.1309865,5.50305335 87.9715533,5.34375237 88.82,5.34 Z M91.89,11.04 C91.8554512,10.586175 91.729602,10.1440022 91.52,9.74 C91.3427719,9.41736001 91.0970106,9.13746516 90.8,8.92 C90.5205781,8.71392434 90.1999288,8.57065552 89.86,8.5 C89.5321346,8.42311674 89.196747,8.38287024 88.86,8.38 C88.5232157,8.38228444 88.1877631,8.42253876 87.86,8.5 C87.5200712,8.57065552 87.1994219,8.71392434 86.92,8.92 C86.6179567,9.13190964 86.3710684,9.41308799 86.2,9.74 C85.9857991,10.1421619 85.8596701,10.5853178 85.83,11.04 C85.83,11.18 85.83,11.35 85.83,11.55 C85.83,11.75 85.83,11.97 85.83,12.19 C85.83,12.41 85.83,12.62 85.83,12.83 C85.8213316,12.996554 85.8213316,13.163446 85.83,13.33 C85.8584423,13.7848936 85.984644,14.2283049 86.2,14.63 C86.3737746,14.9578092 86.6200175,15.2416724 86.92,15.46 C87.2039795,15.6581391 87.5229425,15.8006545 87.86,15.88 C88.1888934,15.9495343 88.523856,15.9863801 88.86,15.99 C89.1961167,15.9859294 89.5310353,15.9490883 89.86,15.88 C90.1970575,15.8006545 90.5160205,15.6581391 90.8,15.46 C91.0949478,15.2362425 91.3401388,14.9535917 91.52,14.63 C91.730905,14.2265163 91.856832,13.7840704 91.89,13.33 C91.89,13.21 91.89,13.04 91.89,12.83 L91.89,11.55 C91.91,11.35 91.9,11.18 91.89,11 L91.89,11.04 Z" id="Shape" fill="#455A64"></path>
                    <path d="M102.38,14 C102.357271,14.4577765 102.507151,14.9074164 102.8,15.26 C103.233319,15.6243825 103.797507,15.7943622 104.36,15.73 L105.91,15.73 C106.090859,15.7269747 106.264798,15.7994495 106.39,15.93 C106.519544,16.0558891 106.591828,16.2293725 106.590074,16.41 L106.590074,18.08 C106.592678,18.2620736 106.522219,18.4376144 106.394403,18.5673102 C106.266587,18.697006 106.092093,18.7700197 105.91,18.77 L104,18.77 C102.67754,18.8573115 101.370735,18.4431329 100.34,17.61 C99.4158449,16.6782743 98.9478065,15.3875122 99.06,14.08 L99.06,8.64 L97.38,8.64 C97.0050823,8.62931985 96.705206,8.32503362 96.7,7.95 L96.7,6.28 C96.705206,5.90496638 97.0050823,5.60068015 97.38,5.59 L99.06,5.59 L99.06,1.46 C99.06,1.08444637 99.3644464,0.779908943 99.74,0.779908943 L101.67,0.779908943 C101.850859,0.776974727 102.024798,0.849449495 102.15,0.98 C102.279544,1.10588912 102.351828,1.27937245 102.35,1.46 L102.35,5.59 L105.62,5.59 C105.994553,5.60530677 106.294693,5.90544693 106.31,6.28 L106.31,8 C106.294693,8.37455307 105.994553,8.67469323 105.62,8.69 L102.35,8.69 L102.38,14 Z" id="Path" fill="#455A64"></path>
                    <path d="M119,5.59 L122.52,5.59 C122.70535,5.58920887 122.882746,5.66523574 123.01,5.8 C123.139544,5.92588912 123.211828,6.09937245 123.21,6.28 L123.21,8 C123.211828,8.18062755 123.139544,8.35411088 123.01,8.48 C122.882746,8.61476426 122.70535,8.69079113 122.52,8.69 L119,8.69 L119,18.14 C119.002678,18.3220736 118.932219,18.4976144 118.804403,18.6273102 C118.676587,18.757006 118.502093,18.8300339 118.32,18.8300339 L116.39,18.8300339 C116.209372,18.8318285 116.035889,18.7595438 115.91,18.63 C115.775236,18.5027456 115.699209,18.3253496 115.7,18.14 L115.7,8.64 L114,8.64 C113.8171,8.6430051 113.641925,8.56636594 113.52,8.43 C113.386216,8.30703825 113.313107,8.13157725 113.32,7.95 L113.32,6.28 C113.313107,6.09842275 113.386216,5.92296175 113.52,5.8 C113.641925,5.66363406 113.8171,5.5869949 114,5.59 L115.67,5.59 L115.67,4.45 C115.650369,3.74611979 115.772807,3.04550322 116.03,2.39 C116.239682,1.84915412 116.583867,1.37073744 117.03,1 C117.500289,0.637073431 118.042217,0.378038681 118.62,0.24 C119.295421,0.0846900957 119.987013,0.0108308166 120.68,0.02 L122.74,0.02 C122.920859,0.016974727 123.094798,0.0894494954 123.22,0.22 C123.349544,0.345889123 123.421828,0.519372452 123.420074,0.7 L123.420074,2.37 C123.422678,2.55207358 123.352219,2.72761439 123.224403,2.85731017 C123.096587,2.98700595 122.922093,3.06001969 122.74,3.06 L121,3.06 C120.487067,3.02432218 119.975173,3.14271944 119.53,3.4 C119.148692,3.72181379 118.956658,4.215078 119.02,4.71 L119,5.59 Z" id="Path" fill="#455A64"></path>
                    <path d="M131,5.34 C131.85938,5.32605044 132.713874,5.47185701 133.52,5.77 C134.227096,6.05865753 134.874666,6.4756794 135.43,7 C135.977762,7.50527832 136.425553,8.10911782 136.75,8.78 C137.082665,9.46168506 137.276424,10.2027276 137.32,10.96 C137.332445,11.1531331 137.332445,11.3468669 137.32,11.54 L137.32,12.95 C137.332181,13.1398048 137.332181,13.3301952 137.32,13.52 C137.257268,14.2752761 137.060884,15.0134065 136.74,15.7 C136.424799,16.3679928 135.979431,16.9663492 135.43,17.46 C134.85906,17.9712076 134.197742,18.3713897 133.48,18.64 C132.682027,18.9094946 131.841663,19.0314829 131,19 C130.137374,19.0138001 129.279629,18.8680174 128.47,18.57 C127.752258,18.3013897 127.09094,17.9012076 126.52,17.39 C125.973569,16.8959548 125.531554,16.2975338 125.22,15.63 C124.891313,14.9456624 124.691318,14.2066988 124.63,13.45 C124.63,13.3 124.63,13.11 124.63,12.88 C124.63,12.65 124.63,12.42 124.63,12.18 C124.63,11.94 124.63,11.71 124.63,11.47 C124.63,11.23 124.63,11.04 124.63,10.89 C124.673576,10.1327276 124.867335,9.39168506 125.2,8.71 C125.519835,8.06733859 125.953512,7.4879733 126.48,7 C127.050542,6.48578834 127.7118,6.08225102 128.43,5.81 C129.24958,5.49343731 130.121429,5.33399408 131,5.34 L131,5.34 Z M134,11 C133.968567,10.5468797 133.846129,10.1047429 133.64,9.7 C133.462407,9.37455749 133.212701,9.09406628 132.91,8.88 C132.634175,8.67413142 132.31682,8.53080972 131.98,8.46 C131.652135,8.38311674 131.316747,8.34287024 130.98,8.34 C130.643183,8.34176737 130.307672,8.38202869 129.98,8.46 C129.640071,8.53065552 129.319422,8.67392434 129.04,8.88 C128.737957,9.09190964 128.491068,9.37308799 128.32,9.7 C128.105799,10.1021619 127.97967,10.5453178 127.95,11 C127.95,11.14 127.95,11.31 127.95,11.51 C127.95,11.71 127.95,11.93 127.95,12.15 C127.95,12.37 127.95,12.58 127.95,12.79 C127.941332,12.956554 127.941332,13.123446 127.95,13.29 C127.978442,13.7448936 128.104644,14.1883049 128.32,14.59 C128.493775,14.9178092 128.740017,15.2016724 129.04,15.42 C129.323979,15.6181391 129.642943,15.7606545 129.98,15.84 C130.308787,15.9101931 130.643816,15.9470463 130.98,15.95 C131.316117,15.9459294 131.651035,15.9090883 131.98,15.84 C132.313878,15.7603861 132.629514,15.6178407 132.91,15.42 C133.210654,15.1995561 133.459748,14.9163397 133.64,14.59 C133.84743,14.1857639 133.969944,13.7433551 134,13.29 C134.01284,13.1235806 134.01284,12.9564194 134,12.79 L134,11.55 C134.013719,11.3669233 134.013719,11.1830767 134,11 Z" id="Shape" fill="#455A64"></path>
                    <path d="M140.11,6.28 C140.115206,5.90496638 140.415082,5.60068015 140.79,5.58999389 L142.72,5.58999389 C143.094553,5.60530677 143.394693,5.90544693 143.41,6.28 L143.41,12.72 C143.36642,13.5767446 143.590058,14.4258703 144.05,15.15 C144.555129,15.7960746 145.353096,16.1423622 146.17,16.07 C146.962281,16.1149372 147.726928,15.7717789 148.22,15.15 C148.725992,14.4442479 148.976418,13.5871558 148.93,12.72 L148.93,6.28 C148.945307,5.90544693 149.245447,5.60530677 149.62,5.58999389 L151.54,5.58999389 C151.72535,5.58920887 151.902746,5.66523574 152.03,5.8 C152.159544,5.92588912 152.231828,6.09937245 152.230075,6.28 L152.230075,18.0899939 C152.232724,18.2738208 152.160902,18.450912 152.030907,18.5809072 C151.900912,18.7109025 151.723821,18.7827237 151.54,18.78 L149.62,18.78 C149.439372,18.7818285 149.265889,18.7095438 149.14,18.58 C149.005236,18.4527456 148.929209,18.2753496 148.93,18.0899939 L148.93,17.51 C148.49962,17.9096472 148.014805,18.2463241 147.49,18.51 C146.848181,18.8417262 146.132094,19.0035345 145.41,18.98 C144.531814,19.0093814 143.657892,18.845521 142.85,18.5 C142.21057,18.2123204 141.653558,17.7687737 141.23,17.21 C140.810679,16.6479755 140.514262,16.0040358 140.36,15.32 C140.189114,14.5755556 140.105219,13.8137911 140.11,13.05 L140.11,6.28 Z" id="Path" fill="#455A64"></path>
                    <path d="M168.100081,18.09 C168.102678,18.2720736 168.032219,18.4476144 167.904403,18.5773102 C167.776587,18.707006 167.602093,18.7800339 167.42,18.7800339 L165.49,18.7800339 C165.309372,18.7818285 165.135889,18.7095438 165.01,18.58 C164.875236,18.4527456 164.799209,18.2753496 164.8,18.09 L164.8,11.65 C164.846418,10.7828442 164.595992,9.92575213 164.09,9.22 C163.553039,8.58226676 162.741013,8.24330166 161.91,8.31 C161.103792,8.2707477 160.324783,8.60671832 159.8,9.22 C159.253627,9.9084518 158.976384,10.772169 159.02,11.65 L159.02,18.09 C159.024607,18.2740816 158.952102,18.4517181 158.82,18.58 C158.693451,18.7085696 158.520401,18.7806737 158.34,18.7800339 L156.41,18.7800339 C156.229599,18.7806737 156.056549,18.7085696 155.93,18.58 C155.797898,18.4517181 155.725393,18.2740816 155.73,18.09 L155.73,6.28 C155.723107,6.09842275 155.796216,5.92296175 155.93,5.8 C156.052705,5.66471563 156.227365,5.58830211 156.41,5.59 L158.34,5.59 C158.522635,5.58830211 158.697295,5.66471563 158.82,5.8 C158.953784,5.92296175 159.026893,6.09842275 159.02,6.28 L159.02,6.86 C159.473069,6.41373207 159.996796,6.04543343 160.57,5.77 C161.227646,5.46716582 161.946254,5.32002217 162.67,5.34 C163.557892,5.31074722 164.441557,5.47451536 165.26,5.82 C165.912246,6.10954502 166.485091,6.55204174 166.93,7.11 C167.363455,7.66731268 167.670549,8.31220916 167.83,9 C168.012509,9.74277486 168.103186,10.505138 168.100081,11.27 L168.100081,18.09 Z" id="Path" fill="#455A64"></path>
                    <path d="M176.54,5.34 C177.014277,5.3340924 177.487581,5.38444392 177.95,5.49 C178.325574,5.57836491 178.69089,5.70572275 179.04,5.87 C179.32519,6.00501327 179.593669,6.17281245 179.84,6.37 C180.032092,6.51581542 180.209589,6.6799169 180.37,6.86 L180.37,1.46 C180.36998,1.27790673 180.442994,1.10341316 180.57269,0.97559703 C180.702386,0.847780897 180.877926,0.777322157 181.06,0.78 L183,0.78 C183.181577,0.773107031 183.357038,0.846215778 183.48,0.98 C183.616366,1.10192497 183.693005,1.2771002 183.690085,1.46 L183.690085,18.09 C183.690791,18.2753496 183.614764,18.4527456 183.48,18.58 C183.354111,18.7095438 183.180628,18.7818285 183,18.78 L181.08,18.78 C180.896179,18.7827237 180.719088,18.7109025 180.589093,18.5809072 C180.459098,18.450912 180.387276,18.2738208 180.39,18.09 L180.39,17.51 C180.229589,17.6900831 180.052092,17.8541846 179.86,18 C179.613669,18.1971875 179.34519,18.3649867 179.06,18.5 C178.71089,18.6642772 178.345574,18.7916351 177.97,18.88 C177.507581,18.9855561 177.034277,19.0359076 176.56,19.03 C175.769339,19.042912 174.986147,18.8753294 174.27,18.54 C173.601964,18.2252506 173.006174,17.7758546 172.52,17.22 C172.031922,16.6581276 171.646086,16.0150678 171.38,15.32 C171.098635,14.6015536 170.939764,13.8410031 170.91,13.07 C170.91,12.82 170.91,12.52 170.91,12.19 C170.91,11.86 170.91,11.55 170.91,11.3 C170.939764,10.5289969 171.098635,9.76844637 171.38,9.05 C171.648278,8.35600125 172.033896,7.71330315 172.52,7.15 C173.006174,6.59414537 173.601964,6.14474938 174.27,5.83 C174.980054,5.49763371 175.75607,5.33012357 176.54,5.34 L176.54,5.34 Z M174.18,11.48 C174.129999,11.9520129 174.129999,12.4279871 174.18,12.9 C174.191158,13.7902534 174.550054,14.6408385 175.18,15.27 C175.770332,15.7552775 176.516098,16.0109684 177.28,15.99 C178.047337,16.0109515 178.795313,15.747379 179.38,15.25 C179.982171,14.712959 180.342631,13.9559944 180.38,13.15 C180.416751,12.8179746 180.433448,12.4840353 180.43,12.15 C180.432997,11.8159738 180.416302,11.4820613 180.38,11.15 C180.293895,9.52850037 178.933287,8.26982714 177.31,8.31 C176.546098,8.28903162 175.800332,8.54472253 175.21,9.03 C174.54945,9.67375652 174.177857,10.5576419 174.18,11.48 L174.18,11.48 Z" id="Shape" fill="#455A64"></path>
                    <path d="M38.44,43.76 C38.6069429,43.7582274 38.7668214,43.8272658 38.88,43.95 C38.9980229,44.065627 39.0631415,44.2248057 39.0601086,44.39 L39.0601086,46.85 C39.0631415,47.0151943 38.9980229,47.174373 38.88,47.29 C38.7668214,47.4127342 38.6069429,47.4817726 38.44,47.4800972 L27.44,47.4800972 C27.2728009,47.4830591 27.1124178,47.4138028 27,47.29 C26.8792889,47.175398 26.8106506,47.0164463 26.81,46.85 L26.81,31.85 C26.8106506,31.6835537 26.8792889,31.524602 27,31.41 C27.1124178,31.2861972 27.2728009,31.2169409 27.44,31.2199028 L38.27,31.2199028 C38.613532,31.2304172 38.8895828,31.506468 38.9,31.85 L38.9,34.3 C38.9021103,34.4699167 38.8332478,34.6330122 38.71,34.75 C38.594373,34.8680229 38.4351943,34.9331415 38.27,34.93 L31.11,34.93 L31.11,37.44 L37.76,37.44 C37.9271991,37.4369409 38.0875822,37.5061972 38.2,37.63 C38.3207111,37.744602 38.3893494,37.9035537 38.39,38.07 L38.39,40.53 C38.3893494,40.6964463 38.3207111,40.855398 38.2,40.97 C38.0875822,41.0938028 37.9271991,41.1630591 37.76,41.16 L31.11,41.16 L31.11,43.76 L38.44,43.76 Z" id="Path" fill="#5BD989"></path>
                    <path d="M48.66,31.21 C49.5839441,31.1976708 50.5054042,31.3086495 51.4,31.54 C52.1444971,31.7379946 52.8438988,32.07751 53.46,32.54 C54.0256935,32.9796711 54.4725609,33.5537237 54.76,34.21 C55.0737007,34.9529383 55.2270433,35.7537277 55.21,36.56 C55.2491916,37.5753162 54.9995253,38.580917 54.49,39.46 C54.0095699,40.2270099 53.3139961,40.835637 52.49,41.21 L55.37,46.74 C55.4141316,46.8196838 55.4381595,46.9089301 55.44,47 C55.44,47.2816652 55.2116652,47.51 54.93,47.51 L51.77,47.51 C51.5304174,47.5343616 51.2914541,47.4583279 51.11,47.3 C50.9852403,47.1747575 50.8776362,47.033527 50.79,46.88 L48.21,41.88 L46,41.88 L46,46.88 C46.0031415,47.0451943 45.9380229,47.204373 45.82,47.32 C45.7068214,47.4427342 45.5469429,47.5117726 45.38,47.51 L42.38,47.51 C42.2130571,47.5117726 42.0531786,47.4427342 41.94,47.32 C41.8219771,47.204373 41.7568585,47.0451943 41.7598914,46.88 L41.7598914,31.88 C41.7568585,31.7148057 41.8219771,31.555627 41.94,31.44 C42.0531786,31.3172658 42.2130571,31.2482274 42.38,31.25 L48.66,31.21 Z M46.03,38.21 L48.66,38.21 C49.2232492,38.2324294 49.7823381,38.1047363 50.28,37.84 C50.7263307,37.5435633 50.9694982,37.0224902 50.91,36.49 C50.9703021,35.960136 50.7265072,35.441588 50.28,35.15 C49.7823381,34.8852637 49.2232492,34.7575706 48.66,34.78 L46,34.78 L46.03,38.21 Z" id="Shape" fill="#5BD989"></path>
                    <path d="M64.81,31.21 C65.7339441,31.1976708 66.6554042,31.3086495 67.55,31.54 C68.2944971,31.7379946 68.9938988,32.07751 69.61,32.54 C70.1784632,32.9768918 70.6259347,33.5517206 70.91,34.21 C71.2237007,34.9529383 71.3770433,35.7537277 71.36,36.56 C71.3991916,37.5753162 71.1495253,38.580917 70.64,39.46 C70.1595699,40.2270099 69.4639961,40.835637 68.64,41.21 L71.52,46.74 C71.5641316,46.8196838 71.5881595,46.9089301 71.59,47 C71.59,47.2816652 71.3616652,47.51 71.08,47.51 L67.92,47.51 C67.6804174,47.5343616 67.4414541,47.4583279 67.26,47.3 C67.1352403,47.1747575 67.0276362,47.033527 66.94,46.88 L64.36,41.88 L62.23,41.88 L62.23,46.88 C62.2293494,47.0464463 62.1607111,47.205398 62.04,47.32 C61.9268214,47.4427342 61.7669429,47.5117726 61.6,47.51 L58.55,47.51 C58.3830571,47.5117726 58.2231786,47.4427342 58.11,47.32 C57.9919771,47.204373 57.9268585,47.0451943 57.9298914,46.88 L57.9298914,31.88 C57.9268585,31.7148057 57.9919771,31.555627 58.11,31.44 C58.2231786,31.3172658 58.3830571,31.2482274 58.55,31.25 L64.81,31.21 Z M62.19,38.21 L64.81,38.21 C65.3732492,38.2324294 65.9323381,38.1047363 66.43,37.84 C66.8763307,37.5435633 67.1194982,37.0224902 67.06,36.49 C67.1203021,35.960136 66.8765072,35.441588 66.43,35.15 C65.9323381,34.8852637 65.3732492,34.7575706 64.81,34.78 L62.19,34.78 L62.19,38.21 Z" id="Shape" fill="#5BD989"></path>
                    <path d="M73.5,37.28 C73.5435128,36.4360363 73.7365072,35.606499 74.07,34.83 C74.3953413,34.0697252 74.8794997,33.3878119 75.49,32.83 C76.1365111,32.2366477 76.8945382,31.7777523 77.72,31.48 C79.6815625,30.8132865 81.8084375,30.8132865 83.77,31.48 C84.5943255,31.7801285 85.3519103,32.238756 86,32.83 C86.6075871,33.3881892 87.0883984,34.0701911 87.41,34.83 C87.7527451,35.6034329 87.9461427,36.4347034 87.98,37.28 C87.98,37.94 88.03,38.64 88.03,39.37 C88.03,40.1 88.03,40.78 87.98,41.37 C87.9450204,42.218364 87.7516975,43.0527048 87.41,43.83 C87.0799166,44.5850627 86.600267,45.2654167 86,45.83 C85.3480141,46.4237946 84.5826729,46.8795977 83.75,47.17 C81.7862756,47.8235039 79.6637244,47.8235039 77.7,47.17 C76.8733654,46.8794395 76.1145995,46.4234995 75.47,45.83 C74.8667596,45.2658075 74.3837587,44.5855245 74.05,43.83 C73.7175605,43.0496566 73.5246348,42.2170299 73.48,41.37 C73.48,40.74 73.48,40.06 73.48,39.37 C73.48,38.68 73.47,37.94 73.5,37.28 Z M83.7,41.28 C83.7,41 83.7,40.69 83.75,40.35 C83.8,40.01 83.75,39.66 83.75,39.3 C83.75,38.94 83.75,38.6 83.75,38.3 C83.75,38 83.75,37.67 83.7,37.4 C83.6745674,37.0364887 83.5936297,36.6790138 83.46,36.34 C83.3343721,36.0208597 83.1436563,35.7313805 82.9,35.49 C82.6451334,35.2415152 82.3423065,35.0475699 82.01,34.92 C81.606614,34.7726316 81.1793765,34.7014254 80.75,34.71 C80.3238013,34.7003067 79.8996334,34.7715669 79.5,34.92 C79.1634812,35.045054 78.8568955,35.239225 78.6,35.49 C78.3595605,35.7339994 78.1693039,36.0227818 78.04,36.34 C77.9063703,36.6790138 77.8254326,37.0364887 77.8,37.4 C77.8,37.6666667 77.78,37.9666667 77.74,38.3 C77.74,38.63 77.74,38.98 77.74,39.3 C77.74,39.62 77.74,40.01 77.74,40.35 C77.74,40.69 77.74,41 77.8,41.28 C77.837751,41.9959709 78.1201585,42.6772791 78.6,43.21 C79.1756938,43.7580181 79.9577947,44.0344817 80.75,43.97 C81.5395099,44.0367842 82.3194612,43.7597922 82.89,43.21 C83.3607879,42.6785265 83.6451959,42.0078855 83.7,41.3 L83.7,41.28 Z" id="Shape" fill="#5BD989"></path>
                    <path d="M97.65,31.21 C98.573906,31.1983822 99.4952723,31.3093496 100.39,31.54 C101.131784,31.7370577 101.828083,32.0767155 102.44,32.54 C103.00875,32.9790642 103.459006,33.5530547 103.75,34.21 C104.063701,34.9529383 104.217043,35.7537277 104.2,36.56 C104.239192,37.5753162 103.989525,38.580917 103.48,39.46 C102.987669,40.2357535 102.273398,40.8454972 101.43,41.21 L104.31,46.74 C104.356555,46.819252 104.38395,46.908285 104.39,47 C104.388181,47.1368396 104.330353,47.2669529 104.23,47.36 C104.135924,47.4576584 104.005586,47.5119661 103.87,47.51 L100.71,47.51 C100.470417,47.5343616 100.231454,47.4583279 100.05,47.3 C99.9277371,47.1750129 99.8234089,47.033665 99.74,46.88 L97.16,41.88 L95,41.88 L95,46.88 C94.9895828,47.223532 94.713532,47.4995828 94.37,47.51 L91.37,47.51 C91.026468,47.4995828 90.7504172,47.223532 90.74,46.88 L90.74,31.88 C90.7504172,31.536468 91.026468,31.2604172 91.37,31.25 L97.65,31.21 Z M95.02,38.21 L97.65,38.21 C98.2100717,38.2325793 98.7659777,38.1048245 99.26,37.84 C99.7138016,37.5492907 99.9621972,37.025331 99.9,36.49 C99.9606487,35.9576676 99.7121656,35.4374062 99.26,35.15 C98.7659777,34.8851755 98.2100717,34.7574207 97.65,34.78 L95,34.78 L95.02,38.21 Z" id="Shape" fill="#5BD989"></path>
                    <path d="M119.47,47.4800972 C119.300083,47.4821103 119.136988,47.4132478 119.02,47.29 C118.901977,47.174373 118.836859,47.0151943 118.84,46.85 L118.84,44.48 L111.52,44.48 C111.354806,44.4831415 111.195627,44.4180229 111.08,44.3 C110.956752,44.1830122 110.88789,44.0199167 110.89,43.85 L110.89,41.39 C110.877656,41.0327905 110.983066,40.6814262 111.19,40.39 L118.14,31.63 C118.244447,31.4940461 118.373313,31.378745 118.52,31.29 C118.673282,31.2323966 118.836322,31.2052232 119,31.21 L122.51,31.21 C122.677199,31.2069409 122.837582,31.2761972 122.95,31.4 C123.070711,31.514602 123.139349,31.6735537 123.14,31.84 L123.14,40.76 L125.14,40.76 C125.30597,40.7628934 125.464092,40.8311732 125.58,40.95 C125.698023,41.065627 125.763141,41.2248057 125.760109,41.39 L125.760109,43.85 C125.761313,44.0177969 125.696673,44.1793974 125.58,44.3 C125.463076,44.4160797 125.304757,44.4808464 125.14,44.48 L123.14,44.48 L123.14,46.85 C123.139349,47.0164463 123.070711,47.175398 122.95,47.29 C122.837582,47.4138028 122.677199,47.4830591 122.51,47.4800972 L119.47,47.4800972 Z M119,40.76 L119,36.49 L115.61,40.76 L119,40.76 Z" id="Shape" fill="#5BD989"></path>
                    <path d="M134.5,31 C135.52342,30.9764924 136.541841,31.149624 137.5,31.51 C138.281527,31.8161518 138.990125,32.2828724 139.58,32.88 C140.126242,33.4526294 140.545388,34.1341678 140.81,34.88 C141.081673,35.6569998 141.24324,36.4682043 141.29,37.29 C141.29,37.95 141.29,38.65 141.29,39.38 C141.29,40.11 141.29,40.79 141.29,41.38 C141.24324,42.2017957 141.081673,43.0130002 140.81,43.79 C140.549891,44.5379771 140.130188,45.220421 139.58,45.79 C138.990125,46.3871276 138.281527,46.8538482 137.5,47.16 C135.55778,47.8398833 133.44222,47.8398833 131.5,47.16 C130.718473,46.8538482 130.009875,46.3871276 129.42,45.79 C128.869812,45.220421 128.450109,44.5379771 128.19,43.79 C127.918327,43.0130002 127.75676,42.2017957 127.71,41.38 C127.71,40.75 127.71,40.07 127.71,39.38 C127.71,38.69 127.71,37.95 127.71,37.29 C127.75676,36.4682043 127.918327,35.6569998 128.19,34.88 C128.454612,34.1341678 128.873758,33.4526294 129.42,32.88 C130.009875,32.2828724 130.718473,31.8161518 131.5,31.51 C132.458159,31.149624 133.47658,30.9764924 134.5,31 Z M137,41.3 C137.06,39.98 137.06,38.68 137,37.39 C136.97426,37.0316964 136.91398,36.6767156 136.82,36.33 C136.746294,36.0222598 136.610146,35.7329448 136.42,35.48 C136.21895,35.2329942 135.961818,35.0375738 135.67,34.91 C135.302617,34.7584737 134.907188,34.6868873 134.51,34.7 C134.112879,34.6877968 133.717639,34.7593489 133.35,34.91 C133.058182,35.0375738 132.80105,35.2329942 132.6,35.48 C132.4104,35.7346077 132.271234,36.0231218 132.19,36.33 C132.089784,36.6749587 132.032682,37.0310028 132.02,37.39 C131.950007,38.6923936 131.950007,39.9976064 132.02,41.3 C132.036305,41.6605842 132.086527,42.018832 132.17,42.37 C132.252586,42.6782546 132.395325,42.9671309 132.59,43.22 C132.795018,43.4646377 133.05561,43.6566531 133.35,43.78 C133.717639,43.9306511 134.112879,44.0022032 134.51,43.99 C134.907188,44.0031127 135.302617,43.9315263 135.67,43.78 C135.96439,43.6566531 136.224982,43.4646377 136.43,43.22 C136.624675,42.9671309 136.767414,42.6782546 136.85,42.37 C136.933473,42.018832 136.983695,41.6605842 137,41.3 Z" id="Shape" fill="#5BD989"></path>
                    <path d="M151.79,47.48 C151.446468,47.4695828 151.170417,47.193532 151.16,46.85 L151.16,44.48 L143.84,44.48 C143.674806,44.4831415 143.515627,44.4180229 143.4,44.3 C143.28057,44.1804069 143.21242,44.0189974 143.21,43.85 L143.21,41.39 C143.195875,41.0310162 143.305296,40.6780468 143.52,40.39 L150.46,31.63 C150.565292,31.4911058 150.698047,31.3753711 150.85,31.29 C150.999515,31.2313578 151.159503,31.2041259 151.32,31.21 L154.83,31.21 C155.173532,31.2204172 155.449583,31.496468 155.46,31.84 L155.46,40.76 L157.46,40.76 C157.803532,40.7704172 158.079583,41.046468 158.09,41.39 L158.09,43.85 C158.08758,44.0189974 158.01943,44.1804069 157.9,44.3 C157.784373,44.4180229 157.625194,44.4831415 157.46,44.48 L155.46,44.48 L155.46,46.85 C155.449583,47.193532 155.173532,47.4695828 154.83,47.48 L151.79,47.48 Z M151.28,40.76 L151.28,36.49 L147.89,40.76 L151.28,40.76 Z" id="Shape" fill="#5BD989"></path>
                </g>
            </g>
        </g>
        <g id="Group" transform="translate(130.000000, 0.000000)">
            <polygon id="Fill-1" fill="#FFFFFF" points="0 169.742 340 169.742 340 0 0 0"></polygon>
            <path d="M66.9731,82.2912 L63.1141,82.2912 L62.8161,81.1042 L73.9191,66.9132 L75.2851,66.9132 L75.2851,75.8782 L82.4691,75.8782 C82.5871,76.4722 82.6661,77.0072 82.7061,77.4812 C82.7451,77.9562 82.7651,78.4522 82.7651,78.9662 C82.7651,79.5202 82.7451,80.0552 82.7061,80.5692 C82.6661,81.0832 82.5871,81.6582 82.4691,82.2912 L75.2851,82.2912 L75.2851,94.3432 C75.2851,95.5712 75.3831,96.5602 75.5821,97.3122 C75.7791,98.0642 76.0661,98.6582 76.4421,99.0932 C76.8181,99.5292 77.2831,99.8262 77.8381,99.9832 C78.3911,100.1422 79.0451,100.2212 79.7971,100.2212 C80.3901,100.2212 80.9741,100.1722 81.5481,100.0732 C82.1211,99.9752 82.6261,99.8852 83.0621,99.8052 C83.3391,100.5582 83.5371,101.3402 83.6561,102.1502 C83.7751,102.9622 83.8341,103.6852 83.8341,104.3172 C83.8341,104.7532 83.8241,105.1202 83.8051,105.4162 C83.7841,105.7132 83.7551,106.0012 83.7151,106.2772 C81.8941,106.7122 80.0151,106.9302 78.0751,106.9302 C74.4731,106.9302 71.7231,106.0892 69.8221,104.4072 C67.9221,102.7252 66.9731,99.9832 66.9731,96.1842 L66.9731,82.2912 Z" id="Fill-2" fill="#333333"></path>
            <path d="M104.1992,92.5031 C103.7232,92.4241 103.2092,92.3541 102.6552,92.2951 C102.1002,92.2361 101.6062,92.2061 101.1712,92.2061 C99.2312,92.2061 97.6972,92.5531 96.5702,93.2451 C95.4412,93.9381 94.8772,95.0561 94.8772,96.6001 C94.8772,97.6291 95.0942,98.4201 95.5302,98.9741 C95.9662,99.5291 96.4902,99.9351 97.1032,100.1911 C97.7172,100.4491 98.3702,100.6071 99.0632,100.6671 C99.7552,100.7261 100.3592,100.7551 100.8742,100.7551 C101.4682,100.7551 102.0612,100.7071 102.6552,100.6071 C103.2492,100.5091 103.7632,100.4201 104.1992,100.3401 L104.1992,92.5031 Z M104.1992,86.3881 C104.1992,85.4381 104.0402,84.6661 103.7232,84.0721 C103.4072,83.4781 102.9712,83.0131 102.4182,82.6771 C101.8632,82.3411 101.1802,82.1131 100.3692,81.9941 C99.5572,81.8761 98.6572,81.8151 97.6682,81.8151 C95.5302,81.8151 93.2542,82.2311 90.8402,83.0631 C90.2852,82.0341 89.8702,81.0641 89.5932,80.1531 C89.3162,79.2431 89.1782,78.1551 89.1782,76.8881 C90.9192,76.2941 92.6602,75.8591 94.4032,75.5821 C96.1442,75.3051 97.7662,75.1661 99.2712,75.1661 C103.3872,75.1661 106.6032,76.1561 108.9192,78.1341 C111.2352,80.1141 112.3922,83.2811 112.3922,87.6341 L112.3922,105.4461 C111.0062,105.8821 109.3242,106.2971 107.3452,106.6931 C105.3662,107.0881 103.1302,107.2871 100.6362,107.2871 C98.6172,107.2871 96.7672,107.1081 95.0852,106.7521 C93.4032,106.3961 91.9582,105.8021 90.7512,104.9711 C89.5432,104.1401 88.6142,103.0711 87.9612,101.7651 C87.3072,100.4591 86.9812,98.8561 86.9812,96.9561 C86.9812,95.0561 87.3872,93.4631 88.1982,92.1761 C89.0092,90.8901 90.0572,89.8601 91.3452,89.0881 C92.6312,88.3171 94.0662,87.7631 95.6492,87.4261 C97.2322,87.0901 98.8152,86.9211 100.3992,86.9211 C101.5462,86.9211 102.8132,86.9821 104.1992,87.1001 L104.1992,86.3881 Z" id="Fill-4" fill="#333333"></path>
            <path d="M125.8105,93.2155 C123.5935,92.5825 121.8615,91.6425 120.6155,90.3955 C119.3685,89.1485 118.7455,87.2785 118.7455,84.7845 C118.7455,81.7775 119.8225,79.4215 121.9805,77.7185 C124.1375,76.0175 127.0765,75.1665 130.7975,75.1665 C132.3415,75.1665 133.8645,75.3055 135.3695,75.5815 C136.8725,75.8595 138.3965,76.2755 139.9405,76.8285 C139.8615,77.8585 139.6635,78.9265 139.3475,80.0345 C139.0305,81.1435 138.6545,82.1125 138.2185,82.9445 C137.2685,82.5485 136.2195,82.2015 135.0725,81.9045 C133.9245,81.6085 132.7165,81.4595 131.4505,81.4595 C130.1045,81.4595 129.0555,81.6675 128.3035,82.0835 C127.5515,82.4985 127.1755,83.1615 127.1755,84.0715 C127.1755,84.9435 127.4425,85.5555 127.9775,85.9125 C128.5115,86.2685 129.2735,86.6055 130.2625,86.9215 L133.6475,87.9315 C134.7555,88.2485 135.7555,88.6345 136.6455,89.0885 C137.5365,89.5445 138.2975,90.1085 138.9315,90.7805 C139.5635,91.4545 140.0605,92.2855 140.4155,93.2745 C140.7715,94.2645 140.9505,95.4715 140.9505,96.8965 C140.9505,98.3615 140.6435,99.7265 140.0295,100.9925 C139.4155,102.2605 138.5255,103.3585 137.3585,104.2885 C136.1905,105.2185 134.7755,105.9505 133.1125,106.4855 C131.4505,107.0195 129.5705,107.2865 127.4725,107.2865 C126.5225,107.2865 125.6515,107.2565 124.8605,107.1975 C124.0675,107.1385 123.3065,107.0395 122.5745,106.9015 C121.8415,106.7615 121.1205,106.5935 120.4075,106.3965 C119.6945,106.1985 118.9225,105.9415 118.0915,105.6245 C118.1705,104.5555 118.3595,103.4775 118.6555,102.3885 C118.9535,101.3005 119.3385,100.2415 119.8135,99.2115 C121.1205,99.7265 122.3565,100.1125 123.5245,100.3695 C124.6915,100.6275 125.9085,100.7555 127.1755,100.7555 C127.7295,100.7555 128.3335,100.7065 128.9865,100.6075 C129.6395,100.5085 130.2435,100.3305 130.7975,100.0725 C131.3515,99.8155 131.8165,99.4795 132.1925,99.0635 C132.5685,98.6475 132.7565,98.1045 132.7565,97.4305 C132.7565,96.4805 132.4695,95.7985 131.8955,95.3825 C131.3215,94.9665 130.5195,94.6015 129.4915,94.2835 L125.8105,93.2155 Z" id="Fill-6" fill="#333333"></path>
            <path d="M156.208,90.4846 L163.808,75.8786 C165.352,75.6416 166.915,75.5226 168.499,75.5226 C170.002,75.5226 171.467,75.6416 172.892,75.8786 L165.055,90.0676 L174.199,106.5746 C172.575,106.8116 171.011,106.9306 169.508,106.9306 C168.122,106.9306 166.658,106.8116 165.114,106.5746 L156.208,90.4846 Z M146.65,63.1726 C147.995,62.9356 149.381,62.8166 150.806,62.8166 C152.23,62.8166 153.635,62.9356 155.021,63.1726 L155.021,106.5746 C153.635,106.8116 152.23,106.9306 150.806,106.9306 C149.381,106.9306 147.995,106.8116 146.65,106.5746 L146.65,63.1726 Z" id="Fill-8" fill="#333333"></path>
            <path d="M187.6748,100.0437 C188.2288,100.1237 188.8718,100.1827 189.6048,100.2207 C190.3368,100.2617 190.9998,100.2807 191.5938,100.2807 C192.4248,100.2807 193.2948,100.2017 194.2058,100.0437 C195.1158,99.8857 195.9668,99.5787 196.7588,99.1237 C197.5498,98.6687 198.2028,98.0347 198.7188,97.2227 C199.2318,96.4127 199.4898,95.3537 199.4898,94.0467 C199.4898,92.8197 199.2918,91.8007 198.8958,90.9887 C198.5008,90.1787 197.9368,89.5247 197.2048,89.0297 C196.4708,88.5347 195.6018,88.1897 194.5918,87.9907 C193.5828,87.7937 192.4638,87.6937 191.2378,87.6937 L187.6748,87.6937 L187.6748,100.0437 Z M190.2868,81.1627 C191.2768,81.1627 192.1958,81.0737 193.0478,80.8957 C193.8988,80.7177 194.6408,80.4007 195.2748,79.9457 C195.9068,79.4907 196.4028,78.8767 196.7588,78.1047 C197.1148,77.3337 197.2928,76.3537 197.2928,75.1667 C197.2928,74.0187 197.0858,73.0787 196.6698,72.3457 C196.2548,71.6137 195.7198,71.0397 195.0668,70.6247 C194.4138,70.2087 193.6808,69.9317 192.8698,69.7937 C192.0588,69.6547 191.2568,69.5857 190.4658,69.5857 C189.3568,69.5857 188.4258,69.6447 187.6748,69.7637 L187.6748,81.1627 L190.2868,81.1627 Z M179.0658,63.8257 C180.3328,63.6277 181.7978,63.4697 183.4598,63.3517 C185.1218,63.2317 187.1998,63.1727 189.6938,63.1727 C191.8698,63.1727 193.9278,63.3517 195.8678,63.7077 C197.8068,64.0637 199.4998,64.6677 200.9448,65.5187 C202.3888,66.3697 203.5278,67.5067 204.3588,68.9317 C205.1898,70.3567 205.6058,72.1387 205.6058,74.2757 C205.6058,75.5427 205.4168,76.7197 205.0418,77.8087 C204.6648,78.8977 204.1598,79.8477 203.5278,80.6577 C202.8938,81.4697 202.1808,82.1427 201.3898,82.6767 C200.5978,83.2107 199.7868,83.5377 198.9558,83.6567 C199.8658,83.7747 200.8758,84.0527 201.9838,84.4877 C203.0918,84.9237 204.1208,85.5657 205.0708,86.4177 C206.0208,87.2687 206.8128,88.3667 207.4458,89.7127 C208.0788,91.0587 208.3958,92.6807 208.3958,94.5817 C208.3958,97.1537 207.9108,99.2617 206.9418,100.9037 C205.9708,102.5467 204.6648,103.8427 203.0228,104.7937 C201.3798,105.7427 199.4798,106.3967 197.3228,106.7517 C195.1658,107.1087 192.8998,107.2867 190.5248,107.2867 C188.7038,107.2867 186.9038,107.2367 185.1218,107.1387 C183.3408,107.0397 181.3218,106.8507 179.0658,106.5747 L179.0658,63.8257 Z" id="Fill-10" fill="#333333"></path>
            <path d="M262.3994,90.9001 L267.1494,75.8791 C268.6134,75.6411 270.1374,75.5221 271.7214,75.5221 C273.1854,75.5221 274.6304,75.6411 276.0554,75.8791 L270.1184,90.7221 L277.1834,106.5741 C275.6394,106.8121 274.1754,106.9301 272.7894,106.9301 C271.4034,106.9301 269.9994,106.8121 268.5744,106.5741 L262.3994,90.9001 Z M254.2654,90.7221 L248.3874,75.8791 C249.6934,75.6411 251.1384,75.5221 252.7224,75.5221 C254.2254,75.5221 255.7504,75.6411 257.2934,75.8791 L261.9834,90.9001 L255.8694,106.5741 C254.4434,106.8121 253.0384,106.9301 251.6534,106.9301 C250.2674,106.9301 248.8034,106.8121 247.2594,106.5741 L254.2654,90.7221 Z" id="Fill-12" fill="#333333"></path>
            <path d="M236.543,99.509 L219.978,99.509 L219.978,82.944 L231.13,82.944 L240.12,75.655 C239.764,75.574 239.397,75.522 239.017,75.522 L217.504,75.522 C214.772,75.522 212.557,77.738 212.557,80.47 L212.557,101.983 C212.557,104.716 214.772,106.93 217.504,106.93 L239.017,106.93 C241.75,106.93 243.965,104.716 243.965,101.983 L243.965,84.291 L236.543,93.661 L236.543,99.509 Z" id="Fill-14" fill="#333333"></path>
            <polygon id="Fill-16" fill="#5BD989" points="243.2314 77.9094 236.5434 83.3314 228.1784 90.1134 225.5774 86.2204 221.4634 88.9684 227.8984 98.5994 236.5434 87.6844 243.6344 78.7314 246.1764 75.5224"></polygon>
        </g>
    </g>
</svg>